{
.appVersion = "1361";
copyright = "Copyright 2017 The Barlow Project Authors (https://github.com/jpt/barlow)";
customParameters = (
{
name = "Use Typo Metrics";
value = 1;
},
{
name = licenseURL;
value = "http://scripts.sil.org/OFL";
},
{
name = license;
value = "This Font Software is licensed under the SIL Open Font License, Version 1.1. This license is available with a FAQ at: http://scripts.sil.org/OFL";
},
{
name = fsType;
value = (
);
},
{
name = vendorID;
value = TRBY;
},
{
name = Axes;
value = (
{
Name = Weight;
Tag = wght;
},
{
Name = Width;
Tag = wdth;
}
);
},
{
name = "Disable Last Change";
value = 1;
},
{
name = "Use Line Breaks";
value = 1;
},
{
name = "Has WWS Names";
value = 1;
},
{
name = "Decompose Components in Variable Font";
value = 1;
}
);
date = "2019-07-02 08:04:58 +0000";
designer = "Jeremy Tribby";
designerURL = "https://tribby.com/";
familyName = Barlow;
featurePrefixes = (
{
automatic = 1;
code = "languagesystem DFLT dflt;

languagesystem latn dflt;
languagesystem latn CRT;
languagesystem latn TAT;
languagesystem latn KAZ;
languagesystem latn CAT;
languagesystem latn TRK;
languagesystem latn AZE;
";
name = Languagesystems;
}
);
features = (
{
automatic = 1;
code = "feature locl;
feature sups;
feature numr;
feature dnom;
feature frac;
feature ordn;
feature pnum;
feature tnum;
feature c2sc;
feature smcp;
";
name = aalt;
},
{
automatic = 1;
code = "lookup ccmp_Other_1 {
	@CombiningTopAccents = [acutecomb brevecomb caroncomb circumflexcomb commaabovecomb commaturnedabovecomb dieresiscomb dotaccentcomb gravecomb hookabovecomb hungarumlautcomb macroncomb ringcomb tildecomb];
	@CombiningNonTopAccents = [cedillacomb dotbelowcomb ogonekcomb horncomb slashlongcomb slashshortcomb strokelongcomb strokeshortcomb];
	sub [i j]' @CombiningTopAccents by [idotless jdotless];
	sub [i j]' @CombiningNonTopAccents @CombiningTopAccents by [idotless jdotless];
} ccmp_Other_1;

lookup ccmp_latn_1 {
	lookupflag 0;
	sub brevecomb acutecomb by brevecomb_acutecomb;

glyphs = (
{
glyphname = A;
layers = (
{
anchors = (
{
name = bottom;
position = "{275, 0}";
},
{
name = ogonek;
position = "{500, 10}";
},
{
name = top;
position = "{274, 700}";
}
);
hints = (
{
horizontal = 1;
origin = "{1, 0}";
target = "{0, 7}";
type = Stem;
}
);
layerId = "262880E7-CFE1-4BDA-902E-E24798F3240A";
paths = (
{
closed = 1;
nodes = (
"54 0 LINE",
"277 680 LINE",
"271 680 LINE",
"496 0 LINE",
"518 0 LINE",
"285 700 LINE",
"263 700 LINE",
"32 0 LINE"
);
},
{
closed = 1;
nodes = (
"451 155 LINE",
"451 176 LINE",
"100 176 LINE",
"100 155 LINE"
);
}
);
width = 549;
},
{
anchors = (
{
name = bottom;
position = "{252, 0}";
},
{
name = ogonek;
position = "{464, 10}";
},
{
name = top;
position = "{252, 700}";
}
);
layerId = "4E2227F3-52E4-4048-A8EE-327B486EF0A4";
paths = (
{
closed = 1;
nodes = (
"186 0 LINE",
"257 520 LINE",
"237 520 LINE",
"313 0 LINE",
"505 0 LINE",
"357 700 LINE",
"147 700 LINE",
"-2 0 LINE"
);
},
{
closed = 1;
nodes = (
"385 95 LINE",
"385 239 LINE",
"115 239 LINE",
"115 95 LINE"
);
}
);
width = 504;
},
{
anchors = (
{
name = bottom;
position = "{340, 0}";
},
{
name = ogonek;
position = "{626, 10}";
},
{
name = top;
position = "{338, 700}";
}
);
layerId = "FFFA8D72-12AC-4CE0-B2CA-57A29829F4DA";
paths = (
{
closed = 1;
nodes = (
"203 0 LINE",
"350 520 LINE",
"327 520 LINE",
"477 0 LINE",
"679 0 LINE",
"459 700 LINE",
"221 700 LINE",
"1 0 LINE"
);
},
{
closed = 1;
nodes = (
"506 95 LINE",
"506 239 LINE",
"171 239 LINE",
"171 95 LINE"
);
}
);
width = 680;
},
{
anchors = (
{
name = bottom;
position = "{193, 0}";
},
{
name = ogonek;
position = "{336, 10}";
},
{
name = top;
position = "{192, 700}";
}
);
layerId = "DCBE1F7B-116A-43E0-B7B4-8657BA77D8B5";
paths = (
{
closed = 1;
nodes = (
"45 0 LINE",
"194 671 LINE",
"190 671 LINE",
"340 0 LINE",
"362 0 LINE",
"203 700 LINE",
"180 700 LINE",
"23 0 LINE"
);
},
{
closed = 1;
nodes = (
"317 155 LINE",
"317 176 LINE",
"71 176 LINE",
"71 155 LINE"
);
}
);
width = 384;
}
);
leftKerningGroup = A;
rightKerningGroup = A;
unicode = 0041;
},
{
glyphname = AE;
layers = (
{
hints = (
{
origin = "{0, 10}";
target = "{0, 0}";
type = Stem;
},
{
origin = "{0, 2}";
target = "{0, 5}";
type = Stem;
},
{
origin = "{0, 9}";
target = "{0, 6}";
type = Stem;
},
{
horizontal = 1;
place = "{155, 21}";
type = Stem;
},
{
horizontal = 1;
place = "{340, 21}";
type = Stem;
},
{
horizontal = 1;
origin = "{0, 3}";
target = "{0, 4}";
type = Stem;
},
{
origin = "{0, 2}";
target = "{0, 5}";
type = Stem;
},
{
horizontal = 1;
origin = "{0, 8}";
target = "{0, 7}";
type = Stem;
}
);
layerId = "262880E7-CFE1-4BDA-902E-E24798F3240A";
paths = (
{
closed = 1;
nodes = (
"38 0 LINE",
"406 684 LINE",
"406 0 LINE",
"797 0 LINE",
"797 21 LINE",
"428 21 LINE",
"428 679 LINE",
"797 679 LINE",
"797 700 LINE",
"392 700 LINE",
"13 0 LINE"
);
},
{
closed = 1;
nodes = (
"419 155 LINE",
"419 176 LINE",
"118 176 LINE",
"113 155 LINE"
);
},
{
closed = 1;
nodes = (
"688 340 LINE",
"688 361 LINE",
"417 361 LINE",
"417 340 LINE"
);
}
);
width = 841;
},
{
layerId = "FFFA8D72-12AC-4CE0-B2CA-57A29829F4DA";
paths = (
{
closed = 1;
nodes = (
"196 0 LINE",
"423 483 LINE",
"423 0 LINE",
"933 0 LINE",
"933 161 LINE",
"611 161 LINE",
"611 539 LINE",
"933 539 LINE",
"933 700 LINE",
"333 700 LINE",
"-11 0 LINE"
);
},
{
closed = 1;
nodes = (
"458 95 LINE",
"476 239 LINE",
"141 239 LINE",
"103 95 LINE"
);
},
{
closed = 1;
nodes = (
"819 275 LINE",
"819 435 LINE",
"499 435 LINE",
"499 275 LINE"
);
}
);
width = 964;
},
{
layerId = "DCBE1F7B-116A-43E0-B7B4-8657BA77D8B5";
paths = (
{
closed = 1;
nodes = (
"31 0 LINE",
"327 660 LINE",
"326 0 LINE",
"609 0 LINE",
"609 21 LINE",
"349 21 LINE",
"349 679 LINE",
"609 679 LINE",
"609 700 LINE",
"325 700 LINE",
"9 0 LINE"
);
},
{
closed = 1;
nodes = (
"338 155 LINE",
"343 176 LINE",
"97 176 LINE",
"92 155 LINE"
);
},
{
closed = 1;
nodes = (
"526 340 LINE",
"526 361 LINE",
"338 361 LINE",
"338 340 LINE"
);
}
);
width = 637;
},
{
layerId = "4E2227F3-52E4-4048-A8EE-327B486EF0A4";
paths = (
{
closed = 1;
nodes = (
"186 0 LINE",
"351 468 LINE",
"351 0 LINE",
"751 0 LINE",
"751 161 LINE",
"539 161 LINE",
"539 539 LINE",
"751 539 LINE",
"751 700 LINE",
"269 700 LINE",
"-12 0 LINE"
);
},
{
closed = 1;
nodes = (
"438 95 LINE",
"438 239 LINE",
"168 239 LINE",
"168 95 LINE"
);
},
{
closed = 1;
nodes = (
"659 270 LINE",
"659 431 LINE",
"427 431 LINE",
"427 270 LINE"
);
}
);
width = 765;
}
);
leftKerningGroup = A;
unicode = 00C6;
},
{
glyphname = B;
layers = (
{
hints = (
{
horizontal = 1;
origin = "{1, 0}";
target = "{3, 8}";
type = Stem;
},
{
horizontal = 1;
place = "{700, -21}";
type = Stem;
},
{
origin = "{2, 7}";
target = "{1, 0}";
type = Stem;
},
{
horizontal = 1;
place = "{0, 22}";
type = Stem;
},
{
origin = "{1, 4}";
target = "{0, 3}";
type = Stem;
}
);
layerId = "262880E7-CFE1-4BDA-902E-E24798F3240A";
paths = (
{
closed = 1;
nodes = (
"338 0 LINE SMOOTH",
"452 0 OFFCURVE",
"527 74 OFFCURVE",
"527 186 CURVE SMOOTH",
"527 298 OFFCURVE",
"450 373 OFFCURVE",
"333 373 CURVE SMOOTH",
"100 373 LINE",
"100 0 LINE"
);
},
{
closed = 1;
nodes = (
"122 352 LINE",
"332 352 LINE SMOOTH",
"436 352 OFFCURVE",
"505 286 OFFCURVE",
"505 186 CURVE SMOOTH",
"505 88 OFFCURVE",
"438 22 OFFCURVE",
"338 22 CURVE SMOOTH",
"122 22 LINE"
);
},
{
closed = 1;
nodes = (
"333 352 LINE SMOOTH",
"445 352 OFFCURVE",
"520 420 OFFCURVE",
"520 523 CURVE",
"520 629 OFFCURVE",
"445 700 OFFCURVE",
"332 700 CURVE SMOOTH",
"100 700 LINE",
"100 352 LINE"
);
},
{
closed = 1;
nodes = (
"122 679 LINE",
"332 679 LINE SMOOTH",
"432 679 OFFCURVE",
"498 617 OFFCURVE",
"498 523 CURVE SMOOTH",
"498 433 OFFCURVE",
"432 373 OFFCURVE",
"332 373 CURVE SMOOTH",
"122 373 LINE"
);
}
);
width = 591;
},
{
layerId = "4E2227F3-52E4-4048-A8EE-327B486EF0A4";
paths = (
{
closed = 1;
nodes = (
"256 0 LINE SMOOTH",
"375 0 OFFCURVE",
"474 65 OFFCURVE",
"472 201 CURVE SMOOTH",
"469 368 OFFCURVE",
"324 418 OFFCURVE",
"193 418 CURVE",
"30 418 LINE",
"30 0 LINE"
);
},
{
closed = 1;
nodes = (
"218 293 LINE",
"242 293 LINE SMOOTH",
"267 293 OFFCURVE",
"284 266 OFFCURVE",
"284 225 CURVE SMOOTH",
"284 182 OFFCURVE",
"266 161 OFFCURVE",
"241 161 CURVE SMOOTH",
"218 161 LINE"
);
},
{
closed = 1;
nodes = (
"195 319 LINE SMOOTH",
"370 319 OFFCURVE",
"458 369 OFFCURVE",
"458 503 CURVE SMOOTH",
"458 640 OFFCURVE",
"365 700 OFFCURVE",
"226 700 CURVE",
"30 700 LINE",
"30 319 LINE"
);
},
{
closed = 1;
nodes = (
"218 539 LINE",
"229 539 LINE",
"259 539 OFFCURVE",
"274 520 OFFCURVE",
"274 483 CURVE SMOOTH",
"274 447 OFFCURVE",
"259 427 OFFCURVE",
"229 427 CURVE",
"218 427 LINE"
);
}
);
width = 481;
},
{
layerId = "FFFA8D72-12AC-4CE0-B2CA-57A29829F4DA";
paths = (
{
closed = 1;
nodes = (
"336 0 LINE SMOOTH",
"478 0 OFFCURVE",
"595 55 OFFCURVE",
"595 200 CURVE SMOOTH",
"595 342 OFFCURVE",
"491 403 OFFCURVE",
"249 403 CURVE",
"52 401 LINE",
"52 0 LINE"
);
},
{
closed = 1;
nodes = (
"240 276 LINE",
"337 276 LINE SMOOTH",
"383 276 OFFCURVE",
"407 257 OFFCURVE",
"407 220 CURVE SMOOTH",
"407 181 OFFCURVE",
"383 161 OFFCURVE",
"336 161 CURVE SMOOTH",
"240 161 LINE"
);
},
{
closed = 1;
nodes = (
"251 323 LINE SMOOTH",
"466 321 OFFCURVE",
"584 360 OFFCURVE",
"584 502 CURVE SMOOTH",
"584 650 OFFCURVE",
"490 700 OFFCURVE",
"327 700 CURVE",
"52 700 LINE",
"52 325 LINE"
);
},
{
closed = 1;
nodes = (
"240 539 LINE",
"327 539 LINE",
"375 539 OFFCURVE",
"400 520 OFFCURVE",
"400 484 CURVE SMOOTH",
"400 448 OFFCURVE",
"375 429 OFFCURVE",
"327 429 CURVE",
"240 429 LINE"
);
}
);
width = 616;
},
{
layerId = "DCBE1F7B-116A-43E0-B7B4-8657BA77D8B5";
paths = (
{
closed = 1;
nodes = (
"206 0 LINE SMOOTH",
"309 0 OFFCURVE",
"370 69 OFFCURVE",
"370 186 CURVE SMOOTH",
"370 304 OFFCURVE",
"309 373 OFFCURVE",
"204 373 CURVE SMOOTH",
"69 373 LINE",
"69 0 LINE"
);
},
{
closed = 1;
nodes = (
"91 352 LINE",
"205 352 LINE SMOOTH",
"295 352 OFFCURVE",
"348 291 OFFCURVE",
"348 186 CURVE SMOOTH",
"348 83 OFFCURVE",
"295 22 OFFCURVE",
"205 22 CURVE SMOOTH",
"91 22 LINE"
);
},
{
closed = 1;
nodes = (
"204 352 LINE SMOOTH",
"308 352 OFFCURVE",
"369 415 OFFCURVE",
"369 523 CURVE SMOOTH",
"369 635 OFFCURVE",
"308 700 OFFCURVE",
"205 700 CURVE SMOOTH",
"69 700 LINE",
"69 352 LINE"
);
},
{
closed = 1;
nodes = (
"91 679 LINE",
"205 679 LINE SMOOTH",
"294 679 OFFCURVE",
"347 621 OFFCURVE",
"347 523 CURVE SMOOTH",
"347 429 OFFCURVE",
"294 373 OFFCURVE",
"205 373 CURVE SMOOTH",
"91 373 LINE"
);
}
);
width = 410;
},
{
associatedMasterId = "FFFA8D72-12AC-4CE0-B2CA-57A29829F4DA";
layerId = "D7C9BB07-D00A-46F1-A35F-FF4898574ABB";
name = "May 2 17, 02:09";
paths = (
{
closed = 1;
nodes = (
"227 539 LINE",
"287 539 LINE",
"332 539 OFFCURVE",
"360 516 OFFCURVE",
"360 484 CURVE SMOOTH",
"360 451 OFFCURVE",
"330 429 OFFCURVE",
"287 429 CURVE",
"227 429 LINE"
);
},
{
closed = 1;
nodes = (
"241 323 LINE SMOOTH",
"426 321 OFFCURVE",
"544 360 OFFCURVE",
"544 502 CURVE SMOOTH",
"544 650 OFFCURVE",
"450 700 OFFCURVE",
"287 700 CURVE",
"39 700 LINE",
"39 325 LINE"
);
},
{
closed = 1;
nodes = (
"227 276 LINE",
"297 276 LINE SMOOTH",
"336 276 OFFCURVE",
"367 253 OFFCURVE",
"367 220 CURVE SMOOTH",
"367 189 OFFCURVE",
"340 161 OFFCURVE",
"296 161 CURVE SMOOTH",
"227 161 LINE"
);
},
{
closed = 1;
nodes = (
"296 0 LINE SMOOTH",
"438 0 OFFCURVE",
"555 55 OFFCURVE",
"555 200 CURVE SMOOTH",
"555 376 OFFCURVE",
"377 403 OFFCURVE",
"239 403 CURVE",
"39 401 LINE",
"39 0 LINE"
);
}
);
width = 582;
}
);
leftKerningGroup = H;
rightKerningGroup = B;
unicode = 0042;
},
{
glyphname = C;
layers = (
{
anchors = (
{
name = bottom;
position = "{252, -9}";
},
{
name = top;
position = "{288, 700}";
}
);
hints = (
{
origin = "{0, 27}";
target = "{0, 12}";
type = Stem;
},
{
origin = "{0, 5}";
target = "{0, 2}";
type = Stem;
},
{
horizontal = 1;
origin = "{0, 31}";
target = "{0, 8}";
type = Stem;
},
{
horizontal = 1;
origin = "{0, 24}";
target = "{0, 15}";
type = Stem;
}
);
layerId = "262880E7-CFE1-4BDA-902E-E24798F3240A";
paths = (
{
closed = 1;
nodes = (
"418 -9 OFFCURVE",
"505 74 OFFCURVE",
"505 198 CURVE SMOOTH",
"505 207 LINE",
"483 208 LINE",
"483 196 LINE SMOOTH",
"483 86 OFFCURVE",
"405 12 OFFCURVE",
"288 12 CURVE SMOOTH",
"170 12 OFFCURVE",
"92 86 OFFCURVE",
"92 196 CURVE SMOOTH",
"92 504 LINE SMOOTH",
"92 614 OFFCURVE",
"170 687 OFFCURVE",
"288 687 CURVE SMOOTH",
"405 687 OFFCURVE",
"483 614 OFFCURVE",
"483 504 CURVE SMOOTH",
"483 491 LINE",
"505 492 LINE",
"505 503 LINE SMOOTH",
"505 626 OFFCURVE",
"418 708 OFFCURVE",
"288 708 CURVE SMOOTH",
"157 708 OFFCURVE",
"70 626 OFFCURVE",
"70 503 CURVE SMOOTH",
"70 198 LINE SMOOTH",
"70 74 OFFCURVE",
"157 -9 OFFCURVE",
"288 -9 CURVE SMOOTH"
);
}
);
width = 559;
},
{
anchors = (
{
name = bottom;
position = "{239, -8}";
},
{
name = top;
position = "{239, 700}";
}
);
background = {
paths = (
{
closed = 1;
nodes = (
"370 -8 OFFCURVE",
"458 75 OFFCURVE",
"458 205 CURVE SMOOTH",
"458 224 LINE",
"270 231 LINE",
"270 189 LINE SMOOTH",
"270 167 OFFCURVE",
"258 153 OFFCURVE",
"239 153 CURVE SMOOTH",
"220 153 OFFCURVE",
"208 167 OFFCURVE",
"208 189 CURVE SMOOTH",
"208 510 LINE SMOOTH",
"208 532 OFFCURVE",
"220 547 OFFCURVE",
"239 547 CURVE SMOOTH",
"258 547 OFFCURVE",
"270 532 OFFCURVE",
"270 510 CURVE SMOOTH",
"270 470 LINE",
"458 477 LINE",
"458 497 LINE SMOOTH",
"458 627 OFFCURVE",
"370 708 OFFCURVE",
"239 708 CURVE SMOOTH",
"107 708 OFFCURVE",
"20 627 OFFCURVE",
"20 497 CURVE SMOOTH",
"20 205 LINE SMOOTH",
"20 75 OFFCURVE",
"107 -8 OFFCURVE",
"239 -8 CURVE SMOOTH"
);
}
);
};
layerId = "4E2227F3-52E4-4048-A8EE-327B486EF0A4";
paths = (
{
closed = 1;
nodes = (
"370 -8 OFFCURVE",
"458 75 OFFCURVE",
"458 205 CURVE SMOOTH",
"458 224 LINE",
"270 231 LINE",
"270 189 LINE SMOOTH",
"270 167 OFFCURVE",
"258 153 OFFCURVE",
"239 153 CURVE SMOOTH",
"220 153 OFFCURVE",
"208 167 OFFCURVE",
"208 189 CURVE SMOOTH",
"208 510 LINE SMOOTH",
"208 532 OFFCURVE",
"220 547 OFFCURVE",
"239 547 CURVE SMOOTH",
"258 547 OFFCURVE",
"270 532 OFFCURVE",
"270 510 CURVE SMOOTH",
"270 470 LINE",
"458 477 LINE",
"458 497 LINE SMOOTH",
"458 627 OFFCURVE",
"370 708 OFFCURVE",
"239 708 CURVE SMOOTH",
"107 708 OFFCURVE",
"20 627 OFFCURVE",
"20 497 CURVE SMOOTH",
"20 205 LINE SMOOTH",
"20 75 OFFCURVE",
"107 -8 OFFCURVE",
"239 -8 CURVE SMOOTH"
);
}
);
width = 463;
},
{
anchors = (
{
name = bottom;
position = "{284, -8}";
},
{
name = top;
position = "{304, 700}";
}
);
layerId = "FFFA8D72-12AC-4CE0-B2CA-57A29829F4DA";
paths = (
{
closed = 1;
nodes = (
"470 -8 OFFCURVE",
"580 89 OFFCURVE",
"580 235 CURVE SMOOTH",
"580 244 LINE",
"392 254 LINE",
"392 242 LINE SMOOTH",
"392 189 OFFCURVE",
"357 153 OFFCURVE",
"304 153 CURVE SMOOTH",
"251 153 OFFCURVE",
"216 189 OFFCURVE",
"216 242 CURVE SMOOTH",
"216 457 LINE SMOOTH",
"216 511 OFFCURVE",
"251 547 OFFCURVE",
"304 547 CURVE SMOOTH",
"357 547 OFFCURVE",
"392 511 OFFCURVE",
"392 457 CURVE SMOOTH",
"392 445 LINE",
"580 457 LINE",
"580 467 LINE SMOOTH",
"580 612 OFFCURVE",
"470 708 OFFCURVE",
"304 708 CURVE SMOOTH",
"138 708 OFFCURVE",
"28 606 OFFCURVE",
"28 452 CURVE SMOOTH",
"28 250 LINE SMOOTH",
"28 95 OFFCURVE",
"138 -8 OFFCURVE",
"304 -8 CURVE SMOOTH"
);
}
);
width = 592;
},
{
anchors = (
{
name = bottom;
position = "{205, -8}";
},
{
name = top;
position = "{205, 700}";
}
);
layerId = "DCBE1F7B-116A-43E0-B7B4-8657BA77D8B5";
paths = (
{
closed = 1;
nodes = (
"296 -8 OFFCURVE",
"356 54 OFFCURVE",
"356 148 CURVE SMOOTH",
"356 177 LINE",
"333 178 LINE",
"333 147 LINE SMOOTH",
"333 67 OFFCURVE",
"282 13 OFFCURVE",
"205 13 CURVE SMOOTH",
"129 13 OFFCURVE",
"78 67 OFFCURVE",
"78 147 CURVE SMOOTH",
"78 554 LINE SMOOTH",
"78 634 OFFCURVE",
"129 687 OFFCURVE",
"205 687 CURVE SMOOTH",
"282 687 OFFCURVE",
"333 634 OFFCURVE",
"333 554 CURVE SMOOTH",
"333 521 LINE",
"356 522 LINE",
"356 553 LINE SMOOTH",
"356 647 OFFCURVE",
"296 708 OFFCURVE",
"205 708 CURVE SMOOTH",
"116 708 OFFCURVE",
"56 647 OFFCURVE",
"56 553 CURVE SMOOTH",
"56 148 LINE SMOOTH",
"56 54 OFFCURVE",
"116 -8 OFFCURVE",
"205 -8 CURVE SMOOTH"
);
}
);
width = 395;
}
);
leftKerningGroup = O;
rightKerningGroup = O;
unicode = 0043;
},
{
glyphname = D;
layers = (
{
anchors = (
{
name = top;
position = "{301, 700}";
}
);
hints = (
{
horizontal = 1;
origin = "{0, 7}";
target = "{1, 1}";
type = Stem;
},
{
origin = "{0, 8}";
target = "{1, 0}";
type = Stem;
},
{
horizontal = 1;
origin = "{0, 9}";
target = "{1, 9}";
type = Stem;
},
{
origin = "{1, 5}";
target = "{0, 3}";
type = Stem;
}
);
layerId = "262880E7-CFE1-4BDA-902E-E24798F3240A";
paths = (
{
closed = 1;
nodes = (
"335 0 LINE SMOOTH",
"454 0 OFFCURVE",
"527 68 OFFCURVE",
"527 180 CURVE SMOOTH",
"527 520 LINE SMOOTH",
"527 632 OFFCURVE",
"454 700 OFFCURVE",
"335 700 CURVE SMOOTH",
"100 700 LINE",
"100 0 LINE"
);
},
{
closed = 1;
nodes = (
"122 679 LINE",
"337 679 LINE SMOOTH",
"441 679 OFFCURVE",
"505 619 OFFCURVE",
"505 520 CURVE SMOOTH",
"505 179 LINE SMOOTH",
"505 81 OFFCURVE",
"441 21 OFFCURVE",
"337 21 CURVE SMOOTH",
"122 21 LINE"
);
}
);
width = 597;
},
{
anchors = (
{
name = top;
position = "{238, 700}";
}
);
layerId = "4E2227F3-52E4-4048-A8EE-327B486EF0A4";
paths = (
{
closed = 1;
nodes = (
"242 0 LINE SMOOTH",
"376 0 OFFCURVE",
"465 80 OFFCURVE",
"465 200 CURVE SMOOTH",
"465 500 LINE SMOOTH",
"465 620 OFFCURVE",
"376 700 OFFCURVE",
"242 700 CURVE SMOOTH",
"30 700 LINE",
"30 0 LINE"
);
},
{
closed = 1;
nodes = (
"218 539 LINE",
"237 539 LINE SMOOTH",
"261 539 OFFCURVE",
"277 519 OFFCURVE",
"277 488 CURVE",
"277 213 LINE",
"275 183 OFFCURVE",
"259 163 OFFCURVE",
"238 162 CURVE SMOOTH",
"218 161 LINE"
);
}
);
width = 485;
},
{
anchors = (
{
name = top;
position = "{306, 700}";
}
);
layerId = "FFFA8D72-12AC-4CE0-B2CA-57A29829F4DA";
paths = (
{
closed = 1;
nodes = (
"324 0 LINE SMOOTH",
"488 0 OFFCURVE",
"598 90 OFFCURVE",
"598 225 CURVE SMOOTH",
"598 475 LINE SMOOTH",
"598 610 OFFCURVE",
"488 700 OFFCURVE",
"324 700 CURVE SMOOTH",
"52 700 LINE",
"52 0 LINE"
);
},
{
closed = 1;
nodes = (
"240 539 LINE",
"330 539 LINE SMOOTH",
"378 539 OFFCURVE",
"410 501 OFFCURVE",
"410 443 CURVE",
"410 257 LINE",
"408 199 OFFCURVE",
"376 161 OFFCURVE",
"331 161 CURVE SMOOTH",
"240 161 LINE"
);
}
);
width = 626;
},
{
anchors = (
{
name = top;
position = "{206, 700}";
}
);
layerId = "DCBE1F7B-116A-43E0-B7B4-8657BA77D8B5";
paths = (
{
closed = 1;
nodes = (
"213 0 LINE SMOOTH",
"303 0 OFFCURVE",
"359 68 OFFCURVE",
"359 180 CURVE SMOOTH",
"359 520 LINE SMOOTH",
"359 632 OFFCURVE",
"303 700 OFFCURVE",
"213 700 CURVE SMOOTH",
"69 700 LINE",
"69 0 LINE"
);
},
{
closed = 1;
nodes = (
"91 679 LINE",
"214 679 LINE SMOOTH",
"290 679 OFFCURVE",
"336 619 OFFCURVE",
"336 520 CURVE SMOOTH",
"336 179 LINE SMOOTH",
"336 81 OFFCURVE",
"289 21 OFFCURVE",
"214 21 CURVE SMOOTH",
"91 21 LINE"
);
}
);
width = 414;
}
);
leftKerningGroup = H;
rightKerningGroup = B;
unicode = 0044;
},
{
glyphname = Eth;
layers = (
{
components = (
{
name = D;
transform = "{1, 0, 0, 1, -11, 0}";
}
);
layerId = "262880E7-CFE1-4BDA-902E-E24798F3240A";
paths = (
{
closed = 1;
nodes = (
"286 356 LINE",
"286 377 LINE",
"31 377 LINE",
"31 356 LINE"
);
}
);
width = 586;
},
{
components = (
{
name = D;
transform = "{1, 0, 0, 1, 20, 0}";
}
);
layerId = "FFFA8D72-12AC-4CE0-B2CA-57A29829F4DA";
paths = (
{
closed = 1;
nodes = (
"319 296 LINE",
"319 421 LINE",
"17 421 LINE",
"17 296 LINE"
);
}
);
width = 646;
},
{
components = (
{
name = D;
transform = "{1, 0, 0, 1, -20, 0}";
}
);
layerId = "DCBE1F7B-116A-43E0-B7B4-8657BA77D8B5";
paths = (
{
closed = 1;
nodes = (
"207 355 LINE",
"207 376 LINE",
"19 376 LINE",
"19 355 LINE"
);
}
);
width = 394;
},
{
components = (
{
name = D;
transform = "{1, 0, 0, 1, 6, 0}";
}
);
layerId = "4E2227F3-52E4-4048-A8EE-327B486EF0A4";
paths = (
{
closed = 1;
nodes = (
"251 314 LINE",
"251 419 LINE",
"10 419 LINE",
"10 314 LINE"
);
}
);
width = 491;
}
);
rightKerningGroup = B;
unicode = 00D0;
},
{
glyphname = E;
layers = (
{
anchors = (
{
name = bottom;
position = "{313, 0}";
},
{
name = ogonek;
position = "{541, 10}";
},
{
name = top;
position = "{310, 700}";
},
{
name = topleft;
position = "{3, 700}";
}
);
hints = (
{
horizontal = 1;
origin = "{1, 0}";
target = "{1, 1}";
type = Stem;
},
{
horizontal = 1;
origin = "{0, 0}";
target = "{0, 1}";
type = Stem;
},
{
origin = "{0, 7}";
target = "{0, 2}";
type = Stem;
},
{
horizontal = 1;
origin = "{0, 5}";
target = "{0, 4}";
type = Stem;
}
);
layerId = "262880E7-CFE1-4BDA-902E-E24798F3240A";
paths = (
{
closed = 1;
nodes = (
"531 0 LINE",
"531 21 LINE",
"122 21 LINE",
"122 679 LINE",
"531 679 LINE",
"531 700 LINE",
"100 700 LINE",
"100 0 LINE"
);
},
{
closed = 1;
nodes = (
"422 340 LINE",
"422 361 LINE",
"111 361 LINE",
"111 340 LINE"
);
}
);
width = 575;
},
{
anchors = (
{
name = bottom;
position = "{222, 0}";
},
{
name = ogonek;
position = "{404, 10}";
},
{
name = top;
position = "{231, 700}";
},
{
name = topleft;
position = "{24, 700}";
}
);
layerId = "4E2227F3-52E4-4048-A8EE-327B486EF0A4";
paths = (
{
closed = 1;
nodes = (
"430 0 LINE",
"430 161 LINE",
"218 161 LINE",
"218 539 LINE",
"430 539 LINE",
"430 700 LINE",
"30 700 LINE",
"30 0 LINE"
);
},
{
closed = 1;
nodes = (
"338 270 LINE",
"338 431 LINE",
"106 431 LINE",
"106 270 LINE"
);
}
);
width = 444;
},
{
anchors = (
{
name = bottom;
position = "{313, 0}";
},
{
name = ogonek;
position = "{526, 10}";
},
{
name = top;
position = "{304, 700}";
},
{
name = topleft;
position = "{33, 700}";
}
);
layerId = "FFFA8D72-12AC-4CE0-B2CA-57A29829F4DA";
paths = (
{
closed = 1;
nodes = (
"559 0 LINE",
"559 161 LINE",
"240 161 LINE",
"240 539 LINE",
"559 539 LINE",
"559 700 LINE",
"52 700 LINE",
"52 0 LINE"
);
},
{
closed = 1;
nodes = (
"445 275 LINE",
"445 435 LINE",
"128 435 LINE",
"128 275 LINE"
);
}
);
width = 590;
},
{
anchors = (
{
name = bottom;
position = "{208, 0}";
},
{
name = ogonek;
position = "{359, 10}";
},
{
name = top;
position = "{210, 700}";
},
{
name = topleft;
position = "{-2, 700}";
}
);
layerId = "DCBE1F7B-116A-43E0-B7B4-8657BA77D8B5";
paths = (
{
closed = 1;
nodes = (
"351 0 LINE",
"351 21 LINE",
"91 21 LINE",
"91 679 LINE",
"351 679 LINE",
"351 700 LINE",
"69 700 LINE",
"69 0 LINE"
);
},
{
closed = 1;
nodes = (
"268 340 LINE",
"268 361 LINE",
"80 361 LINE",
"80 340 LINE"
);
}
);
width = 379;
}
);
leftKerningGroup = H;
unicode = 0045;
},
{
color = 7;
glyphname = Eopen;
layers = (
{
background = {
paths = (
{
closed = 1;
nodes = (
"115 352 OFFCURVE",
"59 291 OFFCURVE",
"62 186 CURVE SMOOTH",
"63 147 LINE",
"63 67 OFFCURVE",
"114 13 OFFCURVE",
"190 13 CURVE SMOOTH",
"267 13 OFFCURVE",
"318 67 OFFCURVE",
"318 147 CURVE SMOOTH",
"318 178 LINE",
"341 177 LINE",
"341 148 LINE SMOOTH",
"341 54 OFFCURVE",
"281 -8 OFFCURVE",
"190 -8 CURVE SMOOTH",
"101 -8 OFFCURVE",
"41 54 OFFCURVE",
"41 148 CURVE",
"40 186 LINE",
"40 304 OFFCURVE",
"101 373 OFFCURVE",
"206 373 CURVE SMOOTH",
"250 373 LINE",
"250 352 LINE",
"206 352 LINE SMOOTH",
"102 352 OFFCURVE",
"41 415 OFFCURVE",
"41 523 CURVE",
"41 553 LINE SMOOTH",
"41 647 OFFCURVE",
"101 708 OFFCURVE",
"190 708 CURVE SMOOTH",
"281 708 OFFCURVE",
"341 647 OFFCURVE",
"341 553 CURVE SMOOTH",
"341 522 LINE",
"318 521 LINE",
"318 554 LINE SMOOTH",
"318 634 OFFCURVE",
"267 687 OFFCURVE",
"190 687 CURVE SMOOTH",
"114 687 OFFCURVE",
"63 634 OFFCURVE",
"63 554 CURVE",
"63 523 LINE SMOOTH",
"63 429 OFFCURVE",
"116 373 OFFCURVE",
"205 373 CURVE",
"205 352 LINE"
);
}
);
};
layerId = "DCBE1F7B-116A-43E0-B7B4-8657BA77D8B5";
paths = (
{
closed = 1;
nodes = (
"281 -8 OFFCURVE",
"341 54 OFFCURVE",
"341 148 CURVE SMOOTH",
"341 177 LINE",
"318 178 LINE",
"318 147 LINE SMOOTH",
"318 67 OFFCURVE",
"267 13 OFFCURVE",
"190 13 CURVE SMOOTH",
"114 13 OFFCURVE",
"65 67 OFFCURVE",
"63 147 CURVE SMOOTH",
"62 186 LINE SMOOTH",
"59 291 OFFCURVE",
"115 352 OFFCURVE",
"205 352 CURVE SMOOTH",
"250 352 LINE",
"250 373 LINE",
"205 373 LINE SMOOTH",
"116 373 OFFCURVE",
"63 429 OFFCURVE",
"63 523 CURVE SMOOTH",
"63 554 LINE SMOOTH",
"63 634 OFFCURVE",
"114 687 OFFCURVE",
"190 687 CURVE SMOOTH",
"267 687 OFFCURVE",
"318 634 OFFCURVE",
"318 554 CURVE SMOOTH",
"318 521 LINE",
"341 522 LINE",
"341 553 LINE SMOOTH",
"341 647 OFFCURVE",
"281 708 OFFCURVE",
"190 708 CURVE SMOOTH",
"101 708 OFFCURVE",
"41 647 OFFCURVE",
"41 553 CURVE SMOOTH",
"41 523 LINE SMOOTH",
"41 437 OFFCURVE",
"79 381 OFFCURVE",
"146 360 CURVE",
"146 364 LINE",
"78 342 OFFCURVE",
"38 280 OFFCURVE",
"40 186 CURVE SMOOTH",
"41 148 LINE SMOOTH",
"43 54 OFFCURVE",
"101 -8 OFFCURVE",
"190 -8 CURVE SMOOTH"
);
}
);
width = 380;
},
{
background = {
paths = (
{
closed = 1;
nodes = (
"359 -8 OFFCURVE",
"447 75 OFFCURVE",
"447 205 CURVE SMOOTH",
"447 224 LINE",
"259 231 LINE",
"259 189 LINE SMOOTH",
"259 167 OFFCURVE",
"247 153 OFFCURVE",
"228 153 CURVE SMOOTH",
"209 153 OFFCURVE",
"197 167 OFFCURVE",
"197 189 CURVE SMOOTH",
"197 510 LINE SMOOTH",
"197 532 OFFCURVE",
"209 547 OFFCURVE",
"228 547 CURVE SMOOTH",
"247 547 OFFCURVE",
"259 532 OFFCURVE",
"259 510 CURVE SMOOTH",
"259 470 LINE",
"447 477 LINE",
"447 497 LINE SMOOTH",
"447 627 OFFCURVE",
"359 708 OFFCURVE",
"228 708 CURVE SMOOTH",
"96 708 OFFCURVE",
"9 627 OFFCURVE",
"9 497 CURVE SMOOTH",
"9 205 LINE SMOOTH",
"9 75 OFFCURVE",
"96 -8 OFFCURVE",
"228 -8 CURVE SMOOTH"
);
}
);
};
layerId = "4E2227F3-52E4-4048-A8EE-327B486EF0A4";
paths = (
{
closed = 1;
nodes = (
"359 -8 OFFCURVE",
"447 75 OFFCURVE",
"447 205 CURVE SMOOTH",
"447 224 LINE",
"259 231 LINE",
"259 189 LINE SMOOTH",
"259 167 OFFCURVE",
"247 153 OFFCURVE",
"228 153 CURVE SMOOTH",
"209 153 OFFCURVE",
"197 167 OFFCURVE",
"197 189 CURVE SMOOTH",
"197 225 LINE SMOOTH",
"197 266 OFFCURVE",
"214 293 OFFCURVE",
"239 293 CURVE SMOOTH",
"321 293 LINE",
"321 427 LINE",
"248 427 LINE SMOOTH",
"218 427 OFFCURVE",
"203 447 OFFCURVE",
"203 483 CURVE SMOOTH",
"203 510 LINE SMOOTH",
"203 532 OFFCURVE",
"213 547 OFFCURVE",
"228 547 CURVE SMOOTH",
"247 547 OFFCURVE",
"259 532 OFFCURVE",
"259 510 CURVE SMOOTH",
"259 470 LINE",
"447 477 LINE",
"447 497 LINE SMOOTH",
"447 627 OFFCURVE",
"359 708 OFFCURVE",
"228 708 CURVE SMOOTH",
"100 708 OFFCURVE",
"16 623 OFFCURVE",
"16 487 CURVE",
"16 487 LINE SMOOTH",
"16 400 OFFCURVE",
"54 360 OFFCURVE",
"134 337 CURVE",
"115 381 LINE",
"55 349 OFFCURVE",
"10 303 OFFCURVE",
"9 211 CURVE SMOOTH",
"9 211 LINE",
"9 77 OFFCURVE",
"96 -8 OFFCURVE",
"228 -8 CURVE SMOOTH"
);
}
);
width = 452;
},
{
background = {
paths = (
{
closed = 1;
nodes = (
"412 -9 OFFCURVE",
"499 74 OFFCURVE",
"499 198 CURVE SMOOTH",
"499 207 LINE",
"477 208 LINE",
"477 196 LINE SMOOTH",
"477 86 OFFCURVE",
"399 12 OFFCURVE",
"282 12 CURVE SMOOTH",
"164 12 OFFCURVE",
"86 86 OFFCURVE",
"86 196 CURVE SMOOTH",
"86 504 LINE SMOOTH",
"86 614 OFFCURVE",
"164 687 OFFCURVE",
"282 687 CURVE SMOOTH",
"399 687 OFFCURVE",
"477 614 OFFCURVE",
"477 504 CURVE SMOOTH",
"477 491 LINE",
"499 492 LINE",
"499 503 LINE SMOOTH",
"499 626 OFFCURVE",
"412 708 OFFCURVE",
"282 708 CURVE SMOOTH",
"151 708 OFFCURVE",
"64 626 OFFCURVE",
"64 503 CURVE SMOOTH",
"64 198 LINE SMOOTH",
"64 74 OFFCURVE",
"151 -9 OFFCURVE",
"282 -9 CURVE SMOOTH"
);
}
);
};
layerId = "262880E7-CFE1-4BDA-902E-E24798F3240A";
paths = (
{
closed = 1;
nodes = (
"412 -8 OFFCURVE",
"499 75 OFFCURVE",
"499 198 CURVE SMOOTH",
"499 207 LINE",
"477 208 LINE",
"477 196 LINE SMOOTH",
"477 87 OFFCURVE",
"399 13 OFFCURVE",
"282 13 CURVE SMOOTH",
"165 13 OFFCURVE",
"86 83 OFFCURVE",
"86 186 CURVE SMOOTH",
"86 186 LINE SMOOTH",
"86 286 OFFCURVE",
"155 352 OFFCURVE",
"259 352 CURVE SMOOTH",
"370 352 LINE",
"370 373 LINE",
"259 373 LINE SMOOTH",
"159 373 OFFCURVE",
"93 433 OFFCURVE",
"93 523 CURVE SMOOTH",
"93 523 LINE SMOOTH",
"93 622 OFFCURVE",
"168 687 OFFCURVE",
"282 687 CURVE SMOOTH",
"399 687 OFFCURVE",
"477 614 OFFCURVE",
"477 504 CURVE SMOOTH",
"477 491 LINE",
"499 492 LINE",
"499 503 LINE SMOOTH",
"499 626 OFFCURVE",
"412 708 OFFCURVE",
"282 708 CURVE SMOOTH",
"155 708 OFFCURVE",
"71 634 OFFCURVE",
"71 523 CURVE SMOOTH",
"71 523 LINE SMOOTH",
"71 442 OFFCURVE",
"118 382 OFFCURVE",
"193 360 CURVE",
"193 364 LINE",
"114 342 OFFCURVE",
"64 275 OFFCURVE",
"64 186 CURVE SMOOTH",
"64 186 LINE SMOOTH",
"64 69 OFFCURVE",
"151 -8 OFFCURVE",
"282 -8 CURVE SMOOTH"
);
}
);
width = 553;
},
{
background = {
paths = (
{
closed = 1;
nodes = (
"463 -8 OFFCURVE",
"573 89 OFFCURVE",
"573 235 CURVE SMOOTH",
"573 244 LINE",
"385 254 LINE",
"385 242 LINE SMOOTH",
"385 189 OFFCURVE",
"350 153 OFFCURVE",
"297 153 CURVE SMOOTH",
"244 153 OFFCURVE",
"209 189 OFFCURVE",
"209 242 CURVE SMOOTH",
"209 457 LINE SMOOTH",
"209 511 OFFCURVE",
"244 547 OFFCURVE",
"297 547 CURVE SMOOTH",
"350 547 OFFCURVE",
"385 511 OFFCURVE",
"385 457 CURVE SMOOTH",
"385 445 LINE",
"573 457 LINE",
"573 467 LINE SMOOTH",
"573 612 OFFCURVE",
"463 708 OFFCURVE",
"297 708 CURVE SMOOTH",
"131 708 OFFCURVE",
"21 606 OFFCURVE",
"21 452 CURVE SMOOTH",
"21 250 LINE SMOOTH",
"21 95 OFFCURVE",
"131 -8 OFFCURVE",
"297 -8 CURVE SMOOTH"
);
}
);
};
layerId = "FFFA8D72-12AC-4CE0-B2CA-57A29829F4DA";
paths = (
{
closed = 1;
nodes = (
"465 -8 OFFCURVE",
"573 89 OFFCURVE",
"573 235 CURVE SMOOTH",
"573 244 LINE",
"385 254 LINE",
"385 242 LINE SMOOTH",
"385 189 OFFCURVE",
"352 153 OFFCURVE",
"292 153 CURVE SMOOTH",
"241 153 OFFCURVE",
"209 174 OFFCURVE",
"209 214 CURVE SMOOTH",
"209 214 LINE SMOOTH",
"209 255 OFFCURVE",
"233 276 OFFCURVE",
"279 276 CURVE SMOOTH",
"353 276 LINE",
"353 429 LINE",
"289 429 LINE SMOOTH",
"241 429 OFFCURVE",
"216 450 OFFCURVE",
"216 490 CURVE SMOOTH",
"216 490 LINE SMOOTH",
"216 525 OFFCURVE",
"243 547 OFFCURVE",
"296 547 CURVE SMOOTH",
"350 547 OFFCURVE",
"385 511 OFFCURVE",
"385 457 CURVE SMOOTH",
"385 445 LINE",
"573 457 LINE",
"573 467 LINE SMOOTH",
"573 612 OFFCURVE",
"463 708 OFFCURVE",
"286 708 CURVE SMOOTH",
"134 708 OFFCURVE",
"40 626 OFFCURVE",
"40 510 CURVE SMOOTH",
"40 510 LINE SMOOTH",
"40 417 OFFCURVE",
"81 366 OFFCURVE",
"160 341 CURVE",
"167 382 LINE",
"66 353 OFFCURVE",
"21 293 OFFCURVE",
"21 200 CURVE SMOOTH",
"21 200 LINE SMOOTH",
"21 54 OFFCURVE",
"148 -8 OFFCURVE",
"292 -8 CURVE SMOOTH"
);
}
);
width = 585;
}
);
leftKerningGroup = O;
leftMetricsKey = "=|B";
rightKerningGroup = O;
rightMetricsKey = C;
unicode = 0190;
},
{
glyphname = F;
layers = (
{
hints = (
{
horizontal = 1;
origin = "{0, 3}";
target = "{0, 2}";
type = Stem;
},
{
horizontal = 1;
origin = "{1, 0}";
target = "{1, 1}";
type = Stem;
},
{
origin = "{0, 5}";
target = "{0, 0}";
type = Stem;
}
);
layerId = "262880E7-CFE1-4BDA-902E-E24798F3240A";
paths = (
{
closed = 1;
nodes = (
"122 0 LINE",
"122 679 LINE",
"530 679 LINE",
"530 700 LINE",
"100 700 LINE",
"100 0 LINE"
);
},
{
closed = 1;
nodes = (
"421 340 LINE",
"421 361 LINE",
"111 361 LINE",
"111 340 LINE"
);
}
);
width = 554;
},
{
layerId = "4E2227F3-52E4-4048-A8EE-327B486EF0A4";
paths = (
{
closed = 1;
nodes = (
"218 0 LINE",
"218 539 LINE",
"430 539 LINE",
"430 700 LINE",
"30 700 LINE",
"30 0 LINE"
);
},
{
closed = 1;
nodes = (
"338 270 LINE",
"338 431 LINE",
"106 431 LINE",
"106 270 LINE"
);
}
);
width = 439;
},
{
layerId = "FFFA8D72-12AC-4CE0-B2CA-57A29829F4DA";
paths = (
{
closed = 1;
nodes = (
"240 0 LINE",
"240 539 LINE",
"558 539 LINE",
"558 700 LINE",
"52 700 LINE",
"52 0 LINE"
);
},
{
closed = 1;
nodes = (
"445 275 LINE",
"445 435 LINE",
"128 435 LINE",
"128 275 LINE"
);
}
);
width = 578;
},
{
layerId = "DCBE1F7B-116A-43E0-B7B4-8657BA77D8B5";
paths = (
{
closed = 1;
nodes = (
"91 0 LINE",
"91 679 LINE",
"349 679 LINE",
"349 700 LINE",
"69 700 LINE",
"69 0 LINE"
);
},
{
closed = 1;
nodes = (
"267 340 LINE",
"267 361 LINE",
"80 361 LINE",
"80 340 LINE"
);
}
);
width = 364;
}
);
leftKerningGroup = H;
rightKerningGroup = F;
unicode = 0046;
},
{
color = 3;
glyphname = G;
layers = (
{
anchors = (
{
name = bottom;
position = "{204, -8}";
},
{
name = top;
position = "{205, 700}";
}
);
layerId = "DCBE1F7B-116A-43E0-B7B4-8657BA77D8B5";
paths = (
{
closed = 1;
nodes = (
"295 -8 OFFCURVE",
"355 52 OFFCURVE",
"355 144 CURVE SMOOTH",
"355 332 LINE",
"212 332 LINE",
"212 311 LINE",
"333 311 LINE",
"333 143 LINE SMOOTH",
"333 65 OFFCURVE",
"282 13 OFFCURVE",
"205 13 CURVE SMOOTH",
"129 13 OFFCURVE",
"78 65 OFFCURVE",
"78 143 CURVE SMOOTH",
"78 557 LINE SMOOTH",
"78 635 OFFCURVE",
"129 687 OFFCURVE",
"205 687 CURVE SMOOTH",
"282 687 OFFCURVE",
"333 635 OFFCURVE",
"333 557 CURVE SMOOTH",
"333 500 LINE",
"355 500 LINE",
"355 556 LINE SMOOTH",
"355 648 OFFCURVE",
"295 708 OFFCURVE",
"205 708 CURVE SMOOTH",
"116 708 OFFCURVE",
"56 648 OFFCURVE",
"56 556 CURVE SMOOTH",
"56 144 LINE SMOOTH",
"56 52 OFFCURVE",
"116 -8 OFFCURVE",
"205 -8 CURVE SMOOTH"
);
}
);
width = 407;
},
{
anchors = (
{
name = bottom;
position = "{236, -8}";
},
{
name = top;
position = "{239, 700}";
}
);
layerId = "4E2227F3-52E4-4048-A8EE-327B486EF0A4";
paths = (
{
closed = 1;
nodes = (
"370 -8 OFFCURVE",
"458 72 OFFCURVE",
"458 196 CURVE SMOOTH",
"458 395 LINE",
"241 395 LINE",
"241 250 LINE",
"270 250 LINE",
"270 195 LINE SMOOTH",
"270 170 OFFCURVE",
"258 153 OFFCURVE",
"239 153 CURVE SMOOTH",
"220 153 OFFCURVE",
"208 170 OFFCURVE",
"208 195 CURVE SMOOTH",
"208 505 LINE SMOOTH",
"208 530 OFFCURVE",
"220 547 OFFCURVE",
"239 547 CURVE SMOOTH",
"258 547 OFFCURVE",
"270 530 OFFCURVE",
"270 505 CURVE SMOOTH",
"270 455 LINE",
"458 455 LINE",
"458 503 LINE SMOOTH",
"458 628 OFFCURVE",
"370 708 OFFCURVE",
"239 708 CURVE SMOOTH",
"107 708 OFFCURVE",
"20 629 OFFCURVE",
"20 505 CURVE SMOOTH",
"20 196 LINE SMOOTH",
"20 72 OFFCURVE",
"107 -8 OFFCURVE",
"239 -8 CURVE SMOOTH"
);
}
);
width = 477;
},
{
anchors = (
{
name = bottom;
position = "{216, -8}";
},
{
name = top;
position = "{220, 700}";
}
);
associatedMasterId = "4E2227F3-52E4-4048-A8EE-327B486EF0A4";
layerId = "8F788E01-B0E4-440E-90D9-C7ECABE182EE";
name = "{100,300}";
paths = (
{
closed = 1;
nodes = (
"329 -8 OFFCURVE",
"403 61 OFFCURVE",
"403 168 CURVE SMOOTH",
"403 364 LINE",
"215 364 LINE",
"215 278 LINE",
"303 278 LINE",
"303 167 LINE SMOOTH",
"303 114 OFFCURVE",
"270 78 OFFCURVE",
"220 78 CURVE SMOOTH",
"171 78 OFFCURVE",
"138 114 OFFCURVE",
"138 167 CURVE SMOOTH",
"138 533 LINE SMOOTH",
"138 586 OFFCURVE",
"171 622 OFFCURVE",
"220 622 CURVE SMOOTH",
"270 622 OFFCURVE",
"303 586 OFFCURVE",
"303 533 CURVE SMOOTH",
"303 479 LINE",
"403 479 LINE",
"403 531 LINE SMOOTH",
"403 639 OFFCURVE",
"329 708 OFFCURVE",
"220 708 CURVE SMOOTH",
"111 708 OFFCURVE",
"39 639 OFFCURVE",
"39 532 CURVE SMOOTH",
"39 168 LINE SMOOTH",
"39 61 OFFCURVE",
"111 -8 OFFCURVE",
"220 -8 CURVE SMOOTH"
);
}
);
width = 440;
},
{
anchors = (
{
name = bottom;
position = "{285, -8}";
},
{
name = top;
position = "{285, 700}";
}
);
hints = (
{
origin = "{0, 29}";
target = "{0, 14}";
type = Stem;
},
{
horizontal = 1;
origin = "{0, 26}";
target = "{0, 17}";
type = Stem;
},
{
origin = "{0, 21}";
target = "{0, 22}";
type = Stem;
},
{
horizontal = 1;
origin = "{0, 5}";
target = "{0, 4}";
type = Stem;
},
{
horizontal = 1;
origin = "{0, 33}";
target = "{0, 10}";
type = Stem;
}
);
layerId = "262880E7-CFE1-4BDA-902E-E24798F3240A";
paths = (
{
closed = 1;
nodes = (
"417 -8 OFFCURVE",
"503 73 OFFCURVE",
"503 194 CURVE SMOOTH",
"503 337 LINE",
"296 337 LINE",
"296 316 LINE",
"481 316 LINE",
"481 193 LINE SMOOTH",
"481 85 OFFCURVE",
"403 13 OFFCURVE",
"287 13 CURVE SMOOTH",
"169 13 OFFCURVE",
"91 85 OFFCURVE",
"91 193 CURVE SMOOTH",
"91 507 LINE SMOOTH",
"91 615 OFFCURVE",
"169 687 OFFCURVE",
"287 687 CURVE SMOOTH",
"403 687 OFFCURVE",
"481 615 OFFCURVE",
"481 507 CURVE SMOOTH",
"481 480 LINE",
"503 480 LINE",
"503 506 LINE SMOOTH",
"503 627 OFFCURVE",
"417 708 OFFCURVE",
"287 708 CURVE SMOOTH",
"156 708 OFFCURVE",
"69 627 OFFCURVE",
"69 506 CURVE SMOOTH",
"69 194 LINE SMOOTH",
"69 73 OFFCURVE",
"156 -8 OFFCURVE",
"287 -8 CURVE SMOOTH"
);
}
);
width = 566;
},
{
anchors = (
{
name = bottom;
position = "{303, -8}";
},
{
name = top;
position = "{303, 708}";
}
);
layerId = "FFFA8D72-12AC-4CE0-B2CA-57A29829F4DA";
paths = (
{
closed = 1;
nodes = (
"468 -8 OFFCURVE",
"578 96 OFFCURVE",
"578 246 CURVE SMOOTH",
"578 398 LINE",
"287 398 LINE",
"287 248 LINE",
"395 248 LINE",
"395 230 LINE",
"395 180 OFFCURVE",
"359 153 OFFCURVE",
"311 153 CURVE SMOOTH",
"258 153 OFFCURVE",
"215 192 OFFCURVE",
"215 250 CURVE SMOOTH",
"215 450 LINE SMOOTH",
"215 508 OFFCURVE",
"250 547 OFFCURVE",
"303 547 CURVE SMOOTH",
"360 547 OFFCURVE",
"391 508 OFFCURVE",
"391 466 CURVE SMOOTH",
"391 457 LINE",
"578 457 LINE",
"578 473 LINE SMOOTH",
"578 602 OFFCURVE",
"468 708 OFFCURVE",
"303 708 CURVE",
"137 708 OFFCURVE",
"27 603 OFFCURVE",
"27 445 CURVE SMOOTH",
"27 256 LINE SMOOTH",
"27 98 OFFCURVE",
"137 -8 OFFCURVE",
"303 -8 CURVE SMOOTH"
);
}
);
width = 606;
},
{
anchors = (
{
name = bottom;
position = "{293, -8}";
},
{
name = top;
position = "{293, 700}";
}
);
associatedMasterId = "4E2227F3-52E4-4048-A8EE-327B486EF0A4";
hints = (
{
origin = "{0, 29}";
target = "{0, 14}";
type = Stem;
},
{
horizontal = 1;
origin = "{0, 26}";
target = "{0, 17}";
type = Stem;
},
{
origin = "{0, 21}";
target = "{0, 22}";
type = Stem;
},
{
horizontal = 1;
origin = "{0, 5}";
target = "{0, 4}";
type = Stem;
},
{
horizontal = 1;
origin = "{0, 33}";
target = "{0, 10}";
type = Stem;
}
);
layerId = "A647F3C7-5120-453C-B94E-0D3288838C7D";
name = "{100,500}";
paths = (
{
closed = 1;
nodes = (
"441 -8 OFFCURVE",
"538 75 OFFCURVE",
"538 233 CURVE SMOOTH",
"538 370 LINE",
"291 370 LINE",
"291 284 LINE",
"438 284 LINE",
"438 206 LINE SMOOTH",
"438 126 OFFCURVE",
"384 79 OFFCURVE",
"298 79 CURVE SMOOTH",
"210 79 OFFCURVE",
"149 135 OFFCURVE",
"149 220 CURVE SMOOTH",
"149 480 LINE SMOOTH",
"149 565 OFFCURVE",
"207 621 OFFCURVE",
"294 621 CURVE SMOOTH",
"382 621 OFFCURVE",
"438 565 OFFCURVE",
"438 488 CURVE SMOOTH",
"438 469 LINE",
"538 469 LINE",
"538 490 LINE SMOOTH",
"538 615 OFFCURVE",
"441 708 OFFCURVE",
"294 708 CURVE SMOOTH",
"147 708 OFFCURVE",
"49 616 OFFCURVE",
"49 477 CURVE SMOOTH",
"49 223 LINE SMOOTH",
"49 85 OFFCURVE",
"147 -8 OFFCURVE",
"294 -8 CURVE SMOOTH"
);
}
);
width = 585;
}
);
leftKerningGroup = O;
rightKerningGroup = O;
unicode = 0047;
},
{
glyphname = H;
layers = (
{
anchors = (
{
name = strokelong;
position = "{319, 509}";
},
{
name = top;
position = "{319, 701}";
}
);
hints = (
{
origin = "{1, 2}";
target = "{1, 1}";
type = Stem;
},
{
origin = "{0, 2}";
target = "{0, 1}";
type = Stem;
},
{
horizontal = 1;
origin = "{2, 0}";
target = "{2, 1}";
type = Stem;
}
);
layerId = "262880E7-CFE1-4BDA-902E-E24798F3240A";
paths = (
{
closed = 1;
nodes = (
"538 0 LINE",
"538 700 LINE",
"516 700 LINE",
"516 0 LINE"
);
},
{
closed = 1;
nodes = (
"122 0 LINE",
"122 700 LINE",
"100 700 LINE",
"100 0 LINE"
);
},
{
closed = 1;
nodes = (
"521 340 LINE",
"521 361 LINE",
"117 361 LINE",
"117 340 LINE"
);
}
);
width = 638;
},
{
anchors = (
{
name = strokelong;
position = "{247, 507}";
},
{
name = top;
position = "{247, 701}";
}
);
layerId = "4E2227F3-52E4-4048-A8EE-327B486EF0A4";
paths = (
{
closed = 1;
nodes = (
"464 0 LINE",
"464 700 LINE",
"276 700 LINE",
"276 0 LINE"
);
},
{
closed = 1;
nodes = (
"218 0 LINE",
"218 700 LINE",
"30 700 LINE",
"30 0 LINE"
);
},
{
closed = 1;
nodes = (
"366 270 LINE",
"366 431 LINE",
"131 431 LINE",
"131 270 LINE"
);
}
);
width = 494;
},
{
anchors = (
{
name = strokelong;
position = "{323, 506}";
},
{
name = top;
position = "{325, 701}";
}
);
layerId = "FFFA8D72-12AC-4CE0-B2CA-57A29829F4DA";
paths = (
{
closed = 1;
nodes = (
"594 0 LINE",
"594 700 LINE",
"406 700 LINE",
"406 0 LINE"
);
},
{
closed = 1;
nodes = (
"240 0 LINE",
"240 700 LINE",
"52 700 LINE",
"52 0 LINE"
);
},
{
closed = 1;
nodes = (
"475 274 LINE",
"475 435 LINE",
"173 435 LINE",
"173 274 LINE"
);
}
);
width = 646;
},
{
anchors = (
{
name = strokelong;
position = "{211, 508}";
},
{
name = top;
position = "{208, 701}";
}
);
layerId = "DCBE1F7B-116A-43E0-B7B4-8657BA77D8B5";
paths = (
{
closed = 1;
nodes = (
"353 0 LINE",
"353 700 LINE",
"331 700 LINE",
"331 0 LINE"
);
},
{
closed = 1;
nodes = (
"91 0 LINE",
"91 700 LINE",
"69 700 LINE",
"69 0 LINE"
);
},
{
closed = 1;
nodes = (
"338 340 LINE",
"338 361 LINE",
"86 361 LINE",
"86 340 LINE"
);
}
);
width = 422;
}
);
unicode = 0048;
},
{
glyphname = I;
layers = (
{
anchors = (
{
name = bottom;
position = "{111, 0}";
},
{
name = top;
position = "{111, 700}";
},
{
name = topleft;
position = "{3, 700}";
}
);
hints = (
{
origin = "{0, 2}";
target = "{0, 1}";
type = Stem;
}
);
layerId = "262880E7-CFE1-4BDA-902E-E24798F3240A";
paths = (
{
closed = 1;
nodes = (
"122 0 LINE",
"122 700 LINE",
"100 700 LINE",
"100 0 LINE"
);
}
);
width = 222;
},
{
anchors = (
{
name = bottom;
position = "{124, 0}";
},
{
name = top;
position = "{124, 700}";
},
{
name = topleft;
position = "{24, 700}";
}
);
layerId = "4E2227F3-52E4-4048-A8EE-327B486EF0A4";
paths = (
{
closed = 1;
nodes = (
"218 0 LINE",
"218 700 LINE",
"30 700 LINE",
"30 0 LINE"
);
}
);
width = 248;
},
{
anchors = (
{
name = bottom;
position = "{146, 0}";
},
{
name = top;
position = "{146, 700}";
},
{
name = topleft;
position = "{33, 700}";
}
);
layerId = "FFFA8D72-12AC-4CE0-B2CA-57A29829F4DA";
paths = (
{
closed = 1;
nodes = (
"240 0 LINE",
"240 700 LINE",
"52 700 LINE",
"52 0 LINE"
);
}
);
width = 292;
},
{
anchors = (
{
name = bottom;
position = "{80, 0}";
},
{
name = top;
position = "{80, 700}";
},
{
name = topleft;
position = "{-2, 700}";
}
);
layerId = "DCBE1F7B-116A-43E0-B7B4-8657BA77D8B5";
paths = (
{
closed = 1;
nodes = (
"91 0 LINE",
"91 700 LINE",
"69 700 LINE",
"69 0 LINE"
);
}
);
width = 160;
}
);
unicode = 0049;
},
{
glyphname = J;
layers = (
{
anchors = (
{
name = top;
position = "{455, 701}";
}
);
hints = (
{
origin = "{0, 5}";
target = "{0, 2}";
type = Stem;
},
{
horizontal = 1;
origin = "{0, 17}";
target = "{0, 8}";
type = Stem;
},
{
origin = "{0, 13}";
target = "{0, 12}";
type = Stem;
}
);
layerId = "262880E7-CFE1-4BDA-902E-E24798F3240A";
paths = (
{
closed = 1;
nodes = (
"382 -8 OFFCURVE",
"466 70 OFFCURVE",
"466 188 CURVE SMOOTH",
"466 700 LINE",
"444 700 LINE",
"444 187 LINE SMOOTH",
"444 83 OFFCURVE",
"369 13 OFFCURVE",
"256 13 CURVE SMOOTH",
"143 13 OFFCURVE",
"68 83 OFFCURVE",
"68 187 CURVE SMOOTH",
"68 281 LINE",
"46 281 LINE",
"46 188 LINE SMOOTH",
"46 70 OFFCURVE",
"130 -8 OFFCURVE",
"256 -8 CURVE SMOOTH"
);
}
);
width = 561;
},
{
anchors = (
{
name = top;
position = "{345, 701}";
}
);
layerId = "4E2227F3-52E4-4048-A8EE-327B486EF0A4";
paths = (
{
closed = 1;
nodes = (
"355 -8 OFFCURVE",
"443 72 OFFCURVE",
"443 192 CURVE SMOOTH",
"443 700 LINE",
"255 700 LINE",
"255 190 LINE SMOOTH",
"255 168 OFFCURVE",
"242 153 OFFCURVE",
"224 153 CURVE SMOOTH",
"207 153 OFFCURVE",
"195 168 OFFCURVE",
"195 190 CURVE SMOOTH",
"195 265 LINE",
"7 265 LINE",
"7 192 LINE SMOOTH",
"7 72 OFFCURVE",
"94 -8 OFFCURVE",
"224 -8 CURVE SMOOTH"
);
}
);
width = 470;
},
{
anchors = (
{
name = top;
position = "{459, 701}";
}
);
layerId = "FFFA8D72-12AC-4CE0-B2CA-57A29829F4DA";
paths = (
{
closed = 1;
nodes = (
"441 -8 OFFCURVE",
"551 88 OFFCURVE",
"551 232 CURVE SMOOTH",
"551 700 LINE",
"364 700 LINE",
"364 233 LINE SMOOTH",
"364 185 OFFCURVE",
"329 153 OFFCURVE",
"282 153 CURVE SMOOTH",
"232 153 OFFCURVE",
"203 185 OFFCURVE",
"203 233 CURVE SMOOTH",
"203 300 LINE",
"15 300 LINE",
"15 232 LINE SMOOTH",
"15 88 OFFCURVE",
"119 -8 OFFCURVE",
"282 -8 CURVE SMOOTH"
);
}
);
width = 598;
},
{
anchors = (
{
name = top;
position = "{310, 701}";
}
);
layerId = "DCBE1F7B-116A-43E0-B7B4-8657BA77D8B5";
paths = (
{
closed = 1;
nodes = (
"263 -8 OFFCURVE",
"321 54 OFFCURVE",
"321 148 CURVE SMOOTH",
"321 700 LINE",
"299 700 LINE",
"299 147 LINE SMOOTH",
"299 67 OFFCURVE",
"250 13 OFFCURVE",
"177 13 CURVE SMOOTH",
"104 13 OFFCURVE",
"55 67 OFFCURVE",
"55 147 CURVE SMOOTH",
"55 251 LINE",
"33 251 LINE",
"33 148 LINE SMOOTH",
"33 54 OFFCURVE",
"91 -8 OFFCURVE",
"177 -8 CURVE SMOOTH"
);
}
);
width = 387;
}
);
leftKerningGroup = J;
rightKerningGroup = U;
unicode = 004A;
},
{
glyphname = K;
layers = (
{
anchors = (
{
name = bottom;
position = "{309, 0}";
}
);
hints = (
{
origin = "{0, 11}";
target = "{0, 0}";
type = Stem;
}
);
layerId = "262880E7-CFE1-4BDA-902E-E24798F3240A";
paths = (
{
closed = 1;
nodes = (
"122 0 LINE",
"122 278 LINE",
"244 398 LINE",
"528 0 LINE",
"556 0 LINE",
"260 415 LINE",
"532 700 LINE",
"506 700 LINE",
"122 306 LINE",
"122 700 LINE",
"100 700 LINE",
"100 0 LINE"
);
}
);
width = 575;
},
{
anchors = (
{
name = bottom;
position = "{280, 0}";
}
);
layerId = "4E2227F3-52E4-4048-A8EE-327B486EF0A4";
paths = (
{
closed = 1;
nodes = (
"218 0 LINE",
"218 193 LINE",
"231 227 LINE",
"317 0 LINE",
"515 0 LINE",
"361 383 LINE",
"512 700 LINE",
"314 700 LINE",
"218 469 LINE",
"218 700 LINE",
"30 700 LINE",
"30 0 LINE"
);
}
);
width = 502;
},
{
anchors = (
{
name = bottom;
position = "{319, 0}";
}
);
layerId = "FFFA8D72-12AC-4CE0-B2CA-57A29829F4DA";
paths = (
{
closed = 1;
nodes = (
"240 0 LINE",
"240 189 LINE",
"288 262 LINE",
"435 0 LINE",
"645 0 LINE",
"417 390 LINE",
"640 700 LINE",
"427 700 LINE",
"240 435 LINE",
"240 700 LINE",
"52 700 LINE",
"52 0 LINE"
);
}
);
width = 634;
},
{
anchors = (
{
name = bottom;
position = "{214, 0}";
}
);
layerId = "DCBE1F7B-116A-43E0-B7B4-8657BA77D8B5";
paths = (
{
closed = 1;
nodes = (
"91 0 LINE",
"91 274 LINE",
"179 406 LINE",
"355 0 LINE",
"382 0 LINE",
"195 427 LINE",
"365 700 LINE",
"337 700 LINE",
"91 308 LINE",
"91 700 LINE",
"69 700 LINE",
"69 0 LINE"
);
}
);
width = 395;
}
);
rightKerningGroup = K;
unicode = 004B;
},
{
glyphname = L;
layers = (
{
anchors = (
{
name = bottom;
position = "{275, 0}";
},
{
name = top;
position = "{111, 700}";
}
);
hints = (
{
horizontal = 1;
origin = "{0, 0}";
target = "{0, 1}";
type = Stem;
},
{
origin = "{0, 4}";
target = "{0, 3}";
type = Stem;
}
);
layerId = "262880E7-CFE1-4BDA-902E-E24798F3240A";
paths = (
{
closed = 1;
nodes = (
"505 0 LINE",
"505 21 LINE",
"122 21 LINE",
"122 700 LINE",
"100 700 LINE",
"100 0 LINE"
);
}
);
width = 528;
},
{
anchors = (
{
name = bottom;
position = "{211, 0}";
},
{
name = top;
position = "{128, 700}";
}
);
layerId = "4E2227F3-52E4-4048-A8EE-327B486EF0A4";
paths = (
{
closed = 1;
nodes = (
"434 0 LINE",
"434 161 LINE",
"218 161 LINE",
"218 700 LINE",
"30 700 LINE",
"30 0 LINE"
);
}
);
width = 442;
},
{
anchors = (
{
name = bottom;
position = "{287, 0}";
},
{
name = top;
position = "{145, 700}";
}
);
layerId = "FFFA8D72-12AC-4CE0-B2CA-57A29829F4DA";
paths = (
{
closed = 1;
nodes = (
"569 0 LINE",
"569 161 LINE",
"240 161 LINE",
"240 700 LINE",
"52 700 LINE",
"52 0 LINE"
);
}
);
width = 585;
},
{
anchors = (
{
name = bottom;
position = "{173, 0}";
},
{
name = top;
position = "{78, 700}";
}
);
layerId = "DCBE1F7B-116A-43E0-B7B4-8657BA77D8B5";
paths = (
{
closed = 1;
nodes = (
"346 0 LINE",
"346 21 LINE",
"91 21 LINE",
"91 700 LINE",
"69 700 LINE",
"69 0 LINE"
);
}
);
width = 362;
}
);
rightKerningGroup = L;
unicode = 004C;
},
{
color = 3;
glyphname = M;
layers = (
{
hints = (
{
origin = "{0, 11}";
target = "{0, 10}";
type = Stem;
},
{
origin = "{0, 8}";
target = "{0, 7}";
type = Stem;
}
);
layerId = "262880E7-CFE1-4BDA-902E-E24798F3240A";
paths = (
{
closed = 1;
nodes = (
"122 0 LINE",
"122 687 LINE",
"105 685 LINE",
"333 333 LINE",
"351 333 LINE",
"575 685 LINE",
"560 687 LINE",
"560 0 LINE",
"582 0 LINE",
"582 700 LINE",
"560 700 LINE",
"332 344 LINE",
"350 347 LINE",
"122 700 LINE",
"100 700 LINE",
"100 0 LINE"
);
}
);
width = 682;
},
{
background = {
paths = (
{
closed = 1;
nodes = (
"218 0 LINE",
"218 511 LINE",
"182 502 LINE",
"291 310 LINE",
"292 310 LINE",
"403 498 LINE",
"366 508 LINE",
"366 0 LINE",
"554 0 LINE",
"554 700 LINE",
"371 700 LINE",
"258 490 LINE",
"326 490 LINE",
"213 700 LINE",
"30 700 LINE",
"30 0 LINE"
);
}
);
};
hints = (
{
origin = "{0, 12}";
target = "{0, 0}";
type = Stem;
},
{
origin = "{0, 5}";
target = "{0, 6}";
type = Stem;
}
);
layerId = "4E2227F3-52E4-4048-A8EE-327B486EF0A4";
paths = (
{
closed = 1;
nodes = (
"218 0 LINE",
"218 625 LINE",
"108 625 LINE",
"291 310 LINE",
"292 310 LINE",
"477 625 LINE",
"366 625 LINE",
"366 0 LINE",
"554 0 LINE",
"554 700 LINE",
"371 700 LINE",
"239 452 LINE",
"347 452 LINE",
"213 700 LINE",
"30 700 LINE",
"30 0 LINE"
);
}
);
width = 584;
},
{
hints = (
{
place = "{417, -210}";
type = Stem;
},
{
place = "{621, -114}";
type = Stem;
}
);
layerId = "FFFA8D72-12AC-4CE0-B2CA-57A29829F4DA";
paths = (
{
closed = 1;
nodes = (
"240 0 LINE",
"240 463 LINE",
"140 563 LINE",
"320 240 LINE",
"420 240 LINE",
"608 577 LINE",
"500 463 LINE",
"500 0 LINE",
"688 0 LINE",
"688 700 LINE",
"505 700 LINE",
"294 341 LINE",
"446 341 LINE",
"235 700 LINE",
"52 700 LINE",
"52 0 LINE"
);
}
);
width = 740;
},
{
hints = (
{
origin = "{0, 12}";
target = "{0, 0}";
type = Stem;
},
{
origin = "{0, 5}";
target = "{0, 6}";
type = Stem;
}
);
layerId = "DCBE1F7B-116A-43E0-B7B4-8657BA77D8B5";
paths = (
{
closed = 1;
nodes = (
"91 0 LINE",
"91 672 LINE",
"79 672 LINE",
"221 330 LINE",
"239 330 LINE",
"378 672 LINE",
"367 672 LINE",
"367 0 LINE",
"389 0 LINE",
"389 700 LINE",
"367 700 LINE",
"223 347 LINE",
"237 347 LINE",
"91 700 LINE",
"69 700 LINE",
"69 0 LINE"
);
}
);
width = 458;
},
{
associatedMasterId = "DCBE1F7B-116A-43E0-B7B4-8657BA77D8B5";
background = {
paths = (
{
closed = 1;
nodes = (
"151 0 LINE",
"151 601 LINE",
"117 572 LINE",
"254 321 LINE",
"264 321 LINE",
"401 573 LINE",
"367 599 LINE",
"367 0 LINE",
"467 0 LINE",
"467 700 LINE",
"369 700 LINE",
"229 452 LINE",
"288 456 LINE",
"149 700 LINE",
"51 700 LINE",
"51 0 LINE"
);
}
);
};
hints = (
{
origin = "{0, 12}";
target = "{0, 0}";
type = Stem;
},
{
origin = "{0, 5}";
target = "{0, 6}";
type = Stem;
}
);
layerId = "980C465B-B287-4D6A-AB1E-CF08BC8D48C9";
name = "{100,300}";
paths = (
{
closed = 1;
nodes = (
"151 0 LINE",
"151 572 LINE",
"117 572 LINE",
"254 321 LINE",
"264 321 LINE",
"401 572 LINE",
"367 572 LINE",
"367 0 LINE",
"467 0 LINE",
"467 700 LINE",
"369 700 LINE",
"230 454 LINE",
"289 454 LINE",
"149 700 LINE",
"51 700 LINE",
"51 0 LINE"
);
}
);
width = 517;
},
{
associatedMasterId = "4E2227F3-52E4-4048-A8EE-327B486EF0A4";
hints = (
{
origin = "{0, 11}";
target = "{0, 10}";
type = Stem;
},
{
origin = "{0, 8}";
target = "{0, 7}";
type = Stem;
}
);
layerId = "25EBB921-4617-417B-8B1A-802DA642A775";
name = "{100,500}";
paths = (
{
closed = 1;
nodes = (
"177 0 LINE",
"177 582 LINE",
"104 631 LINE",
"327 298 LINE",
"383 298 LINE",
"607 638 LINE",
"532 582 LINE",
"532 0 LINE",
"632 0 LINE",
"632 700 LINE",
"534 700 LINE",
"312 367 LINE",
"397 369 LINE",
"175 700 LINE",
"77 700 LINE",
"77 0 LINE"
);
}
);
width = 709;
},
{
associatedMasterId = "FFFA8D72-12AC-4CE0-B2CA-57A29829F4DA";
hints = (
{
origin = "{0, 12}";
target = "{0, 0}";
type = Stem;
},
{
origin = "{0, 5}";
target = "{0, 6}";
type = Stem;
}
);
layerId = "0EF9B7F5-030A-4457-BAF8-4CDD34E26A6B";
name = "Nov 26 18, 19:16";
paths = (
{
closed = 1;
nodes = (
"207 0 LINE",
"207 463 LINE",
"101 613 LINE",
"310 -1 LINE",
"410 -1 LINE",
"621 627 LINE",
"507 463 LINE",
"507 0 LINE",
"695 0 LINE",
"695 700 LINE",
"472 700 LINE",
"297 81 LINE",
"417 81 LINE",
"242 700 LINE",
"19 700 LINE",
"19 0 LINE"
);
}
);
width = 714;
}
);
unicode = 004D;
},
{
color = 3;
glyphname = N;
layers = (
{
anchors = (
{
name = bottom;
position = "{329, 0}";
},
{
name = top;
position = "{327, 700}";
}
);
hints = (
{
place = "{117, -2147483648}";
type = Stem;
},
{
place = "{545, -2147483648}";
type = Stem;
}
);
layerId = "262880E7-CFE1-4BDA-902E-E24798F3240A";
paths = (
{
closed = 1;
nodes = (
"122 0 LINE",
"122 667 LINE",
"117 666 LINE",
"528 0 LINE",
"550 0 LINE",
"550 700 LINE",
"528 700 LINE",
"528 33 LINE",
"533 34 LINE",
"122 700 LINE",
"100 700 LINE",
"100 0 LINE"
);
}
);
width = 650;
},
{
anchors = (
{
name = bottom;
position = "{278, 0}";
},
{
name = top;
position = "{266, 700}";
}
);
hints = (
{
place = "{26, -2147483648}";
type = Stem;
},
{
origin = "{0, 6}";
target = "{0, 11}";
type = Stem;
}
);
layerId = "4E2227F3-52E4-4048-A8EE-327B486EF0A4";
paths = (
{
closed = 1;
nodes = (
"216 0 LINE",
"214 415 LINE",
"196 415 LINE",
"300 0 LINE",
"506 0 LINE",
"506 700 LINE",
"320 700 LINE",
"321 285 LINE",
"339 285 LINE",
"234 700 LINE",
"30 700 LINE",
"30 0 LINE"
);
}
);
width = 536;
},
{
anchors = (
{
name = bottom;
position = "{341, 0}";
},
{
name = top;
position = "{331, 700}";
}
);
layerId = "FFFA8D72-12AC-4CE0-B2CA-57A29829F4DA";
paths = (
{
closed = 1;
nodes = (
"240 0 LINE",
"238 420 LINE",
"202 420 LINE",
"424 0 LINE",
"632 0 LINE",
"632 700 LINE",
"444 700 LINE",
"445 280 LINE",
"481 280 LINE",
"260 700 LINE",
"52 700 LINE",
"52 0 LINE"
);
}
);
width = 684;
},
{
anchors = (
{
name = bottom;
position = "{214, 0}";
},
{
name = top;
position = "{218, 710}";
}
);
hints = (
{
place = "{91, -2147483648}";
type = Stem;
},
{
place = "{366, -2147483648}";
type = Stem;
}
);
layerId = "DCBE1F7B-116A-43E0-B7B4-8657BA77D8B5";
paths = (
{
closed = 1;
nodes = (
"91 0 LINE",
"91 657 LINE",
"88 657 LINE",
"343 0 LINE",
"366 0 LINE",
"366 700 LINE",
"344 700 LINE",
"344 43 LINE",
"347 43 LINE",
"91 700 LINE",
"69 700 LINE",
"69 0 LINE"
);
}
);
width = 435;
},
{
anchors = (
{
name = bottom;
position = "{335, 0}";
},
{
name = top;
position = "{329, 700}";
}
);
associatedMasterId = "4E2227F3-52E4-4048-A8EE-327B486EF0A4";
hints = (
{
place = "{80, -2147483648}";
type = Stem;
},
{
place = "{496, -2147483648}";
type = Stem;
}
);
layerId = "AF700569-CAED-4344-924C-FF7EDA896D2F";
name = "{100,500}";
paths = (
{
closed = 1;
nodes = (
"177 0 LINE",
"176 551 LINE",
"157 550 LINE",
"493 0 LINE",
"588 0 LINE",
"588 700 LINE",
"488 700 LINE",
"489 149 LINE",
"508 150 LINE",
"173 700 LINE",
"77 700 LINE",
"77 0 LINE"
);
}
);
width = 665;
},
{
anchors = (
{
name = bottom;
position = "{245, 0}";
},
{
name = top;
position = "{241, 705}";
}
);
associatedMasterId = "4E2227F3-52E4-4048-A8EE-327B486EF0A4";
hints = (
{
place = "{60, -2147483648}";
type = Stem;
},
{
place = "{343, -2147483648}";
type = Stem;
}
);
layerId = "42C43E0D-C6E2-494E-A0C1-A4C56C6C4E84";
name = "{100,300}";
paths = (
{
closed = 1;
nodes = (
"151 0 LINE",
"150 496 LINE",
"140 496 LINE",
"324 0 LINE",
"433 0 LINE",
"433 700 LINE",
"334 700 LINE",
"334 204 LINE",
"344 204 LINE",
"159 700 LINE",
"51 700 LINE",
"51 0 LINE"
);
}
);
width = 483;
}
);
leftKerningGroup = H;
rightKerningGroup = H;
unicode = 004E;
},
{
glyphname = Eng;
layers = (
{
components = (
{
name = N;
}
);
hints = (
{
origin = "{0, 4}";
target = "{0, 3}";
type = Stem;
},
{
horizontal = 1;
origin = "{0, 9}";
target = "{0, 8}";
type = Stem;
}
);
layerId = "262880E7-CFE1-4BDA-902E-E24798F3240A";
paths = (
{
closed = 1;
nodes = (
"534 -139 OFFCURVE",
"567 -87 OFFCURVE",
"567 -2 CURVE SMOOTH",
"567 572 LINE",
"545 572 LINE",
"545 -2 LINE SMOOTH",
"545 -74 OFFCURVE",
"521 -118 OFFCURVE",
"448 -118 CURVE",
"448 -139 LINE"
);
}
);
width = 667;
},
{
components = (
{
name = N;
}
);
layerId = "FFFA8D72-12AC-4CE0-B2CA-57A29829F4DA";
paths = (
{
closed = 1;
nodes = (
"558 -209 OFFCURVE",
"619 -163 OFFCURVE",
"619 29 CURVE SMOOTH",
"619 520 LINE",
"431 520 LINE",
"431 26 LINE SMOOTH",
"431 -38 OFFCURVE",
"407 -52 OFFCURVE",
"312 -44 CURVE",
"312 -201 LINE"
);
}
);
width = 684;
},
{
components = (
{
name = N;
}
);
layerId = "DCBE1F7B-116A-43E0-B7B4-8657BA77D8B5";
paths = (
{
closed = 1;
nodes = (
"387 -133 OFFCURVE",
"388 -81 OFFCURVE",
"388 4 CURVE SMOOTH",
"388 578 LINE",
"366 578 LINE",
"366 4 LINE SMOOTH",
"366 -68 OFFCURVE",
"372 -112 OFFCURVE",
"298 -112 CURVE",
"298 -133 LINE"
);
}
);
width = 457;
},
{
components = (
{
name = N;
}
);
layerId = "4E2227F3-52E4-4048-A8EE-327B486EF0A4";
paths = (
{
closed = 1;
nodes = (
"500 -220 OFFCURVE",
"502 -130 OFFCURVE",
"502 19 CURVE SMOOTH",
"502 210 LINE",
"296 210 LINE",
"296 19 LINE SMOOTH",
"296 -29 OFFCURVE",
"301 -59 OFFCURVE",
"230 -51 CURVE",
"231 -211 LINE"
);
}
);
width = 536;
}
);
unicode = 014A;
},
{
glyphname = O;
layers = (
{
anchors = (
{
name = bottom;
position = "{290, 0}";
},
{
name = center;
position = "{290, 350}";
},
{
name = ogonek;
position = "{539, 10}";
},
{
name = top;
position = "{289, 700}";
},
{
name = topleft;
position = "{-1, 700}";
},
{
name = topright;
position = "{581, 700}";
}
);
hints = (
{
place = "{90, -2147483648}";
type = Stem;
},
{
horizontal = 1;
origin = "{0, 6}";
target = "{0, 13}";
type = Stem;
},
{
place = "{510, -2147483648}";
type = Stem;
},
{
horizontal = 1;
place = "{-7, -2147483648}";
type = Stem;
}
);
layerId = "262880E7-CFE1-4BDA-902E-E24798F3240A";
paths = (
{
closed = 1;
nodes = (
"422 -7 OFFCURVE",
"511 80 OFFCURVE",
"511 210 CURVE SMOOTH",
"511 489 LINE SMOOTH",
"511 620 OFFCURVE",
"422 708 OFFCURVE",
"289 708 CURVE SMOOTH",
"157 708 OFFCURVE",
"69 620 OFFCURVE",
"69 489 CURVE SMOOTH",
"69 210 LINE SMOOTH",
"69 80 OFFCURVE",
"157 -7 OFFCURVE",
"289 -7 CURVE SMOOTH"
);
},
{
closed = 1;
nodes = (
"170 13 OFFCURVE",
"91 91 OFFCURVE",
"91 209 CURVE SMOOTH",
"91 490 LINE SMOOTH",
"91 608 OFFCURVE",
"170 687 OFFCURVE",
"289 687 CURVE SMOOTH",
"409 687 OFFCURVE",
"489 608 OFFCURVE",
"489 490 CURVE SMOOTH",
"489 209 LINE SMOOTH",
"489 91 OFFCURVE",
"409 13 OFFCURVE",
"289 13 CURVE SMOOTH"
);
}
);
width = 580;
},
{
anchors = (
{
name = bottom;
position = "{242, 0}";
},
{
name = center;
position = "{242, 350}";
},
{
name = ogonek;
position = "{436, 10}";
},
{
name = top;
position = "{242, 700}";
},
{
name = topleft;
position = "{20, 700}";
},
{
name = topright;
position = "{383, 700}";
}
);
layerId = "4E2227F3-52E4-4048-A8EE-327B486EF0A4";
paths = (
{
closed = 1;
nodes = (
"376 -8 OFFCURVE",
"464 75 OFFCURVE",
"464 206 CURVE SMOOTH",
"464 494 LINE SMOOTH",
"464 625 OFFCURVE",
"376 708 OFFCURVE",
"242 708 CURVE SMOOTH",
"107 708 OFFCURVE",
"20 625 OFFCURVE",
"20 494 CURVE SMOOTH",
"20 206 LINE SMOOTH",
"20 75 OFFCURVE",
"107 -8 OFFCURVE",
"242 -8 CURVE SMOOTH"
);
},
{
closed = 1;
nodes = (
"220 153 OFFCURVE",
"208 171 OFFCURVE",
"208 198 CURVE SMOOTH",
"208 502 LINE SMOOTH",
"208 529 OFFCURVE",
"220 547 OFFCURVE",
"242 547 CURVE SMOOTH",
"264 547 OFFCURVE",
"276 529 OFFCURVE",
"276 502 CURVE SMOOTH",
"276 198 LINE SMOOTH",
"276 171 OFFCURVE",
"264 153 OFFCURVE",
"242 153 CURVE SMOOTH"
);
}
);
width = 484;
},
{
anchors = (
{
name = bottom;
position = "{309, 0}";
},
{
name = center;
position = "{309, 350}";
},
{
name = ogonek;
position = "{557, 10}";
},
{
name = top;
position = "{308, 700}";
},
{
name = topleft;
position = "{18, 700}";
},
{
name = topright;
position = "{477, 700}";
}
);
guideLines = (
{
position = "{308, 613}";
},
{
position = "{305, 360}";
},
{
position = "{308, 87}";
}
);
layerId = "FFFA8D72-12AC-4CE0-B2CA-57A29829F4DA";
paths = (
{
closed = 1;
nodes = (
"477 -12 OFFCURVE",
"589 95 OFFCURVE",
"589 256 CURVE SMOOTH",
"589 444 LINE SMOOTH",
"589 602 OFFCURVE",
"477 708 OFFCURVE",
"308 708 CURVE SMOOTH",
"140 708 OFFCURVE",
"28 602 OFFCURVE",
"28 444 CURVE SMOOTH",
"28 256 LINE SMOOTH",
"28 95 OFFCURVE",
"140 -12 OFFCURVE",
"308 -12 CURVE SMOOTH"
);
},
{
closed = 1;
nodes = (
"253 149 OFFCURVE",
"216 189 OFFCURVE",
"216 250 CURVE SMOOTH",
"216 446 LINE SMOOTH",
"216 507 OFFCURVE",
"253 547 OFFCURVE",
"308 547 CURVE SMOOTH",
"364 547 OFFCURVE",
"401 507 OFFCURVE",
"401 446 CURVE SMOOTH",
"401 250 LINE SMOOTH",
"401 189 OFFCURVE",
"364 149 OFFCURVE",
"308 149 CURVE SMOOTH"
);
}
);
width = 617;
},
{
anchors = (
{
name = bottom;
position = "{208, 0}";
},
{
name = center;
position = "{208, 350}";
},
{
name = ogonek;
position = "{386, 10}";
},
{
name = top;
position = "{207, 699}";
},
{
name = topleft;
position = "{6, 700}";
},
{
name = topright;
position = "{302, 700}";
}
);
layerId = "DCBE1F7B-116A-43E0-B7B4-8657BA77D8B5";
paths = (
{
closed = 1;
nodes = (
"297 -8 OFFCURVE",
"360 56 OFFCURVE",
"360 150 CURVE SMOOTH",
"360 549 LINE SMOOTH",
"360 643 OFFCURVE",
"297 708 OFFCURVE",
"207 708 CURVE SMOOTH",
"118 708 OFFCURVE",
"56 643 OFFCURVE",
"56 549 CURVE SMOOTH",
"56 150 LINE SMOOTH",
"56 56 OFFCURVE",
"118 -8 OFFCURVE",
"207 -8 CURVE SMOOTH"
);
},
{
closed = 1;
nodes = (
"131 13 OFFCURVE",
"78 69 OFFCURVE",
"78 149 CURVE SMOOTH",
"78 550 LINE SMOOTH",
"78 631 OFFCURVE",
"131 687 OFFCURVE",
"207 687 CURVE SMOOTH",
"284 687 OFFCURVE",
"338 631 OFFCURVE",
"338 550 CURVE SMOOTH",
"338 149 LINE SMOOTH",
"338 69 OFFCURVE",
"284 13 OFFCURVE",
"207 13 CURVE SMOOTH"
);
}
);
width = 416;
}
);
leftKerningGroup = O;
rightKerningGroup = O;
unicode = 004F;
},
{
color = 3;
glyphname = Oslash;
layers = (
{
components = (
{
name = O;
}
);
hints = (
{
place = "{91, 22}";
type = Stem;
},
{
horizontal = 1;
origin = "{0, 1}";
target = "{0, 0}";
type = Stem;
},
{
place = "{511, -83}";
type = Stem;
},
{
horizontal = 1;
origin = "{0, 3}";
target = "{0, 2}";
type = Stem;
}
);
layerId = "262880E7-CFE1-4BDA-902E-E24798F3240A";
paths = (
{
closed = 1;
nodes = (
"547 700 LINE",
"528 712 LINE",
"75 -1 LINE",
"93 -13 LINE"
);
}
);
width = 616;
},
{
components = (
{
alignment = -1;
name = O;
}
);
layerId = "FFFA8D72-12AC-4CE0-B2CA-57A29829F4DA";
paths = (
{
closed = 1;
nodes = (
"591 674 LINE",
"504 739 LINE",
"30 17 LINE",
"122 -39 LINE"
);
}
);
width = 619;
},
{
components = (
{
alignment = -1;
name = O;
}
);
layerId = "DCBE1F7B-116A-43E0-B7B4-8657BA77D8B5";
paths = (
{
closed = 1;
nodes = (
"378 716 LINE",
"358 725 LINE",
"66 -17 LINE",
"86 -26 LINE"
);
}
);
width = 434;
},
{
components = (
{
alignment = -1;
name = O;
}
);
layerId = "4E2227F3-52E4-4048-A8EE-327B486EF0A4";
paths = (
{
closed = 1;
nodes = (
"464 705 LINE",
"388 736 LINE",
"20 -6 LINE",
"96 -37 LINE"
);
}
);
width = 484;
},
{
associatedMasterId = "FFFA8D72-12AC-4CE0-B2CA-57A29829F4DA";
components = (
{
alignment = -1;
name = O;
transform = "{1, 0, 0, 1, 7, 0}";
},
{
alignment = -1;
name = slashlongcomb;
transform = "{1, 0, 0, 1, 47, 0}";
}
);
layerId = "160CDC3E-1151-4942-8EC5-A5A167ED0AB4";
name = "100,300}";
width = 503;
},
{
associatedMasterId = "FFFA8D72-12AC-4CE0-B2CA-57A29829F4DA";
components = (
{
alignment = -1;
name = O;
transform = "{1, 0, 0, 1, 8, 0}";
},
{
name = slashlongcomb;
transform = "{1, 0, 0, 1, 62, 0}";
}
);
layerId = "ED17B6D4-A8AE-40B6-9381-1DD3D326EE5F";
name = "100,500}";
width = 630;
},
{
associatedMasterId = "4E2227F3-52E4-4048-A8EE-327B486EF0A4";
components = (
{
alignment = -1;
name = O;
},
{
name = slashlongcomb;
transform = "{1, 0, 0, 1, 31, 0}";
}
);
layerId = "14CE8F98-CD3D-4C0E-8035-32DE8822C244";
name = "141,500}";
width = 484;
},
{
associatedMasterId = "4E2227F3-52E4-4048-A8EE-327B486EF0A4";
components = (
{
alignment = -1;
name = O;
},
{
name = slashlongcomb;
transform = "{1, 0, 0, 1, 31, 0}";
}
);
layerId = "6FE7FD38-9064-4D6E-BB7C-2BCA961CD2F9";
name = "141,300} Nov 21 17, 02:18";
width = 484;
}
);
unicode = 00D8;
},
{
glyphname = OE;
layers = (
{
anchors = (
{
name = top;
position = "{465, 700}";
}
);
hints = (
{
place = "{90, 22}";
type = Stem;
},
{
horizontal = 1;
origin = "{0, 6}";
target = "{1, 6}";
type = Stem;
},
{
origin = "{1, 9}";
target = "{0, 3}";
type = Stem;
},
{
horizontal = 1;
origin = "{0, 13}";
target = "{1, 13}";
type = Stem;
},
{
horizontal = 1;
place = "{340, 21}";
type = Stem;
},
{
horizontal = 1;
place = "{0, 21}";
type = Stem;
},
{
origin = "{1, 10}";
target = "{0, 2}";
type = Stem;
},
{
horizontal = 1;
place = "{700, -21}";
type = Stem;
}
);
layerId = "262880E7-CFE1-4BDA-902E-E24798F3240A";
paths = (
{
closed = 1;
nodes = (
"406 -7 OFFCURVE",
"485 77 OFFCURVE",
"485 190 CURVE SMOOTH",
"485 509 LINE SMOOTH",
"485 623 OFFCURVE",
"406 708 OFFCURVE",
"285 708 CURVE SMOOTH",
"164 708 OFFCURVE",
"85 623 OFFCURVE",
"85 509 CURVE SMOOTH",
"85 190 LINE SMOOTH",
"85 77 OFFCURVE",
"164 -7 OFFCURVE",
"285 -7 CURVE SMOOTH"
);
},
{
closed = 1;
nodes = (
"178 13 OFFCURVE",
"107 89 OFFCURVE",
"107 189 CURVE SMOOTH",
"107 510 LINE SMOOTH",
"107 610 OFFCURVE",
"178 687 OFFCURVE",
"285 687 CURVE SMOOTH",
"393 687 OFFCURVE",
"465 610 OFFCURVE",
"465 510 CURVE SMOOTH",
"465 189 LINE SMOOTH",
"465 89 OFFCURVE",
"393 13 OFFCURVE",
"285 13 CURVE SMOOTH"
);
},
{
closed = 1;
nodes = (
"727 340 LINE",
"727 361 LINE",
"476 361 LINE",
"476 340 LINE"
);
},
{
closed = 1;
nodes = (
"836 0 LINE",
"836 21 LINE",
"487 21 LINE",
"487 679 LINE",
"836 679 LINE",
"836 700 LINE",
"465 700 LINE",
"465 0 LINE"
);
}
);
width = 880;
},
{
anchors = (
{
name = top;
position = "{491, 700}";
}
);
layerId = "FFFA8D72-12AC-4CE0-B2CA-57A29829F4DA";
paths = (
{
closed = 1;
nodes = (
"392 -12 OFFCURVE",
"525 87 OFFCURVE",
"525 236 CURVE SMOOTH",
"525 464 LINE SMOOTH",
"525 613 OFFCURVE",
"392 708 OFFCURVE",
"264 708 CURVE SMOOTH",
"142 708 OFFCURVE",
"34 602 OFFCURVE",
"34 444 CURVE SMOOTH",
"34 256 LINE SMOOTH",
"34 95 OFFCURVE",
"142 -12 OFFCURVE",
"264 -12 CURVE SMOOTH"
);
},
{
closed = 1;
nodes = (
"259 149 OFFCURVE",
"222 189 OFFCURVE",
"222 250 CURVE SMOOTH",
"222 446 LINE SMOOTH",
"222 507 OFFCURVE",
"259 547 OFFCURVE",
"314 547 CURVE SMOOTH",
"370 547 OFFCURVE",
"407 507 OFFCURVE",
"407 446 CURVE SMOOTH",
"407 250 LINE SMOOTH",
"407 189 OFFCURVE",
"370 149 OFFCURVE",
"314 149 CURVE SMOOTH"
);
},
{
closed = 1;
nodes = (
"803 275 LINE",
"803 435 LINE",
"483 435 LINE",
"483 275 LINE"
);
},
{
closed = 1;
nodes = (
"917 0 LINE",
"917 161 LINE",
"595 161 LINE",
"595 539 LINE",
"917 539 LINE",
"917 700 LINE",
"407 700 LINE",
"407 0 LINE"
);
}
);
width = 948;
},
{
anchors = (
{
name = top;
position = "{356, 700}";
}
);
layerId = "DCBE1F7B-116A-43E0-B7B4-8657BA77D8B5";
paths = (
{
closed = 1;
nodes = (
"297 -8 OFFCURVE",
"358 56 OFFCURVE",
"358 150 CURVE SMOOTH",
"358 549 LINE SMOOTH",
"358 643 OFFCURVE",
"297 708 OFFCURVE",
"207 708 CURVE SMOOTH",
"118 708 OFFCURVE",
"56 643 OFFCURVE",
"56 549 CURVE SMOOTH",
"56 150 LINE SMOOTH",
"56 56 OFFCURVE",
"118 -8 OFFCURVE",
"207 -8 CURVE SMOOTH"
);
},
{
closed = 1;
nodes = (
"131 13 OFFCURVE",
"78 69 OFFCURVE",
"78 149 CURVE SMOOTH",
"78 550 LINE SMOOTH",
"78 631 OFFCURVE",
"131 687 OFFCURVE",
"207 687 CURVE SMOOTH",
"284 687 OFFCURVE",
"338 631 OFFCURVE",
"338 550 CURVE SMOOTH",
"338 149 LINE SMOOTH",
"338 69 OFFCURVE",
"284 13 OFFCURVE",
"207 13 CURVE SMOOTH"
);
},
{
closed = 1;
nodes = (
"537 340 LINE",
"537 361 LINE",
"349 361 LINE",
"349 340 LINE"
);
},
{
closed = 1;
nodes = (
"620 0 LINE",
"620 21 LINE",
"360 21 LINE",
"360 679 LINE",
"620 679 LINE",
"620 700 LINE",
"338 700 LINE",
"338 0 LINE"
);
}
);
width = 648;
},
{
anchors = (
{
name = top;
position = "{362, 700}";
}
);
layerId = "4E2227F3-52E4-4048-A8EE-327B486EF0A4";
paths = (
{
closed = 1;
nodes = (
"296 -8 OFFCURVE",
"354 75 OFFCURVE",
"354 206 CURVE SMOOTH",
"354 494 LINE SMOOTH",
"354 625 OFFCURVE",
"296 708 OFFCURVE",
"192 708 CURVE SMOOTH",
"107 708 OFFCURVE",
"20 625 OFFCURVE",
"20 494 CURVE SMOOTH",
"20 206 LINE SMOOTH",
"20 75 OFFCURVE",
"107 -8 OFFCURVE",
"192 -8 CURVE SMOOTH"
);
},
{
closed = 1;
nodes = (
"220 153 OFFCURVE",
"208 171 OFFCURVE",
"208 198 CURVE SMOOTH",
"208 502 LINE SMOOTH",
"208 529 OFFCURVE",
"220 547 OFFCURVE",
"242 547 CURVE SMOOTH",
"264 547 OFFCURVE",
"276 529 OFFCURVE",
"276 502 CURVE SMOOTH",
"276 198 LINE SMOOTH",
"276 171 OFFCURVE",
"264 153 OFFCURVE",
"242 153 CURVE SMOOTH"
);
},
{
closed = 1;
nodes = (
"584 270 LINE",
"584 431 LINE",
"352 431 LINE",
"352 270 LINE"
);
},
{
closed = 1;
nodes = (
"676 0 LINE",
"676 161 LINE",
"464 161 LINE",
"464 539 LINE",
"676 539 LINE",
"676 700 LINE",
"276 700 LINE",
"276 0 LINE"
);
}
);
width = 690;
}
);
leftKerningGroup = O;
unicode = 0152;
},
{
glyphname = P;
layers = (
{
hints = (
{
horizontal = 1;
origin = "{0, 17}";
target = "{0, 2}";
type = Stem;
},
{
origin = "{0, 5}";
target = "{0, 14}";
type = Stem;
},
{
horizontal = 1;
origin = "{0, 11}";
target = "{0, 8}";
type = Stem;
},
{
origin = "{0, 18}";
target = "{0, 1}";
type = Stem;
}
);
layerId = "262880E7-CFE1-4BDA-902E-E24798F3240A";
paths = (
{
closed = 1;
nodes = (
"122 0 LINE",
"122 681 LINE",
"360 681 LINE SMOOTH",
"452 681 OFFCURVE",
"514 617 OFFCURVE",
"514 520 CURVE SMOOTH",
"514 425 OFFCURVE",
"452 361 OFFCURVE",
"360 361 CURVE SMOOTH",
"117 361 LINE",
"117 340 LINE",
"358 340 LINE SMOOTH",
"465 340 OFFCURVE",
"536 411 OFFCURVE",
"536 520 CURVE SMOOTH",
"536 629 OFFCURVE",
"465 702 OFFCURVE",
"358 702 CURVE SMOOTH",
"100 702 LINE",
"100 0 LINE"
);
}
);
width = 581;
},
{
layerId = "4E2227F3-52E4-4048-A8EE-327B486EF0A4";
paths = (
{
closed = 1;
nodes = (
"218 0 LINE",
"218 539 LINE",
"237 539 LINE SMOOTH",
"266 539 OFFCURVE",
"287 517 OFFCURVE",
"287 471 CURVE SMOOTH",
"287 426 OFFCURVE",
"266 405 OFFCURVE",
"237 405 CURVE SMOOTH",
"202 405 LINE",
"202 260 LINE",
"280 260 LINE SMOOTH",
"396 260 OFFCURVE",
"475 345 OFFCURVE",
"475 475 CURVE SMOOTH",
"475 608 OFFCURVE",
"392 700 OFFCURVE",
"270 700 CURVE SMOOTH",
"30 700 LINE",
"30 0 LINE"
);
}
);
width = 483;
},
{
layerId = "FFFA8D72-12AC-4CE0-B2CA-57A29829F4DA";
paths = (
{
closed = 1;
nodes = (
"240 0 LINE",
"240 539 LINE",
"329 539 LINE SMOOTH",
"378 539 OFFCURVE",
"411 510 OFFCURVE",
"411 466 CURVE SMOOTH",
"411 423 OFFCURVE",
"378 395 OFFCURVE",
"329 395 CURVE SMOOTH",
"223 395 LINE",
"223 245 LINE",
"351 245 LINE SMOOTH",
"499 245 OFFCURVE",
"598 335 OFFCURVE",
"598 470 CURVE SMOOTH",
"598 608 OFFCURVE",
"503 700 OFFCURVE",
"360 700 CURVE SMOOTH",
"52 700 LINE",
"52 0 LINE"
);
}
);
width = 615;
},
{
layerId = "DCBE1F7B-116A-43E0-B7B4-8657BA77D8B5";
paths = (
{
closed = 1;
nodes = (
"91 0 LINE",
"91 681 LINE",
"217 681 LINE SMOOTH",
"291 681 OFFCURVE",
"340 617 OFFCURVE",
"340 520 CURVE SMOOTH",
"340 425 OFFCURVE",
"291 361 OFFCURVE",
"217 361 CURVE SMOOTH",
"87 361 LINE",
"87 340 LINE",
"217 340 LINE SMOOTH",
"304 340 OFFCURVE",
"362 412 OFFCURVE",
"362 520 CURVE SMOOTH",
"362 629 OFFCURVE",
"304 702 OFFCURVE",
"217 702 CURVE SMOOTH",
"69 702 LINE",
"69 0 LINE"
);
}
);
width = 393;
}
);
leftKerningGroup = H;
rightKerningGroup = P;
unicode = 0050;
},
{
glyphname = Thorn;
layers = (
{
hints = (
{
horizontal = 1;
place = "{460, -21}";
type = Stem;
},
{
place = "{472, 22}";
type = Stem;
},
{
horizontal = 1;
place = "{98, 21}";
type = Stem;
},
{
origin = "{0, 2}";
target = "{0, 1}";
type = Stem;
}
);
layerId = "262880E7-CFE1-4BDA-902E-E24798F3240A";
paths = (
{
closed = 1;
nodes = (
"122 0 LINE",
"122 700 LINE",
"100 700 LINE",
"100 0 LINE"
);
},
{
closed = 1;
nodes = (
"328 169 LINE SMOOTH",
"435 169 OFFCURVE",
"506 240 OFFCURVE",
"506 349 CURVE SMOOTH",
"506 458 OFFCURVE",
"435 531 OFFCURVE",
"328 531 CURVE SMOOTH",
"122 531 LINE",
"122 510 LINE",
"330 510 LINE SMOOTH",
"422 510 OFFCURVE",
"484 446 OFFCURVE",
"484 349 CURVE SMOOTH",
"484 254 OFFCURVE",
"422 190 OFFCURVE",
"330 190 CURVE SMOOTH",
"122 190 LINE",
"122 169 LINE"
);
}
);
width = 566;
},
{
layerId = "FFFA8D72-12AC-4CE0-B2CA-57A29829F4DA";
paths = (
{
closed = 1;
nodes = (
"240 0 LINE",
"240 700 LINE",
"52 700 LINE",
"52 0 LINE"
);
},
{
closed = 1;
nodes = (
"341 127 LINE SMOOTH",
"477 127 OFFCURVE",
"588 215 OFFCURVE",
"588 348 CURVE SMOOTH",
"588 481 OFFCURVE",
"492 573 OFFCURVE",
"350 573 CURVE SMOOTH",
"240 573 LINE",
"240 412 LINE",
"319 412 LINE SMOOTH",
"367 412 OFFCURVE",
"401 390 OFFCURVE",
"401 344 CURVE SMOOTH",
"401 299 OFFCURVE",
"367 278 OFFCURVE",
"319 278 CURVE SMOOTH",
"240 278 LINE",
"240 127 LINE"
);
}
);
width = 609;
},
{
layerId = "DCBE1F7B-116A-43E0-B7B4-8657BA77D8B5";
paths = (
{
closed = 1;
nodes = (
"91 0 LINE",
"91 700 LINE",
"69 700 LINE",
"69 0 LINE"
);
},
{
closed = 1;
nodes = (
"217 171 LINE SMOOTH",
"304 171 OFFCURVE",
"362 243 OFFCURVE",
"362 351 CURVE SMOOTH",
"362 460 OFFCURVE",
"304 533 OFFCURVE",
"217 533 CURVE SMOOTH",
"91 533 LINE",
"91 512 LINE",
"217 512 LINE SMOOTH",
"291 512 OFFCURVE",
"340 448 OFFCURVE",
"340 351 CURVE SMOOTH",
"340 256 OFFCURVE",
"291 192 OFFCURVE",
"217 192 CURVE SMOOTH",
"91 192 LINE",
"91 171 LINE"
);
}
);
width = 403;
},
{
layerId = "4E2227F3-52E4-4048-A8EE-327B486EF0A4";
paths = (
{
closed = 1;
nodes = (
"218 0 LINE",
"218 700 LINE",
"30 700 LINE",
"30 0 LINE"
);
},
{
closed = 1;
nodes = (
"279 129 LINE SMOOTH",
"395 129 OFFCURVE",
"474 215 OFFCURVE",
"474 346 CURVE SMOOTH",
"474 479 OFFCURVE",
"391 571 OFFCURVE",
"269 571 CURVE SMOOTH",
"218 571 LINE",
"218 410 LINE",
"236 410 LINE SMOOTH",
"265 410 OFFCURVE",
"286 388 OFFCURVE",
"286 342 CURVE SMOOTH",
"286 297 OFFCURVE",
"265 276 OFFCURVE",
"236 276 CURVE SMOOTH",
"218 276 LINE",
"218 129 LINE"
);
}
);
width = 483;
}
);
rightKerningGroup = B;
unicode = 00DE;
},
{
glyphname = Q;
layers = (
{
hints = (
{
horizontal = 1;
place = "{708, -21}";
type = Stem;
},
{
place = "{70, 22}";
type = Stem;
},
{
place = "{472, 22}";
type = Stem;
},
{
horizontal = 1;
place = "{-8, -2147483648}";
type = Stem;
},
{
origin = "{1, 3}";
target = "{1, 0}";
type = Stem;
},
{
horizontal = 1;
origin = "{0, 13}";
target = "{2, 13}";
type = Stem;
}
);
layerId = "262880E7-CFE1-4BDA-902E-E24798F3240A";
paths = (
{
closed = 1;
nodes = (
"408 -8 OFFCURVE",
"493 76 OFFCURVE",
"493 201 CURVE SMOOTH",
"493 499 LINE SMOOTH",
"493 624 OFFCURVE",
"408 708 OFFCURVE",
"281 708 CURVE SMOOTH",
"154 708 OFFCURVE",
"69 624 OFFCURVE",
"69 499 CURVE SMOOTH",
"69 201 LINE SMOOTH",
"69 76 OFFCURVE",
"154 -8 OFFCURVE",
"281 -8 CURVE SMOOTH"
);
},
{
closed = 1;
nodes = (
"292 -127 LINE",
"292 0 LINE",
"270 0 LINE",
"270 -127 LINE"
);
},
{
closed = 1;
nodes = (
"167 13 OFFCURVE",
"91 88 OFFCURVE",
"91 200 CURVE SMOOTH",
"91 500 LINE SMOOTH",
"91 612 OFFCURVE",
"167 687 OFFCURVE",
"281 687 CURVE SMOOTH",
"395 687 OFFCURVE",
"471 612 OFFCURVE",
"471 500 CURVE SMOOTH",
"471 200 LINE SMOOTH",
"471 88 OFFCURVE",
"395 13 OFFCURVE",
"281 13 CURVE SMOOTH"
);
}
);
width = 562;
},
{
layerId = "4E2227F3-52E4-4048-A8EE-327B486EF0A4";
paths = (
{
closed = 1;
nodes = (
"367 -8 OFFCURVE",
"453 81 OFFCURVE",
"453 215 CURVE SMOOTH",
"453 485 LINE SMOOTH",
"453 619 OFFCURVE",
"367 708 OFFCURVE",
"236 708 CURVE SMOOTH",
"106 708 OFFCURVE",
"20 619 OFFCURVE",
"20 485 CURVE SMOOTH",
"20 215 LINE SMOOTH",
"20 81 OFFCURVE",
"106 -8 OFFCURVE",
"236 -8 CURVE SMOOTH"
);
},
{
closed = 1;
nodes = (
"330 -87 LINE",
"330 113 LINE",
"142 113 LINE",
"142 -87 LINE"
);
},
{
closed = 1;
nodes = (
"219 153 OFFCURVE",
"208 170 OFFCURVE",
"208 195 CURVE SMOOTH",
"208 505 LINE SMOOTH",
"208 530 OFFCURVE",
"219 547 OFFCURVE",
"236 547 CURVE SMOOTH",
"254 547 OFFCURVE",
"265 530 OFFCURVE",
"265 505 CURVE SMOOTH",
"265 195 LINE SMOOTH",
"265 170 OFFCURVE",
"254 153 OFFCURVE",
"236 153 CURVE SMOOTH"
);
}
);
width = 473;
},
{
layerId = "FFFA8D72-12AC-4CE0-B2CA-57A29829F4DA";
paths = (
{
closed = 1;
nodes = (
"464 -8 OFFCURVE",
"573 93 OFFCURVE",
"573 245 CURVE SMOOTH",
"573 440 LINE SMOOTH",
"573 601 OFFCURVE",
"464 708 OFFCURVE",
"300 708 CURVE SMOOTH",
"137 708 OFFCURVE",
"28 601 OFFCURVE",
"28 440 CURVE SMOOTH",
"28 245 LINE SMOOTH",
"28 93 OFFCURVE",
"137 -8 OFFCURVE",
"300 -8 CURVE SMOOTH"
);
},
{
closed = 1;
nodes = (
"395 -87 LINE",
"395 113 LINE",
"207 113 LINE",
"207 -87 LINE"
);
},
{
closed = 1;
nodes = (
"250 153 OFFCURVE",
"216 192 OFFCURVE",
"216 250 CURVE SMOOTH",
"216 450 LINE SMOOTH",
"216 508 OFFCURVE",
"250 547 OFFCURVE",
"300 547 CURVE SMOOTH",
"351 547 OFFCURVE",
"385 508 OFFCURVE",
"385 450 CURVE SMOOTH",
"385 250 LINE SMOOTH",
"385 192 OFFCURVE",
"351 153 OFFCURVE",
"300 153 CURVE SMOOTH"
);
}
);
width = 601;
},
{
layerId = "DCBE1F7B-116A-43E0-B7B4-8657BA77D8B5";
paths = (
{
closed = 1;
nodes = (
"288 -8 OFFCURVE",
"347 57 OFFCURVE",
"347 151 CURVE SMOOTH",
"347 549 LINE SMOOTH",
"347 643 OFFCURVE",
"288 708 OFFCURVE",
"202 708 CURVE SMOOTH",
"116 708 OFFCURVE",
"56 643 OFFCURVE",
"56 549 CURVE SMOOTH",
"56 151 LINE SMOOTH",
"56 57 OFFCURVE",
"116 -8 OFFCURVE",
"202 -8 CURVE SMOOTH"
);
},
{
closed = 1;
nodes = (
"213 -127 LINE",
"213 0 LINE",
"190 0 LINE",
"190 -127 LINE"
);
},
{
closed = 1;
nodes = (
"129 13 OFFCURVE",
"78 69 OFFCURVE",
"78 150 CURVE SMOOTH",
"78 550 LINE SMOOTH",
"78 631 OFFCURVE",
"129 687 OFFCURVE",
"202 687 CURVE SMOOTH",
"275 687 OFFCURVE",
"325 631 OFFCURVE",
"325 550 CURVE SMOOTH",
"325 150 LINE SMOOTH",
"325 69 OFFCURVE",
"275 13 OFFCURVE",
"202 13 CURVE SMOOTH"
);
}
);
width = 403;
}
);
leftKerningGroup = O;
rightKerningGroup = O;
unicode = 0051;
},
{
glyphname = R;
layers = (
{
anchors = (
{
name = bottom;
position = "{304, 0}";
},
{
name = top;
position = "{290, 700}";
}
);
hints = (
{
horizontal = 1;
origin = "{0, 18}";
target = "{0, 1}";
type = Stem;
},
{
horizontal = 1;
origin = "{0, 10}";
target = "{0, 9}";
type = Stem;
},
{
origin = "{0, 19}";
target = "{0, 0}";
type = Stem;
},
{
place = "{458, 0}";
type = Stem;
},
{
place = "{445, 0}";
type = Stem;
},
{
origin = "{0, 5}";
target = "{0, 14}";
type = Stem;
}
);
layerId = "262880E7-CFE1-4BDA-902E-E24798F3240A";
paths = (
{
closed = 1;
nodes = (
"122 0 LINE",
"122 679 LINE",
"350 679 LINE SMOOTH",
"442 679 OFFCURVE",
"504 615 OFFCURVE",
"504 520 CURVE SMOOTH",
"504 427 OFFCURVE",
"442 363 OFFCURVE",
"350 363 CURVE SMOOTH",
"117 363 LINE",
"117 342 LINE",
"348 342 LINE SMOOTH",
"455 342 OFFCURVE",
"526 413 OFFCURVE",
"526 520 CURVE SMOOTH",
"526 627 OFFCURVE",
"455 700 OFFCURVE",
"348 700 CURVE SMOOTH",
"100 700 LINE",
"100 0 LINE"
);
},
{
closed = 1;
nodes = (
"539 0 LINE",
"366 355 LINE",
"348 347 LINE",
"518 0 LINE"
);
}
);
width = 586;
},
{
anchors = (
{
name = bottom;
position = "{249, 0}";
},
{
name = top;
position = "{237, 700}";
}
);
layerId = "4E2227F3-52E4-4048-A8EE-327B486EF0A4";
paths = (
{
closed = 1;
nodes = (
"218 0 LINE",
"218 539 LINE",
"237 539 LINE SMOOTH",
"266 539 OFFCURVE",
"287 518 OFFCURVE",
"287 475 CURVE SMOOTH",
"287 434 OFFCURVE",
"266 412 OFFCURVE",
"237 412 CURVE SMOOTH",
"202 412 LINE",
"202 269 LINE",
"280 269 LINE SMOOTH",
"396 269 OFFCURVE",
"475 352 OFFCURVE",
"475 477 CURVE SMOOTH",
"475 608 OFFCURVE",
"392 700 OFFCURVE",
"270 700 CURVE SMOOTH",
"30 700 LINE",
"30 0 LINE"
);
},
{
closed = 1;
nodes = (
"484 0 LINE",
"385 349 LINE",
"206 349 LINE",
"290 0 LINE"
);
}
);
width = 490;
},
{
anchors = (
{
name = bottom;
position = "{305, 0}";
},
{
name = top;
position = "{291, 700}";
}
);
layerId = "FFFA8D72-12AC-4CE0-B2CA-57A29829F4DA";
paths = (
{
closed = 1;
nodes = (
"240 0 LINE",
"240 539 LINE",
"339 539 LINE SMOOTH",
"382 539 OFFCURVE",
"411 513 OFFCURVE",
"411 475 CURVE SMOOTH",
"411 437 OFFCURVE",
"382 412 OFFCURVE",
"339 412 CURVE SMOOTH",
"223 412 LINE",
"223 269 LINE",
"370 269 LINE SMOOTH",
"507 269 OFFCURVE",
"598 352 OFFCURVE",
"598 477 CURVE SMOOTH",
"598 611 OFFCURVE",
"507 700 OFFCURVE",
"370 700 CURVE SMOOTH",
"52 700 LINE",
"52 0 LINE"
);
},
{
closed = 1;
nodes = (
"608 0 LINE",
"441 349 LINE",
"256 349 LINE",
"408 0 LINE"
);
}
);
width = 622;
},
{
anchors = (
{
name = bottom;
position = "{208, 0}";
},
{
name = top;
position = "{198, 700}";
}
);
layerId = "DCBE1F7B-116A-43E0-B7B4-8657BA77D8B5";
paths = (
{
closed = 1;
nodes = (
"91 0 LINE",
"91 679 LINE",
"217 679 LINE SMOOTH",
"291 679 OFFCURVE",
"340 615 OFFCURVE",
"340 520 CURVE SMOOTH",
"340 426 OFFCURVE",
"291 363 OFFCURVE",
"217 363 CURVE SMOOTH",
"87 363 LINE",
"87 342 LINE",
"217 342 LINE SMOOTH",
"304 342 OFFCURVE",
"362 413 OFFCURVE",
"362 520 CURVE SMOOTH",
"362 628 OFFCURVE",
"304 700 OFFCURVE",
"217 700 CURVE SMOOTH",
"69 700 LINE",
"69 0 LINE"
);
},
{
closed = 1;
nodes = (
"367 0 LINE",
"236 353 LINE",
"217 345 LINE",
"345 0 LINE"
);
}
);
width = 400;
},
{
anchors = (
{
name = bottom;
position = "{292, 0}";
},
{
name = top;
position = "{278, 700}";
}
);
associatedMasterId = "FFFA8D72-12AC-4CE0-B2CA-57A29829F4DA";
layerId = "D13203D4-6148-4CCE-A56D-F97AB41F30AE";
name = Maybe;
paths = (
{
closed = 1;
nodes = (
"227 0 LINE",
"227 539 LINE",
"326 539 LINE SMOOTH",
"369 539 OFFCURVE",
"398 513 OFFCURVE",
"398 475 CURVE SMOOTH",
"398 437 OFFCURVE",
"369 412 OFFCURVE",
"326 412 CURVE SMOOTH",
"210 412 LINE",
"210 269 LINE",
"357 269 LINE SMOOTH",
"494 269 OFFCURVE",
"585 352 OFFCURVE",
"585 477 CURVE SMOOTH",
"585 611 OFFCURVE",
"494 700 OFFCURVE",
"357 700 CURVE SMOOTH",
"39 700 LINE",
"39 0 LINE"
);
},
{
closed = 1;
nodes = (
"593 0 LINE",
"442 349 LINE",
"257 349 LINE",
"393 0 LINE"
);
}
);
width = 615;
}
);
rightKerningGroup = R;
unicode = 0052;
},
{
glyphname = S;
layers = (
{
anchors = (
{
name = bottom;
position = "{268, -8}";
},
{
name = top;
position = "{263, 700}";
}
);
hints = (
{
horizontal = 1;
origin = "{0, 20}";
target = "{0, 11}";
type = Stem;
},
{
origin = "{0, 14}";
target = "{0, 17}";
type = Stem;
},
{
horizontal = 1;
origin = "{0, 41}";
target = "{0, 32}";
type = Stem;
},
{
origin = "{0, 37}";
target = "{0, 36}";
type = Stem;
}
);
layerId = "262880E7-CFE1-4BDA-902E-E24798F3240A";
paths = (
{
closed = 1;
nodes = (
"419 -8 OFFCURVE",
"493 63 OFFCURVE",
"493 163 CURVE SMOOTH",
"493 261 OFFCURVE",
"421 314 OFFCURVE",
"276 375 CURVE SMOOTH",
"147 429 OFFCURVE",
"83 456 OFFCURVE",
"83 548 CURVE SMOOTH",
"83 639 OFFCURVE",
"147 687 OFFCURVE",
"262 687 CURVE SMOOTH",
"393 687 OFFCURVE",
"464 625 OFFCURVE",
"464 533 CURVE SMOOTH",
"464 500 LINE",
"486 500 LINE",
"486 535 LINE SMOOTH",
"486 639 OFFCURVE",
"409 708 OFFCURVE",
"264 708 CURVE SMOOTH",
"134 708 OFFCURVE",
"62 652 OFFCURVE",
"62 546 CURVE SMOOTH",
"62 443 OFFCURVE",
"130 413 OFFCURVE",
"261 356 CURVE",
"414 289 OFFCURVE",
"471 245 OFFCURVE",
"471 161 CURVE SMOOTH",
"471 69 OFFCURVE",
"403 13 OFFCURVE",
"277 13 CURVE SMOOTH",
"144 13 OFFCURVE",
"66 74 OFFCURVE",
"66 166 CURVE SMOOTH",
"66 210 LINE",
"46 210 LINE",
"46 164 LINE SMOOTH",
"46 60 OFFCURVE",
"132 -8 OFFCURVE",
"275 -8 CURVE SMOOTH"
);
}
);
width = 540;
},
{
anchors = (
{
name = bottom;
position = "{225, -8}";
},
{
name = top;
position = "{221, 700}";
}
);
layerId = "4E2227F3-52E4-4048-A8EE-327B486EF0A4";
paths = (
{
closed = 1;
nodes = (
"352 -8 OFFCURVE",
"439 68 OFFCURVE",
"439 191 CURVE SMOOTH",
"439 294 OFFCURVE",
"378 341 OFFCURVE",
"273 418 CURVE SMOOTH",
"209 465 OFFCURVE",
"193 483 OFFCURVE",
"193 510 CURVE SMOOTH",
"193 532 OFFCURVE",
"204 547 OFFCURVE",
"221 547 CURVE SMOOTH",
"238 547 OFFCURVE",
"250 533 OFFCURVE",
"250 513 CURVE SMOOTH",
"250 472 LINE",
"435 472 LINE",
"435 509 LINE SMOOTH",
"435 628 OFFCURVE",
"350 708 OFFCURVE",
"221 708 CURVE SMOOTH",
"93 708 OFFCURVE",
"8 628 OFFCURVE",
"8 509 CURVE SMOOTH",
"8 386 OFFCURVE",
"100 321 OFFCURVE",
"171 271 CURVE SMOOTH",
"236 225 OFFCURVE",
"254 209 OFFCURVE",
"254 185 CURVE SMOOTH",
"254 166 OFFCURVE",
"242 153 OFFCURVE",
"226 153 CURVE SMOOTH",
"210 153 OFFCURVE",
"198 167 OFFCURVE",
"198 189 CURVE SMOOTH",
"198 226 LINE",
"12 226 LINE",
"12 180 LINE SMOOTH",
"12 70 OFFCURVE",
"96 -8 OFFCURVE",
"225 -8 CURVE SMOOTH"
);
}
);
width = 444;
},
{
anchors = (
{
name = bottom;
position = "{285, -8}";
},
{
name = top;
position = "{282, 700}";
}
);
layerId = "FFFA8D72-12AC-4CE0-B2CA-57A29829F4DA";
paths = (
{
closed = 1;
nodes = (
"447 -8 OFFCURVE",
"557 72 OFFCURVE",
"557 208 CURVE SMOOTH",
"557 359 OFFCURVE",
"409 392 OFFCURVE",
"340 414 CURVE SMOOTH",
"236 447 OFFCURVE",
"199 462 OFFCURVE",
"199 498 CURVE SMOOTH",
"199 528 OFFCURVE",
"225 547 OFFCURVE",
"268 547 CURVE SMOOTH",
"333 547 OFFCURVE",
"368 504 OFFCURVE",
"368 468 CURVE SMOOTH",
"368 452 LINE",
"553 452 LINE",
"553 476 LINE SMOOTH",
"553 615 OFFCURVE",
"432 708 OFFCURVE",
"275 708 CURVE SMOOTH",
"126 708 OFFCURVE",
"14 625 OFFCURVE",
"14 496 CURVE SMOOTH",
"14 352 OFFCURVE",
"154 299 OFFCURVE",
"247 271 CURVE SMOOTH",
"320 249 OFFCURVE",
"369 241 OFFCURVE",
"369 203 CURVE SMOOTH",
"369 184 OFFCURVE",
"356 153 OFFCURVE",
"300 153 CURVE SMOOTH",
"230 153 OFFCURVE",
"192 190 OFFCURVE",
"192 224 CURVE SMOOTH",
"192 245 LINE",
"7 245 LINE",
"7 216 LINE SMOOTH",
"7 80 OFFCURVE",
"116 -8 OFFCURVE",
"286 -8 CURVE SMOOTH"
);
}
);
width = 573;
},
{
anchors = (
{
name = bottom;
position = "{185, -8}";
},
{
name = top;
position = "{179, 700}";
}
);
layerId = "DCBE1F7B-116A-43E0-B7B4-8657BA77D8B5";
paths = (
{
closed = 1;
nodes = (
"271 -8 OFFCURVE",
"333 60 OFFCURVE",
"333 166 CURVE SMOOTH",
"333 257 OFFCURVE",
"288 294 OFFCURVE",
"188 369 CURVE SMOOTH",
"101 434 OFFCURVE",
"60 469 OFFCURVE",
"60 549 CURVE SMOOTH",
"60 640 OFFCURVE",
"112 688 OFFCURVE",
"179 688 CURVE SMOOTH",
"254 688 OFFCURVE",
"305 627 OFFCURVE",
"305 534 CURVE SMOOTH",
"305 500 LINE",
"327 500 LINE",
"327 535 LINE SMOOTH",
"327 639 OFFCURVE",
"268 708 OFFCURVE",
"179 708 CURVE SMOOTH",
"99 708 OFFCURVE",
"38 652 OFFCURVE",
"38 551 CURVE SMOOTH",
"38 453 OFFCURVE",
"94 409 OFFCURVE",
"176 347 CURVE SMOOTH",
"254 288 OFFCURVE",
"311 250 OFFCURVE",
"311 159 CURVE SMOOTH",
"311 70 OFFCURVE",
"256 12 OFFCURVE",
"184 12 CURVE SMOOTH",
"111 12 OFFCURVE",
"59 72 OFFCURVE",
"59 165 CURVE SMOOTH",
"59 192 LINE",
"38 192 LINE",
"38 164 LINE SMOOTH",
"38 60 OFFCURVE",
"99 -8 OFFCURVE",
"185 -8 CURVE SMOOTH"
);
}
);
width = 373;
}
);
leftKerningGroup = S;
rightKerningGroup = S;
unicode = 0053;
},
{
color = 3;
glyphname = Schwa;
layers = (
{
anchors = (
{
name = top;
position = "{227, 699}";
}
);
layerId = "DCBE1F7B-116A-43E0-B7B4-8657BA77D8B5";
paths = (
{
closed = 1;
nodes = (
"138 708 OFFCURVE",
"65 642 OFFCURVE",
"51 548 CURVE",
"73 549 LINE",
"88 632 OFFCURVE",
"151 687 OFFCURVE",
"233 687 CURVE SMOOTH",
"328 687 OFFCURVE",
"395 614 OFFCURVE",
"395 511 CURVE SMOOTH",
"395 457 OFFCURVE",
"395 403 OFFCURVE",
"395 350 CURVE SMOOTH",
"395 296 OFFCURVE",
"395 241 OFFCURVE",
"395 187 CURVE SMOOTH",
"395 84 OFFCURVE",
"328 10 OFFCURVE",
"233 10 CURVE SMOOTH",
"137 10 OFFCURVE",
"70 84 OFFCURVE",
"70 187 CURVE SMOOTH",
"70 236 OFFCURVE",
"70 333 OFFCURVE",
"70 335 CURVE",
"60 328 LINE",
"404 328 LINE",
"404 350 LINE",
"48 350 LINE",
"48 235 OFFCURVE",
"48 239 OFFCURVE",
"48 187 CURVE SMOOTH",
"48 73 OFFCURVE",
"124 -11 OFFCURVE",
"233 -11 CURVE SMOOTH",
"340 -11 OFFCURVE",
"417 72 OFFCURVE",
"417 187 CURVE SMOOTH",
"417 241 OFFCURVE",
"417 296 OFFCURVE",
"417 350 CURVE SMOOTH",
"417 403 OFFCURVE",
"417 456 OFFCURVE",
"417 510 CURVE SMOOTH",
"417 624 OFFCURVE",
"341 708 OFFCURVE",
"233 708 CURVE SMOOTH"
);
}
);
width = 472;
},
{
anchors = (
{
name = top;
position = "{278, 718}";
}
);
layerId = "4E2227F3-52E4-4048-A8EE-327B486EF0A4";
paths = (
{
closed = 1;
nodes = (
"112 708 OFFCURVE",
"26 626 OFFCURVE",
"20 477 CURVE",
"203 466 LINE",
"207 508 OFFCURVE",
"233 546 OFFCURVE",
"277 546 CURVE SMOOTH",
"319 546 OFFCURVE",
"349 511 OFFCURVE",
"349 461 CURVE SMOOTH",
"349 420 OFFCURVE",
"349 400 OFFCURVE",
"349 359 CURVE SMOOTH",
"349 323 OFFCURVE",
"349 238 OFFCURVE",
"349 236 CURVE SMOOTH",
"349 185 OFFCURVE",
"319 150 OFFCURVE",
"277 150 CURVE SMOOTH",
"234 150 OFFCURVE",
"204 186 OFFCURVE",
"204 236 CURVE SMOOTH",
"204 271 OFFCURVE",
"204 285 OFFCURVE",
"204 315 CURVE",
"141 279 LINE",
"400 279 LINE",
"400 400 LINE",
"17 400 LINE",
"17 375 OFFCURVE",
"17 295 OFFCURVE",
"17 222 CURVE SMOOTH",
"17 84 OFFCURVE",
"113 -11 OFFCURVE",
"277 -11 CURVE SMOOTH",
"440 -11 OFFCURVE",
"537 84 OFFCURVE",
"537 222 CURVE SMOOTH",
"537 261 OFFCURVE",
"537 319 OFFCURVE",
"537 359 CURVE SMOOTH",
"537 404 OFFCURVE",
"537 429 OFFCURVE",
"537 475 CURVE SMOOTH",
"537 619 OFFCURVE",
"440 708 OFFCURVE",
"277 708 CURVE SMOOTH"
);
}
);
width = 556;
},
{
anchors = (
{
name = top;
position = "{289, 603}";
}
);
associatedMasterId = "4E2227F3-52E4-4048-A8EE-327B486EF0A4";
hints = (
{
horizontal = 1;
origin = "{0, 27}";
target = "{0, 26}";
type = Stem;
},
{
origin = "{0, 24}";
target = "{0, 28}";
type = Stem;
},
{
origin = "{0, 40}";
target = "{0, 12}";
type = Stem;
},
{
horizontal = 1;
origin = "{0, 46}";
target = "{0, 6}";
type = Stem;
},
{
horizontal = 1;
origin = "{0, 34}";
target = "{0, 18}";
type = Stem;
}
);
layerId = "2A2B9E74-0281-441B-9A83-648CC11D66AE";
name = "{100,500}";
paths = (
{
closed = 1;
nodes = (
"176 613 OFFCURVE",
"94 563 OFFCURVE",
"54 484 CURVE",
"132 430 LINE",
"159 487 OFFCURVE",
"210 525 OFFCURVE",
"277 526 CURVE SMOOTH",
"361 527 OFFCURVE",
"413 484 OFFCURVE",
"431 421 CURVE SMOOTH",
"440 396 OFFCURVE",
"443 358 OFFCURVE",
"443 302 CURVE SMOOTH",
"443 252 OFFCURVE",
"441 210 OFFCURVE",
"434 183 CURVE SMOOTH",
"418 120 OFFCURVE",
"369 77 OFFCURVE",
"294 77 CURVE SMOOTH",
"218 77 OFFCURVE",
"166 121 OFFCURVE",
"151 186 CURVE SMOOTH",
"145 210 OFFCURVE",
"143 253 OFFCURVE",
"143 295 CURVE",
"104 251 LINE",
"474 251 LINE",
"474 337 LINE",
"43 337 LINE",
"42 274 OFFCURVE",
"42 236 OFFCURVE",
"48 199 CURVE SMOOTH",
"68 75 OFFCURVE",
"154 -10 OFFCURVE",
"295 -10 CURVE SMOOTH",
"413 -10 OFFCURVE",
"500 59 OFFCURVE",
"529 161 CURVE SMOOTH",
"539 199 OFFCURVE",
"542 239 OFFCURVE",
"542 298 CURVE SMOOTH",
"542 360 OFFCURVE",
"538 406 OFFCURVE",
"524 448 CURVE SMOOTH",
"490 549 OFFCURVE",
"406 612 OFFCURVE",
"287 612 CURVE SMOOTH"
);
}
);
width = 590;
},
{
anchors = (
{
name = top;
position = "{250, 708}";
}
);
associatedMasterId = "4E2227F3-52E4-4048-A8EE-327B486EF0A4";
hints = (
{
horizontal = 1;
origin = "{0, 27}";
target = "{0, 26}";
type = Stem;
},
{
origin = "{0, 24}";
target = "{0, 28}";
type = Stem;
},
{
origin = "{0, 40}";
target = "{0, 12}";
type = Stem;
},
{
horizontal = 1;
origin = "{0, 46}";
target = "{0, 6}";
type = Stem;
},
{
horizontal = 1;
origin = "{0, 34}";
target = "{0, 18}";
type = Stem;
}
);
layerId = "08201EB5-B49F-440A-802B-CA47CCD12539";
name = "{100,300}";
paths = (
{
closed = 1;
nodes = (
"125 708 OFFCURVE",
"46 634 OFFCURVE",
"36 515 CURVE",
"141 510 LINE",
"150 574 OFFCURVE",
"189 621 OFFCURVE",
"253 621 CURVE SMOOTH",
"323 621 OFFCURVE",
"373 566 OFFCURVE",
"373 488 CURVE SMOOTH",
"373 440 OFFCURVE",
"373 402 OFFCURVE",
"373 354 CURVE SMOOTH",
"373 309 OFFCURVE",
"373 240 OFFCURVE",
"373 210 CURVE SMOOTH",
"373 131 OFFCURVE",
"323 76 OFFCURVE",
"253 76 CURVE SMOOTH",
"182 76 OFFCURVE",
"132 132 OFFCURVE",
"132 210 CURVE SMOOTH",
"132 252 OFFCURVE",
"132 310 OFFCURVE",
"132 326 CURVE",
"97 291 LINE",
"402 291 LINE",
"402 383 LINE",
"33 383 LINE",
"33 311 OFFCURVE",
"33 265 OFFCURVE",
"33 203 CURVE SMOOTH",
"33 78 OFFCURVE",
"118 -11 OFFCURVE",
"253 -11 CURVE SMOOTH",
"386 -11 OFFCURVE",
"473 78 OFFCURVE",
"473 203 CURVE SMOOTH",
"473 250 OFFCURVE",
"473 307 OFFCURVE",
"473 354 CURVE SMOOTH",
"473 403 OFFCURVE",
"473 443 OFFCURVE",
"473 494 CURVE SMOOTH",
"473 622 OFFCURVE",
"387 708 OFFCURVE",
"253 708 CURVE SMOOTH"
);
}
);
width = 512;
},
{
anchors = (
{
name = top;
position = "{318, 661}";
}
);
associatedMasterId = "4E2227F3-52E4-4048-A8EE-327B486EF0A4";
hints = (
{
horizontal = 1;
origin = "{0, 27}";
target = "{0, 26}";
type = Stem;
},
{
origin = "{0, 24}";
target = "{0, 28}";
type = Stem;
},
{
origin = "{0, 40}";
target = "{0, 12}";
type = Stem;
},
{
horizontal = 1;
origin = "{0, 46}";
target = "{0, 6}";
type = Stem;
},
{
horizontal = 1;
origin = "{0, 34}";
target = "{0, 18}";
type = Stem;
}
);
layerId = "2A2CF652-FDA6-4CD5-BE40-6F49EDC401C9";
name = "{144,500}";
paths = (
{
closed = 1;
nodes = (
"190 672 OFFCURVE",
"99 624 OFFCURVE",
"48 540 CURVE",
"143 455 LINE",
"172 510 OFFCURVE",
"221 547 OFFCURVE",
"297 548 CURVE SMOOTH",
"380 548 OFFCURVE",
"429 511 OFFCURVE",
"450 453 CURVE SMOOTH",
"461 425 OFFCURVE",
"466 387 OFFCURVE",
"466 331 CURVE SMOOTH",
"466 283 OFFCURVE",
"463 240 OFFCURVE",
"454 211 CURVE SMOOTH",
"437 152 OFFCURVE",
"393 114 OFFCURVE",
"324 114 CURVE SMOOTH",
"252 114 OFFCURVE",
"204 154 OFFCURVE",
"188 215 CURVE SMOOTH",
"181 241 OFFCURVE",
"179 284 OFFCURVE",
"179 325 CURVE",
"123 263 LINE",
"509 263 LINE",
"509 385 LINE",
"35 385 LINE",
"33 334 OFFCURVE",
"33 285 OFFCURVE",
"39 242 CURVE SMOOTH",
"61 92 OFFCURVE",
"157 -11 OFFCURVE",
"325 -11 CURVE SMOOTH",
"458 -11 OFFCURVE",
"557 66 OFFCURVE",
"592 183 CURVE SMOOTH",
"604 224 OFFCURVE",
"608 267 OFFCURVE",
"608 326 CURVE SMOOTH",
"608 391 OFFCURVE",
"602 441 OFFCURVE",
"584 489 CURVE SMOOTH",
"542 603 OFFCURVE",
"446 671 OFFCURVE",
"312 671 CURVE SMOOTH"
);
}
);
width = 646;
},
{
anchors = (
{
name = top;
position = "{239, 500}";
}
);
hints = (
{
horizontal = 1;
origin = "{0, 27}";
target = "{0, 26}";
type = Stem;
},
{
origin = "{0, 24}";
target = "{0, 28}";
type = Stem;
},
{
origin = "{0, 40}";
target = "{0, 12}";
type = Stem;
},
{
horizontal = 1;
origin = "{0, 46}";
target = "{0, 6}";
type = Stem;
},
{
horizontal = 1;
origin = "{0, 34}";
target = "{0, 18}";
type = Stem;
}
);
layerId = "262880E7-CFE1-4BDA-902E-E24798F3240A";
paths = (
{
closed = 1;
nodes = (
"151 508 OFFCURVE",
"86 456 OFFCURVE",
"66 384 CURVE",
"88 383 LINE",
"107 444 OFFCURVE",
"163 487 OFFCURVE",
"242 487 CURVE SMOOTH",
"327 487 OFFCURVE",
"384 437 OFFCURVE",
"398 365 CURVE SMOOTH",
"402 344 OFFCURVE",
"402 307 OFFCURVE",
"402 250 CURVE SMOOTH",
"402 198 OFFCURVE",
"402 157 OFFCURVE",
"398 135 CURVE SMOOTH",
"385 64 OFFCURVE",
"327 13 OFFCURVE",
"242 13 CURVE SMOOTH",
"157 13 OFFCURVE",
"99 64 OFFCURVE",
"85 135 CURVE SMOOTH",
"81 155 OFFCURVE",
"80 198 OFFCURVE",
"80 242 CURVE",
"71 233 LINE",
"412 233 LINE",
"412 253 LINE",
"58 253 LINE",
"58 167 OFFCURVE",
"58 150 OFFCURVE",
"64 123 CURVE SMOOTH",
"81 46 OFFCURVE",
"149 -8 OFFCURVE",
"242 -8 CURVE SMOOTH",
"334 -8 OFFCURVE",
"399 46 OFFCURVE",
"417 123 CURVE SMOOTH",
"424 155 OFFCURVE",
"424 190 OFFCURVE",
"424 249 CURVE SMOOTH",
"424 305 OFFCURVE",
"425 344 OFFCURVE",
"417 377 CURVE SMOOTH",
"398 454 OFFCURVE",
"334 508 OFFCURVE",
"242 508 CURVE SMOOTH"
);
}
);
width = 491;
},
{
anchors = (
{
name = top;
position = "{346, 719}";
}
);
guideLines = (
{
position = "{796, 79}";
},
{
position = "{1454, 267}";
},
{
position = "{1196, 193}";
},
{
position = "{1584, 306}";
},
{
position = "{913, 113}";
}
);
layerId = "FFFA8D72-12AC-4CE0-B2CA-57A29829F4DA";
paths = (
{
closed = 1;
nodes = (
"204 731 OFFCURVE",
"103 684 OFFCURVE",
"41 596 CURVE",
"163 480 LINE",
"195 534 OFFCURVE",
"242 568 OFFCURVE",
"316 569 CURVE SMOOTH",
"399 570 OFFCURVE",
"445 538 OFFCURVE",
"468 485 CURVE SMOOTH",
"482 454 OFFCURVE",
"488 416 OFFCURVE",
"488 360 CURVE SMOOTH",
"488 313 OFFCURVE",
"484 269 OFFCURVE",
"474 238 CURVE SMOOTH",
"456 183 OFFCURVE",
"416 150 OFFCURVE",
"353 150 CURVE SMOOTH",
"286 150 OFFCURVE",
"241 186 OFFCURVE",
"225 243 CURVE SMOOTH",
"217 271 OFFCURVE",
"214 315 OFFCURVE",
"214 354 CURVE",
"142 293 LINE",
"543 293 LINE",
"543 420 LINE",
"26 420 LINE",
"24 382 OFFCURVE",
"23 333 OFFCURVE",
"30 284 CURVE SMOOTH",
"54 108 OFFCURVE",
"160 -12 OFFCURVE",
"354 -12 CURVE SMOOTH",
"502 -12 OFFCURVE",
"613 73 OFFCURVE",
"655 204 CURVE SMOOTH",
"669 248 OFFCURVE",
"674 295 OFFCURVE",
"674 354 CURVE SMOOTH",
"674 422 OFFCURVE",
"665 475 OFFCURVE",
"644 529 CURVE SMOOTH",
"594 657 OFFCURVE",
"486 729 OFFCURVE",
"337 730 CURVE SMOOTH"
);
}
);
width = 701;
},
{
anchors = (
{
name = top;
position = "{271, 716}";
}
);
associatedMasterId = "4E2227F3-52E4-4048-A8EE-327B486EF0A4";
hints = (
{
horizontal = 1;
origin = "{0, 27}";
target = "{0, 26}";
type = Stem;
},
{
origin = "{0, 24}";
target = "{0, 28}";
type = Stem;
},
{
origin = "{0, 40}";
target = "{0, 12}";
type = Stem;
},
{
horizontal = 1;
origin = "{0, 46}";
target = "{0, 6}";
type = Stem;
},
{
horizontal = 1;
origin = "{0, 34}";
target = "{0, 18}";
type = Stem;
}
);
layerId = "6A71C6C0-6498-4E03-A0EC-57F8322562B8";
name = "{166,300}";
paths = (
{
closed = 1;
nodes = (
"115 708 OFFCURVE",
"31 628 OFFCURVE",
"24 487 CURVE",
"186 477 LINE",
"191 525 OFFCURVE",
"222 565 OFFCURVE",
"271 565 CURVE SMOOTH",
"320 565 OFFCURVE",
"355 525 OFFCURVE",
"355 468 CURVE SMOOTH",
"355 425 OFFCURVE",
"355 408 OFFCURVE",
"355 358 CURVE SMOOTH",
"355 320 OFFCURVE",
"355 239 OFFCURVE",
"355 230 CURVE SMOOTH",
"355 172 OFFCURVE",
"320 132 OFFCURVE",
"271 132 CURVE SMOOTH",
"221 132 OFFCURVE",
"186 173 OFFCURVE",
"186 230 CURVE SMOOTH",
"186 266 OFFCURVE",
"186 291 OFFCURVE",
"186 318 CURVE",
"130 276 LINE",
"401 276 LINE",
"401 403 LINE",
"21 403 LINE",
"21 366 OFFCURVE",
"21 288 OFFCURVE",
"21 217 CURVE SMOOTH",
"21 83 OFFCURVE",
"114 -11 OFFCURVE",
"271 -11 CURVE SMOOTH",
"427 -11 OFFCURVE",
"521 83 OFFCURVE",
"521 217 CURVE SMOOTH",
"521 258 OFFCURVE",
"521 316 OFFCURVE",
"521 358 CURVE SMOOTH",
"521 404 OFFCURVE",
"521 433 OFFCURVE",
"521 480 CURVE SMOOTH",
"521 620 OFFCURVE",
"427 708 OFFCURVE",
"271 708 CURVE SMOOTH"
);
}
);
width = 545;
},
{
anchors = (
{
name = top;
position = "{313, 719}";
}
);
associatedMasterId = "262880E7-CFE1-4BDA-902E-E24798F3240A";
hints = (
{
horizontal = 1;
origin = "{0, 27}";
target = "{0, 26}";
type = Stem;
},
{
origin = "{0, 24}";
target = "{0, 28}";
type = Stem;
},
{
origin = "{0, 40}";
target = "{0, 12}";
type = Stem;
},
{
horizontal = 1;
origin = "{0, 46}";
target = "{0, 6}";
type = Stem;
},
{
horizontal = 1;
origin = "{0, 34}";
target = "{0, 18}";
type = Stem;
}
);
layerId = "77539BFB-0A83-4960-9558-E507C43AA1DE";
name = "{188,400}";
paths = (
{
closed = 1;
nodes = (
"159 708 OFFCURVE",
"65 644 OFFCURVE",
"31 526 CURVE",
"184 462 LINE",
"202 510 OFFCURVE",
"238 546 OFFCURVE",
"297 547 CURVE SMOOTH",
"360 548 OFFCURVE",
"397 514 OFFCURVE",
"409 462 CURVE SMOOTH",
"417 426 OFFCURVE",
"419 408 OFFCURVE",
"419 360 CURVE SMOOTH",
"419 318 OFFCURVE",
"417 254 OFFCURVE",
"412 237 CURVE SMOOTH",
"403 184 OFFCURVE",
"368 150 OFFCURVE",
"316 150 CURVE SMOOTH",
"261 150 OFFCURVE",
"223 186 OFFCURVE",
"215 240 CURVE SMOOTH",
"211 271 OFFCURVE",
"210 310 OFFCURVE",
"210 345 CURVE",
"142 296 LINE",
"472 296 LINE",
"472 420 LINE",
"22 420 LINE",
"20 360 OFFCURVE",
"21 306 OFFCURVE",
"27 257 CURVE SMOOTH",
"46 89 OFFCURVE",
"121 -12 OFFCURVE",
"316 -12 CURVE SMOOTH",
"487 -12 OFFCURVE",
"567 72 OFFCURVE",
"595 218 CURVE SMOOTH",
"603 259 OFFCURVE",
"606 306 OFFCURVE",
"606 357 CURVE SMOOTH",
"606 405 OFFCURVE",
"601 449 OFFCURVE",
"592 488 CURVE SMOOTH",
"559 627 OFFCURVE",
"466 708 OFFCURVE",
"308 708 CURVE SMOOTH"
);
}
);
width = 629;
}
);
leftKerningGroup = o;
rightKerningGroup = e;
unicode = 018F;
},
{
glyphname = T;
layers = (
{
anchors = (
{
name = bottom;
position = "{248, 0}";
},
{
name = top;
position = "{243, 700}";
}
);
hints = (
{
horizontal = 1;
origin = "{1, 2}";
target = "{1, 3}";
type = Stem;
},
{
origin = "{0, 3}";
target = "{0, 0}";
type = Stem;
}
);
layerId = "262880E7-CFE1-4BDA-902E-E24798F3240A";
paths = (
{
closed = 1;
nodes = (
"254 0 LINE",
"254 689 LINE",
"232 689 LINE",
"232 0 LINE"
);
},
{
closed = 1;
nodes = (
"473 679 LINE",
"473 700 LINE",
"23 700 LINE",
"23 679 LINE"
);
}
);
width = 496;
},
{
anchors = (
{
name = bottom;
position = "{233, 0}";
},
{
name = top;
position = "{242, 700}";
}
);
layerId = "4E2227F3-52E4-4048-A8EE-327B486EF0A4";
paths = (
{
closed = 1;
nodes = (
"332 0 LINE",
"332 689 LINE",
"144 689 LINE",
"144 0 LINE"
);
},
{
closed = 1;
nodes = (
"471 539 LINE",
"471 700 LINE",
"8 700 LINE",
"8 539 LINE"
);
}
);
width = 479;
},
{
anchors = (
{
name = bottom;
position = "{292, 0}";
},
{
name = top;
position = "{293, 700}";
}
);
layerId = "FFFA8D72-12AC-4CE0-B2CA-57A29829F4DA";
paths = (
{
closed = 1;
nodes = (
"387 0 LINE",
"387 689 LINE",
"199 689 LINE",
"199 0 LINE"
);
},
{
closed = 1;
nodes = (
"575 538 LINE",
"575 700 LINE",
"16 700 LINE",
"16 538 LINE"
);
}
);
width = 591;
},
{
anchors = (
{
name = bottom;
position = "{171, -4}";
},
{
name = top;
position = "{168, 700}";
}
);
layerId = "DCBE1F7B-116A-43E0-B7B4-8657BA77D8B5";
paths = (
{
closed = 1;
nodes = (
"178 0 LINE",
"178 689 LINE",
"156 689 LINE",
"156 0 LINE"
);
},
{
closed = 1;
nodes = (
"327 679 LINE",
"327 700 LINE",
"16 700 LINE",
"16 679 LINE"
);
}
);
width = 343;
}
);
leftKerningGroup = T;
rightKerningGroup = T;
unicode = 0054;
},
{
glyphname = U;
layers = (
{
anchors = (
{
name = bottom;
position = "{319, 0}";
},
{
name = ogonek;
position = "{582, 10}";
},
{
name = top;
position = "{317, 700}";
},
{
name = topright;
position = "{628, 700}";
}
);
hints = (
{
origin = "{0, 5}";
target = "{0, 2}";
type = Stem;
},
{
origin = "{0, 14}";
target = "{0, 11}";
type = Stem;
},
{
horizontal = 1;
origin = "{0, 17}";
target = "{0, 8}";
type = Stem;
}
);
layerId = "262880E7-CFE1-4BDA-902E-E24798F3240A";
paths = (
{
closed = 1;
nodes = (
"451 -8 OFFCURVE",
"540 77 OFFCURVE",
"540 205 CURVE SMOOTH",
"540 700 LINE",
"518 700 LINE",
"518 202 LINE SMOOTH",
"518 89 OFFCURVE",
"438 13 OFFCURVE",
"317 13 CURVE SMOOTH",
"197 13 OFFCURVE",
"117 89 OFFCURVE",
"117 202 CURVE SMOOTH",
"117 700 LINE",
"95 700 LINE",
"95 205 LINE SMOOTH",
"95 77 OFFCURVE",
"184 -8 OFFCURVE",
"317 -8 CURVE SMOOTH"
);
}
);
width = 635;
},
{
anchors = (
{
name = bottom;
position = "{244, 0}";
},
{
name = ogonek;
position = "{436, 10}";
},
{
name = top;
position = "{244, 700}";
},
{
name = topright;
position = "{464, 700}";
}
);
layerId = "4E2227F3-52E4-4048-A8EE-327B486EF0A4";
paths = (
{
closed = 1;
nodes = (
"374 -8 OFFCURVE",
"460 78 OFFCURVE",
"460 208 CURVE SMOOTH",
"460 700 LINE",
"272 700 LINE",
"272 190 LINE SMOOTH",
"272 168 OFFCURVE",
"261 153 OFFCURVE",
"244 153 CURVE SMOOTH",
"226 153 OFFCURVE",
"215 168 OFFCURVE",
"215 190 CURVE SMOOTH",
"215 700 LINE",
"27 700 LINE",
"27 208 LINE SMOOTH",
"27 78 OFFCURVE",
"113 -8 OFFCURVE",
"244 -8 CURVE SMOOTH"
);
}
);
width = 487;
},
{
anchors = (
{
name = bottom;
position = "{321, 0}";
},
{
name = ogonek;
position = "{566, 10}";
},
{
name = top;
position = "{320, 700}";
},
{
name = topright;
position = "{608, 700}";
}
);
layerId = "FFFA8D72-12AC-4CE0-B2CA-57A29829F4DA";
paths = (
{
closed = 1;
nodes = (
"484 -8 OFFCURVE",
"593 92 OFFCURVE",
"593 243 CURVE SMOOTH",
"593 700 LINE",
"405 700 LINE",
"405 243 LINE SMOOTH",
"405 189 OFFCURVE",
"371 153 OFFCURVE",
"320 153 CURVE SMOOTH",
"268 153 OFFCURVE",
"234 189 OFFCURVE",
"234 243 CURVE SMOOTH",
"234 700 LINE",
"46 700 LINE",
"46 243 LINE SMOOTH",
"46 92 OFFCURVE",
"156 -8 OFFCURVE",
"320 -8 CURVE SMOOTH"
);
}
);
width = 639;
},
{
anchors = (
{
name = bottom;
position = "{219, 0}";
},
{
name = ogonek;
position = "{408, 10}";
},
{
name = top;
position = "{217, 700}";
},
{
name = topright;
position = "{402, 700}";
}
);
layerId = "DCBE1F7B-116A-43E0-B7B4-8657BA77D8B5";
paths = (
{
closed = 1;
nodes = (
"309 -8 OFFCURVE",
"371 65 OFFCURVE",
"371 175 CURVE SMOOTH",
"371 700 LINE",
"349 700 LINE",
"349 172 LINE SMOOTH",
"349 77 OFFCURVE",
"296 13 OFFCURVE",
"217 13 CURVE SMOOTH",
"139 13 OFFCURVE",
"87 77 OFFCURVE",
"87 172 CURVE SMOOTH",
"87 700 LINE",
"65 700 LINE",
"65 175 LINE SMOOTH",
"65 65 OFFCURVE",
"126 -8 OFFCURVE",
"217 -8 CURVE SMOOTH"
);
}
);
width = 436;
}
);
leftKerningGroup = U;
rightKerningGroup = U;
unicode = 0055;
},
{
glyphname = V;
layers = (
{
hints = (
{
origin = "{0, 7}";
target = "{0, 0}";
type = Stem;
},
{
origin = "{0, 6}";
target = "{0, 5}";
type = Stem;
},
{
origin = "{0, 2}";
target = "{0, 1}";
type = Stem;
}
);
layerId = "262880E7-CFE1-4BDA-902E-E24798F3240A";
paths = (
{
closed = 1;
nodes = (
"286 0 LINE",
"520 700 LINE",
"499 700 LINE",
"272 24 LINE",
"278 24 LINE",
"53 700 LINE",
"31 700 LINE",
"264 0 LINE"
);
}
);
width = 551;
},
{
layerId = "4E2227F3-52E4-4048-A8EE-327B486EF0A4";
paths = (
{
closed = 1;
nodes = (
"348 0 LINE",
"496 700 LINE",
"298 700 LINE",
"244 233 LINE",
"261 233 LINE",
"202 700 LINE",
"-1 700 LINE",
"145 0 LINE"
);
}
);
width = 494;
},
{
layerId = "FFFA8D72-12AC-4CE0-B2CA-57A29829F4DA";
paths = (
{
closed = 1;
nodes = (
"403 0 LINE",
"611 700 LINE",
"413 700 LINE",
"294 181 LINE",
"327 181 LINE",
"204 700 LINE",
"2 700 LINE",
"208 0 LINE"
);
}
);
width = 612;
},
{
layerId = "DCBE1F7B-116A-43E0-B7B4-8657BA77D8B5";
paths = (
{
closed = 1;
nodes = (
"195 0 LINE",
"344 700 LINE",
"322 700 LINE",
"182 33 LINE",
"186 33 LINE",
"46 700 LINE",
"23 700 LINE",
"173 0 LINE"
);
}
);
width = 368;
}
);
leftKerningGroup = V;
rightKerningGroup = V;
unicode = 0056;
},
{
color = 3;
glyphname = W;
layers = (
{
anchors = (
{
name = top;
position = "{443, 700}";
}
);
hints = (
{
origin = "{0, 14}";
target = "{0, 13}";
type = Stem;
},
{
origin = "{0, 15}";
target = "{0, 0}";
type = Stem;
},
{
origin = "{0, 10}";
target = "{0, 9}";
type = Stem;
},
{
origin = "{0, 3}";
target = "{0, 4}";
type = Stem;
},
{
origin = "{0, 6}";
target = "{0, 5}";
type = Stem;
}
);
layerId = "262880E7-CFE1-4BDA-902E-E24798F3240A";
paths = (
{
closed = 1;
nodes = (
"261 0 LINE",
"444 675 LINE",
"440 675 LINE",
"623 0 LINE",
"645 0 LINE",
"856 700 LINE",
"834 700 LINE",
"632 31 LINE",
"638 31 LINE",
"452 700 LINE",
"430 700 LINE",
"249 31 LINE",
"254 31 LINE",
"55 700 LINE",
"33 700 LINE",
"239 0 LINE"
);
}
);
width = 886;
},
{
anchors = (
{
name = top;
position = "{339, 700}";
}
);
layerId = "4E2227F3-52E4-4048-A8EE-327B486EF0A4";
paths = (
{
closed = 1;
nodes = (
"305 0 LINE",
"352 434 LINE",
"334 434 LINE",
"392 0 LINE",
"558 0 LINE",
"692 700 LINE",
"502 700 LINE",
"462 281 LINE",
"479 281 LINE",
"421 700 LINE",
"271 700 LINE",
"220 281 LINE",
"237 281 LINE",
"190 700 LINE",
"-4 700 LINE",
"138 0 LINE"
);
}
);
width = 692;
},
{
anchors = (
{
name = top;
position = "{453, 700}";
}
);
hints = (
{
place = "{-23.609, 0}";
type = Stem;
}
);
layerId = "FFFA8D72-12AC-4CE0-B2CA-57A29829F4DA";
paths = (
{
closed = 1;
nodes = (
"385 0 LINE",
"470 443 LINE",
"434 443 LINE",
"531 0 LINE",
"718 0 LINE",
"903 700 LINE",
"702 700 LINE",
"605 277 LINE",
"637 277 LINE",
"540 700 LINE",
"367 700 LINE",
"279 277 LINE",
"312 278 LINE",
"203 700 LINE",
"2 700 LINE",
"209 0 LINE"
);
}
);
width = 906;
},
{
anchors = (
{
name = top;
position = "{281, 700}";
}
);
layerId = "DCBE1F7B-116A-43E0-B7B4-8657BA77D8B5";
paths = (
{
closed = 1;
nodes = (
"177 0 LINE",
"282 665 LINE",
"280 665 LINE",
"384 0 LINE",
"407 0 LINE",
"533 700 LINE",
"509 700 LINE",
"395 31 LINE",
"398 31 LINE",
"292 700 LINE",
"269 700 LINE",
"166 31 LINE",
"169 31 LINE",
"45 700 LINE",
"22 700 LINE",
"155 0 LINE"
);
}
);
width = 559;
},
{
anchors = (
{
name = top;
position = "{326, 700}";
}
);
associatedMasterId = "4E2227F3-52E4-4048-A8EE-327B486EF0A4";
layerId = "D22352A1-5D91-4C5D-8547-45DDB8692B1B";
name = "{150,300}";
paths = (
{
closed = 1;
nodes = (
"280 0 LINE",
"340 426 LINE",
"327 425 LINE",
"395 0 LINE",
"533 0 LINE",
"665 700 LINE",
"514 700 LINE",
"456 286 LINE",
"469 287 LINE",
"401 700 LINE",
"270 700 LINE",
"208 286 LINE",
"222 287 LINE",
"157 700 LINE",
"2 700 LINE",
"142 0 LINE"
);
}
);
width = 671;
},
{
anchors = (
{
name = top;
position = "{427, 700}";
}
);
associatedMasterId = "4E2227F3-52E4-4048-A8EE-327B486EF0A4";
hints = (
{
origin = "{0, 14}";
target = "{0, 13}";
type = Stem;
},
{
origin = "{0, 15}";
target = "{0, 0}";
type = Stem;
},
{
origin = "{0, 10}";
target = "{0, 9}";
type = Stem;
},
{
origin = "{0, 3}";
target = "{0, 4}";
type = Stem;
},
{
origin = "{0, 6}";
target = "{0, 5}";
type = Stem;
}
);
layerId = "57C718F0-B010-4458-8453-AE0C9B5C9C77";
name = "{150,500}";
paths = (
{
closed = 1;
nodes = (
"333 0 LINE",
"436 484 LINE",
"417 484 LINE",
"529 0 LINE",
"678 0 LINE",
"845 700 LINE",
"693 700 LINE",
"595 243 LINE",
"615 243 LINE",
"504 700 LINE",
"352 700 LINE",
"251 243 LINE",
"271 243 LINE",
"168 700 LINE",
"9 700 LINE",
"192 0 LINE"
);
}
);
width = 854;
}
);
leftKerningGroup = V;
rightKerningGroup = V;
unicode = 0057;
},
{
glyphname = X;
layers = (
{
hints = (
{
origin = "{0, 11}";
target = "{0, 0}";
type = Stem;
},
{
origin = "{0, 2}";
target = "{0, 3}";
type = Stem;
}
);
layerId = "262880E7-CFE1-4BDA-902E-E24798F3240A";
paths = (
{
closed = 1;
nodes = (
"55 0 LINE",
"272 332 LINE",
"488 0 LINE",
"513 0 LINE",
"282 349 LINE",
"513 700 LINE",
"488 700 LINE",
"272 367 LINE",
"55 700 LINE",
"30 700 LINE",
"261 350 LINE",
"30 0 LINE"
);
}
);
width = 543;
},
{
layerId = "4E2227F3-52E4-4048-A8EE-327B486EF0A4";
paths = (
{
closed = 1;
nodes = (
"182 0 LINE",
"231 162 LINE",
"280 0 LINE",
"470 0 LINE",
"330 350 LINE",
"470 700 LINE",
"279 700 LINE",
"231 537 LINE",
"183 700 LINE",
"-9 700 LINE",
"131 350 LINE",
"-9 0 LINE"
);
}
);
width = 461;
},
{
layerId = "FFFA8D72-12AC-4CE0-B2CA-57A29829F4DA";
paths = (
{
closed = 1;
nodes = (
"200 0 LINE",
"308 206 LINE",
"416 0 LINE",
"619 0 LINE",
"426 350 LINE",
"619 700 LINE",
"415 700 LINE",
"308 493 LINE",
"201 700 LINE",
"-4 700 LINE",
"190 350 LINE",
"-4 0 LINE"
);
}
);
width = 615;
},
{
layerId = "DCBE1F7B-116A-43E0-B7B4-8657BA77D8B5";
paths = (
{
closed = 1;
nodes = (
"46 0 LINE",
"182 330 LINE",
"317 0 LINE",
"342 0 LINE",
"192 349 LINE",
"342 700 LINE",
"317 700 LINE",
"182 369 LINE",
"46 700 LINE",
"21 700 LINE",
"170 350 LINE",
"21 0 LINE"
);
}
);
width = 363;
}
);
leftKerningGroup = X;
rightKerningGroup = X;
unicode = 0058;
},
{
glyphname = Y;
layers = (
{
anchors = (
{
name = bottom;
position = "{261, 0}";
},
{
name = top;
position = "{261, 699}";
},
{
name = topleft;
position = "{15, 700}";
}
);
hints = (
{
origin = "{0, 8}";
target = "{0, 0}";
type = Stem;
}
);
layerId = "262880E7-CFE1-4BDA-902E-E24798F3240A";
paths = (
{
closed = 1;
nodes = (
"272 0 LINE",
"272 339 LINE",
"489 700 LINE",
"467 700 LINE",
"261 358 LINE",
"55 700 LINE",
"33 700 LINE",
"250 339 LINE",
"250 0 LINE"
);
}
);
width = 522;
},
{
anchors = (
{
name = bottom;
position = "{243, 0}";
},
{
name = top;
position = "{243, 700}";
},
{
name = topleft;
position = "{9, 700}";
}
);
layerId = "4E2227F3-52E4-4048-A8EE-327B486EF0A4";
paths = (
{
closed = 1;
nodes = (
"336 2 LINE",
"336 251 LINE",
"485 700 LINE",
"287 700 LINE",
"243 471 LINE",
"199 700 LINE",
"1 700 LINE",
"148 251 LINE",
"148 2 LINE"
);
}
);
width = 484;
},
{
anchors = (
{
name = bottom;
position = "{311, 0}";
},
{
name = top;
position = "{310, 700}";
},
{
name = topleft;
position = "{5, 700}";
}
);
layerId = "FFFA8D72-12AC-4CE0-B2CA-57A29829F4DA";
paths = (
{
closed = 1;
nodes = (
"403 2 LINE",
"403 241 LINE",
"618 700 LINE",
"413 700 LINE",
"310 441 LINE",
"207 700 LINE",
"3 700 LINE",
"216 241 LINE",
"216 2 LINE"
);
}
);
width = 620;
},
{
anchors = (
{
name = bottom;
position = "{176, 0}";
},
{
name = top;
position = "{176, 700}";
},
{
name = topleft;
position = "{1, 700}";
}
);
layerId = "DCBE1F7B-116A-43E0-B7B4-8657BA77D8B5";
paths = (
{
closed = 1;
nodes = (
"187 0 LINE",
"187 339 LINE",
"328 700 LINE",
"305 700 LINE",
"176 358 LINE",
"46 700 LINE",
"23 700 LINE",
"165 339 LINE",
"165 0 LINE"
);
}
);
width = 352;
}
);
leftKerningGroup = Y;
rightKerningGroup = Y;
unicode = 0059;
},
{
glyphname = Z;
layers = (
{
anchors = (
{
name = top;
position = "{251, 700}";
}
);
hints = (
{
horizontal = 1;
origin = "{0, 5}";
target = "{0, 9}";
type = Stem;
},
{
horizontal = 1;
origin = "{0, 0}";
target = "{0, 9}";
type = Stem;
}
);
layerId = "262880E7-CFE1-4BDA-902E-E24798F3240A";
paths = (
{
closed = 1;
nodes = (
"470 0 LINE",
"470 21 LINE",
"69 21 LINE",
"470 679 LINE",
"470 700 LINE",
"44 700 LINE",
"44 679 LINE",
"446 679 LINE",
"44 21 LINE",
"44 0 LINE"
);
}
);
width = 514;
},
{
anchors = (
{
name = top;
position = "{213, 700}";
}
);
layerId = "4E2227F3-52E4-4048-A8EE-327B486EF0A4";
paths = (
{
closed = 1;
nodes = (
"413 0 LINE",
"413 161 LINE",
"211 161 LINE",
"413 539 LINE",
"413 700 LINE",
"15 700 LINE",
"15 539 LINE",
"215 539 LINE",
"15 161 LINE",
"15 0 LINE"
);
}
);
width = 427;
},
{
anchors = (
{
name = top;
position = "{291, 700}";
}
);
layerId = "FFFA8D72-12AC-4CE0-B2CA-57A29829F4DA";
paths = (
{
closed = 1;
nodes = (
"542 0 LINE",
"542 161 LINE",
"237 161 LINE",
"542 530 LINE",
"542 700 LINE",
"31 700 LINE",
"31 539 LINE",
"334 539 LINE",
"31 170 LINE",
"31 0 LINE"
);
}
);
width = 573;
},
{
anchors = (
{
name = top;
position = "{178, 700}";
}
);
layerId = "DCBE1F7B-116A-43E0-B7B4-8657BA77D8B5";
paths = (
{
closed = 1;
nodes = (
"321 0 LINE",
"321 21 LINE",
"54 21 LINE",
"321 679 LINE",
"321 700 LINE",
"29 700 LINE",
"29 679 LINE",
"297 679 LINE",
"29 21 LINE",
"29 0 LINE"
);
}
);
width = 350;
}
);
leftKerningGroup = Z;
rightKerningGroup = Z;
unicode = 005A;
},
{
color = 3;
glyphname = a;
layers = (
{
anchors = (
{
name = bottom;
position = "{179, 0}";
},
{
name = ogonek;
position = "{334, 0}";
},
{
name = top;
position = "{179, 500}";
}
);
layerId = "DCBE1F7B-116A-43E0-B7B4-8657BA77D8B5";
paths = (
{
closed = 1;
nodes = (
"310 0 LINE",
"310 342 LINE SMOOTH",
"310 442 OFFCURVE",
"266 508 OFFCURVE",
"180 508 CURVE SMOOTH",
"111 508 OFFCURVE",
"50 461 OFFCURVE",
"47 388 CURVE",
"70 385 LINE",
"70 446 OFFCURVE",
"122 487 OFFCURVE",
"179 487 CURVE SMOOTH",
"251 487 OFFCURVE",
"288 430 OFFCURVE",
"288 345 CURVE SMOOTH",
"288 0 LINE"
);
},
{
closed = 1;
nodes = (
"234 -8 OFFCURVE",
"303 37 OFFCURVE",
"303 142 CURVE",
"303 283 LINE",
"191 283 LINE SMOOTH",
"102 283 OFFCURVE",
"37 236 OFFCURVE",
"37 126 CURVE SMOOTH",
"37 18 OFFCURVE",
"101 -8 OFFCURVE",
"158 -8 CURVE SMOOTH"
);
},
{
closed = 1;
nodes = (
"104 13 OFFCURVE",
"59 45 OFFCURVE",
"59 127 CURVE SMOOTH",
"59 219 OFFCURVE",
"115 262 OFFCURVE",
"193 262 CURVE SMOOTH",
"288 262 LINE",
"288 142 LINE SMOOTH",
"288 52 OFFCURVE",
"224 13 OFFCURVE",
"161 13 CURVE SMOOTH"
);
}
);
width = 368;
},
{
anchors = (
{
name = bottom;
position = "{230, 0}";
},
{
name = ogonek;
position = "{378, 0}";
},
{
name = top;
position = "{230, 520}";
}
);
layerId = "4E2227F3-52E4-4048-A8EE-327B486EF0A4";
paths = (
{
closed = 1;
nodes = (
"445 0 LINE",
"445 360 LINE SMOOTH",
"445 461 OFFCURVE",
"358 528 OFFCURVE",
"228 528 CURVE SMOOTH",
"101 528 OFFCURVE",
"13 457 OFFCURVE",
"13 337 CURVE",
"202 335 LINE",
"202 355 OFFCURVE",
"213 367 OFFCURVE",
"228 367 CURVE SMOOTH",
"245 367 OFFCURVE",
"257 355 OFFCURVE",
"257 337 CURVE SMOOTH",
"257 0 LINE"
);
},
{
closed = 1;
nodes = (
"259 -6 OFFCURVE",
"286 75 OFFCURVE",
"286 213 CURVE SMOOTH",
"286 309 LINE",
"217 309 LINE SMOOTH",
"91 309 OFFCURVE",
"8 297 OFFCURVE",
"8 151 CURVE SMOOTH",
"8 7 OFFCURVE",
"92 -9 OFFCURVE",
"149 -8 CURVE SMOOTH"
);
},
{
closed = 1;
nodes = (
"212 127 OFFCURVE",
"200 136 OFFCURVE",
"200 155 CURVE SMOOTH",
"200 172 OFFCURVE",
"212 187 OFFCURVE",
"231 187 CURVE SMOOTH",
"257 187 LINE",
"257 154 LINE SMOOTH",
"257 137 OFFCURVE",
"239 127 OFFCURVE",
"225 127 CURVE SMOOTH"
);
}
);
width = 464;
},
{
anchors = (
{
name = bottom;
position = "{240, 0}";
},
{
name = ogonek;
position = "{395, 0}";
},
{
name = top;
position = "{240, 500}";
}
);
hints = (
{
horizontal = 1;
origin = "{2, 5}";
target = "{1, 4}";
type = Stem;
},
{
horizontal = 1;
origin = "{1, 10}";
target = "{2, 10}";
type = Stem;
},
{
origin = "{1, 7}";
target = "{2, 2}";
type = Stem;
},
{
origin = "{0, 15}";
target = "{0, 0}";
type = Stem;
},
{
horizontal = 1;
origin = "{0, 4}";
target = "{0, 11}";
type = Stem;
}
);
layerId = "262880E7-CFE1-4BDA-902E-E24798F3240A";
paths = (
{
closed = 1;
nodes = (
"408 0 LINE",
"408 342 LINE SMOOTH",
"408 442 OFFCURVE",
"359 508 OFFCURVE",
"243 508 CURVE SMOOTH",
"149 508 OFFCURVE",
"84 462 OFFCURVE",
"74 392 CURVE",
"96 388 LINE",
"103 449 OFFCURVE",
"159 487 OFFCURVE",
"240 487 CURVE SMOOTH",
"346 487 OFFCURVE",
"386 425 OFFCURVE",
"386 345 CURVE SMOOTH",
"386 0 LINE"
);
},
{
closed = 1;
nodes = (
"307 -8 OFFCURVE",
"403 37 OFFCURVE",
"403 142 CURVE SMOOTH",
"403 282 LINE",
"256 282 LINE SMOOTH",
"129 282 OFFCURVE",
"51 224 OFFCURVE",
"51 128 CURVE SMOOTH",
"51 26 OFFCURVE",
"135 -8 OFFCURVE",
"213 -8 CURVE SMOOTH"
);
},
{
closed = 1;
nodes = (
"135 13 OFFCURVE",
"73 49 OFFCURVE",
"73 129 CURVE SMOOTH",
"73 213 OFFCURVE",
"148 261 OFFCURVE",
"253 261 CURVE SMOOTH",
"386 261 LINE",
"386 142 LINE SMOOTH",
"386 52 OFFCURVE",
"296 13 OFFCURVE",
"212 13 CURVE SMOOTH"
);
}
);
width = 494;
},
{
anchors = (
{
name = bottom;
position = "{277, 0}";
},
{
name = ogonek;
position = "{445, 0}";
},
{
name = top;
position = "{277, 520}";
}
);
layerId = "FFFA8D72-12AC-4CE0-B2CA-57A29829F4DA";
paths = (
{
closed = 1;
nodes = (
"514 0 LINE",
"514 355 LINE SMOOTH",
"514 451 OFFCURVE",
"405 528 OFFCURVE",
"266 528 CURVE SMOOTH",
"127 528 OFFCURVE",
"26 452 OFFCURVE",
"25 356 CURVE",
"213 332 LINE",
"214 352 OFFCURVE",
"237 367 OFFCURVE",
"269 367 CURVE SMOOTH",
"304 367 OFFCURVE",
"326 348 OFFCURVE",
"326 320 CURVE SMOOTH",
"326 0 LINE"
);
},
{
closed = 1;
nodes = (
"314 -8 OFFCURVE",
"344 56 OFFCURVE",
"344 190 CURVE SMOOTH",
"344 297 LINE",
"228 297 LINE SMOOTH",
"90 297 OFFCURVE",
"19 239 OFFCURVE",
"19 139 CURVE SMOOTH",
"19 41 OFFCURVE",
"88 -8 OFFCURVE",
"195 -8 CURVE SMOOTH"
);
},
{
closed = 1;
nodes = (
"222 122 OFFCURVE",
"208 140 OFFCURVE",
"208 162 CURVE SMOOTH",
"208 190 OFFCURVE",
"230 203 OFFCURVE",
"271 203 CURVE SMOOTH",
"326 203 LINE",
"326 185 LINE SMOOTH",
"326 145 OFFCURVE",
"295 122 OFFCURVE",
"253 122 CURVE SMOOTH"
);
}
);
width = 551;
},
{
anchors = (
{
name = bottom;
position = "{204, 0}";
},
{
name = ogonek;
position = "{355, 0}";
},
{
name = top;
position = "{207, 517}";
}
);
associatedMasterId = "FFFA8D72-12AC-4CE0-B2CA-57A29829F4DA";
background = {
paths = (
{
closed = 1;
nodes = (
"375 0 LINE",
"375 350 LINE SMOOTH",
"375 451 OFFCURVE",
"305 517 OFFCURVE",
"207 517 CURVE SMOOTH",
"112 517 OFFCURVE",
"42 454 OFFCURVE",
"40 362 CURVE",
"146 362 LINE",
"146 403 OFFCURVE",
"170 431 OFFCURVE",
"205 431 CURVE SMOOTH",
"245 431 OFFCURVE",
"275 395 OFFCURVE",
"275 341 CURVE SMOOTH",
"275 0 LINE"
);
},
{
closed = 1;
nodes = (
"253 -8 OFFCURVE",
"311 42 OFFCURVE",
"311 177 CURVE",
"311 309 LINE",
"215 309 LINE SMOOTH",
"110 309 OFFCURVE",
"23 266 OFFCURVE",
"23 141 CURVE SMOOTH",
"23 15 OFFCURVE",
"111 -8 OFFCURVE",
"168 -8 CURVE SMOOTH"
);
},
{
closed = 1;
nodes = (
"154 79 OFFCURVE",
"126 100 OFFCURVE",
"126 149 CURVE SMOOTH",
"126 204 OFFCURVE",
"162 230 OFFCURVE",
"212 230 CURVE SMOOTH",
"275 230 LINE",
"275 161 LINE SMOOTH",
"275 107 OFFCURVE",
"232 79 OFFCURVE",
"190 79 CURVE SMOOTH"
);
}
);
};
layerId = "018758E2-A88A-4CB4-AAF3-687FDBC090D8";
name = "{100,300}";
paths = (
{
closed = 1;
nodes = (
"375 0 LINE",
"375 350 LINE SMOOTH",
"375 451 OFFCURVE",
"305 517 OFFCURVE",
"207 517 CURVE SMOOTH",
"112 517 OFFCURVE",
"42 454 OFFCURVE",
"40 362 CURVE",
"146 362 LINE",
"146 403 OFFCURVE",
"170 431 OFFCURVE",
"205 431 CURVE SMOOTH",
"245 431 OFFCURVE",
"275 395 OFFCURVE",
"275 341 CURVE SMOOTH",
"275 0 LINE"
);
},
{
closed = 1;
nodes = (
"253 -8 OFFCURVE",
"311 42 OFFCURVE",
"311 177 CURVE",
"311 309 LINE",
"215 309 LINE SMOOTH",
"110 309 OFFCURVE",
"23 266 OFFCURVE",
"23 141 CURVE SMOOTH",
"23 15 OFFCURVE",
"111 -8 OFFCURVE",
"168 -8 CURVE SMOOTH"
);
},
{
closed = 1;
nodes = (
"154 79 OFFCURVE",
"126 100 OFFCURVE",
"126 149 CURVE SMOOTH",
"126 204 OFFCURVE",
"162 230 OFFCURVE",
"212 230 CURVE SMOOTH",
"275 230 LINE",
"275 161 LINE SMOOTH",
"275 107 OFFCURVE",
"232 79 OFFCURVE",
"190 79 CURVE SMOOTH"
);
}
);
width = 415;
},
{
anchors = (
{
name = bottom;
position = "{258, 0}";
},
{
name = ogonek;
position = "{419, 0}";
},
{
name = top;
position = "{255, 517}";
}
);
associatedMasterId = "FFFA8D72-12AC-4CE0-B2CA-57A29829F4DA";
layerId = "BAE5EEA3-611C-40EA-B886-6100A765A59D";
name = "{100,500}";
paths = (
{
closed = 1;
nodes = (
"458 0 LINE",
"458 348 LINE SMOOTH",
"458 446 OFFCURVE",
"381 517 OFFCURVE",
"255 517 CURVE SMOOTH",
"139 517 OFFCURVE",
"57 457 OFFCURVE",
"51 375 CURVE",
"157 362 LINE",
"161 404 OFFCURVE",
"196 431 OFFCURVE",
"258 431 CURVE SMOOTH",
"327 431 OFFCURVE",
"358 397 OFFCURVE",
"358 341 CURVE SMOOTH",
"358 0 LINE"
);
},
{
closed = 1;
nodes = (
"326 -8 OFFCURVE",
"402 63 OFFCURVE",
"402 182 CURVE SMOOTH",
"402 311 LINE",
"243 311 LINE SMOOTH",
"111 311 OFFCURVE",
"36 247 OFFCURVE",
"36 144 CURVE SMOOTH",
"36 37 OFFCURVE",
"117 -8 OFFCURVE",
"207 -8 CURVE SMOOTH"
);
},
{
closed = 1;
nodes = (
"177 76 OFFCURVE",
"136 100 OFFCURVE",
"136 149 CURVE SMOOTH",
"136 204 OFFCURVE",
"186 234 OFFCURVE",
"262 234 CURVE SMOOTH",
"358 234 LINE",
"358 174 LINE SMOOTH",
"358 116 OFFCURVE",
"297 76 OFFCURVE",
"229 76 CURVE SMOOTH"
);
}
);
width = 521;
}
);
leftKerningGroup = a;
rightKerningGroup = b;
unicode = 0061;
},
{
color = 3;
glyphname = ae;
layers = (
{
hints = (
{
horizontal = 1;
origin = "{1, 5}";
target = "{0, 43}";
type = Stem;
},
{
horizontal = 1;
origin = "{0, 49}";
target = "{1, 10}";
type = Stem;
},
{
origin = "{0, 46}";
target = "{1, 2}";
type = Stem;
},
{
origin = "{1, 7}";
target = "{0, 15}";
type = Stem;
},
{
horizontal = 1;
origin = "{0, 31}";
target = "{0, 38}";
type = Stem;
},
{
origin = "{0, 34}";
target = "{0, 35}";
type = Stem;
},
{
origin = "{1, 6}";
target = "{0, 18}";
type = Stem;
},
{
origin = "{2, 11}";
target = "{0, 19}";
type = Stem;
},
{
horizontal = 1;
origin = "{0, 19}";
target = "{0, 0}";
type = Stem;
},
{
horizontal = 1;
origin = "{0, 25}";
target = "{2, 5}";
type = Stem;
},
{
horizontal = 1;
origin = "{0, 5}";
target = "{0, 12}";
type = Stem;
},
{
origin = "{0, 9}";
target = "{0, 8}";
type = Stem;
}
);
layerId = "262880E7-CFE1-4BDA-902E-E24798F3240A";
paths = (
{
closed = 1;
nodes = (
"298 -8 OFFCURVE",
"381 26 OFFCURVE",
"401 95 CURVE",
"420 26 OFFCURVE",
"484 -8 OFFCURVE",
"566 -8 CURVE SMOOTH",
"654 -8 OFFCURVE",
"718 44 OFFCURVE",
"737 118 CURVE",
"715 117 LINE",
"697 56 OFFCURVE",
"642 13 OFFCURVE",
"566 13 CURVE SMOOTH",
"484 13 OFFCURVE",
"411 56 OFFCURVE",
"411 142 CURVE",
"411 180 OFFCURVE",
"411 217 OFFCURVE",
"411 255 CURVE",
"745 255 LINE",
"745 341 OFFCURVE",
"745 350 OFFCURVE",
"739 377 CURVE SMOOTH",
"722 454 OFFCURVE",
"656 508 OFFCURVE",
"566 508 CURVE SMOOTH",
"487 508 OFFCURVE",
"428 466 OFFCURVE",
"404 403 CURVE",
"386 468 OFFCURVE",
"337 508 OFFCURVE",
"246 508 CURVE SMOOTH",
"152 508 OFFCURVE",
"87 462 OFFCURVE",
"77 392 CURVE",
"99 388 LINE",
"106 449 OFFCURVE",
"162 487 OFFCURVE",
"243 487 CURVE SMOOTH",
"349 487 OFFCURVE",
"389 425 OFFCURVE",
"389 345 CURVE SMOOTH",
"389 276 LINE",
"259 276 LINE SMOOTH",
"132 276 OFFCURVE",
"54 224 OFFCURVE",
"54 128 CURVE SMOOTH",
"54 26 OFFCURVE",
"138 -8 OFFCURVE",
"216 -8 CURVE SMOOTH"
);
},
{
closed = 1;
nodes = (
"138 13 OFFCURVE",
"76 49 OFFCURVE",
"76 129 CURVE SMOOTH",
"76 213 OFFCURVE",
"151 255 OFFCURVE",
"256 255 CURVE SMOOTH",
"389 255 LINE",
"389 142 LINE",
"389 52 OFFCURVE",
"299 13 OFFCURVE",
"215 13 CURVE SMOOTH"
);
},
{
closed = 1;
nodes = (
"411 316 OFFCURVE",
"412 347 OFFCURVE",
"415 365 CURVE SMOOTH",
"427 436 OFFCURVE",
"484 487 OFFCURVE",
"566 487 CURVE SMOOTH",
"648 487 OFFCURVE",
"706 436 OFFCURVE",
"719 365 CURVE SMOOTH",
"722 348 OFFCURVE",
"723 313 OFFCURVE",
"723 276 CURVE",
"411 276 LINE"
);
}
);
width = 807;
},
{
layerId = "FFFA8D72-12AC-4CE0-B2CA-57A29829F4DA";
paths = (
{
closed = 1;
nodes = (
"327 -8 OFFCURVE",
"400 34 OFFCURVE",
"426 83 CURVE",
"447 34 OFFCURVE",
"517 -8 OFFCURVE",
"609 -8 CURVE SMOOTH",
"690 -8 OFFCURVE",
"759 24 OFFCURVE",
"814 81 CURVE",
"727 187 LINE",
"706 162 OFFCURVE",
"668 149 OFFCURVE",
"620 149 CURVE SMOOTH",
"576 149 OFFCURVE",
"540 160 OFFCURVE",
"527 193 CURVE SMOOTH",
"524 201 OFFCURVE",
"523 206 OFFCURVE",
"523 208 CURVE",
"838 208 LINE",
"838 302 OFFCURVE",
"829 344 OFFCURVE",
"819 372 CURVE SMOOTH",
"784 469 OFFCURVE",
"682 528 OFFCURVE",
"591 528 CURVE SMOOTH",
"514 528 OFFCURVE",
"455 485 OFFCURVE",
"434 450 CURVE",
"405 492 OFFCURVE",
"336 528 OFFCURVE",
"255 528 CURVE SMOOTH",
"138 528 OFFCURVE",
"28 452 OFFCURVE",
"28 356 CURVE",
"216 332 LINE",
"217 352 OFFCURVE",
"240 367 OFFCURVE",
"272 367 CURVE SMOOTH",
"307 367 OFFCURVE",
"329 348 OFFCURVE",
"329 320 CURVE SMOOTH",
"329 305 LINE",
"231 305 LINE SMOOTH",
"92 305 OFFCURVE",
"23 242 OFFCURVE",
"23 150 CURVE SMOOTH",
"23 50 OFFCURVE",
"105 -8 OFFCURVE",
"225 -8 CURVE SMOOTH"
);
},
{
closed = 1;
nodes = (
"224 120 OFFCURVE",
"211 144 OFFCURVE",
"211 164 CURVE SMOOTH",
"211 190 OFFCURVE",
"233 208 OFFCURVE",
"274 208 CURVE SMOOTH",
"329 208 LINE",
"329 184 LINE SMOOTH",
"329 147 OFFCURVE",
"296 120 OFFCURVE",
"259 120 CURVE SMOOTH"
);
},
{
closed = 1;
nodes = (
"522 313 OFFCURVE",
"524 320 OFFCURVE",
"527 327 CURVE",
"536 351 OFFCURVE",
"556 367 OFFCURVE",
"583 367 CURVE SMOOTH",
"611 367 OFFCURVE",
"629 351 OFFCURVE",
"639 327 CURVE SMOOTH",
"642 320 OFFCURVE",
"644 313 OFFCURVE",
"645 305 CURVE",
"521 305 LINE"
);
}
);
width = 859;
},
{
layerId = "DCBE1F7B-116A-43E0-B7B4-8657BA77D8B5";
paths = (
{
closed = 1;
nodes = (
"219 -8 OFFCURVE",
"276 21 OFFCURVE",
"296 87 CURVE",
"312 30 OFFCURVE",
"360 -8 OFFCURVE",
"423 -8 CURVE SMOOTH",
"494 -8 OFFCURVE",
"546 40 OFFCURVE",
"556 109 CURVE",
"534 108 LINE",
"524 51 OFFCURVE",
"481 13 OFFCURVE",
"423 13 CURVE SMOOTH",
"357 13 OFFCURVE",
"311 63 OFFCURVE",
"311 135 CURVE SMOOTH",
"311 175 OFFCURVE",
"311 214 OFFCURVE",
"311 254 CURVE",
"558 254 LINE",
"558 291 OFFCURVE",
"558 328 OFFCURVE",
"558 365 CURVE SMOOTH",
"558 448 OFFCURVE",
"503 508 OFFCURVE",
"423 508 CURVE SMOOTH",
"364 508 OFFCURVE",
"318 474 OFFCURVE",
"299 422 CURVE",
"280 476 OFFCURVE",
"240 508 OFFCURVE",
"180 508 CURVE SMOOTH",
"111 508 OFFCURVE",
"50 461 OFFCURVE",
"47 388 CURVE",
"70 385 LINE",
"70 446 OFFCURVE",
"122 487 OFFCURVE",
"179 487 CURVE SMOOTH",
"251 487 OFFCURVE",
"288 430 OFFCURVE",
"288 345 CURVE SMOOTH",
"288 274 LINE",
"191 274 LINE SMOOTH",
"102 274 OFFCURVE",
"37 236 OFFCURVE",
"37 126 CURVE SMOOTH",
"37 18 OFFCURVE",
"101 -8 OFFCURVE",
"158 -8 CURVE SMOOTH"
);
},
{
closed = 1;
nodes = (
"104 13 OFFCURVE",
"59 45 OFFCURVE",
"59 127 CURVE SMOOTH",
"59 219 OFFCURVE",
"115 253 OFFCURVE",
"193 253 CURVE SMOOTH",
"288 253 LINE",
"288 142 LINE SMOOTH",
"288 52 OFFCURVE",
"224 13 OFFCURVE",
"161 13 CURVE SMOOTH"
);
},
{
closed = 1;
nodes = (
"311 304 OFFCURVE",
"311 334 OFFCURVE",
"311 365 CURVE SMOOTH",
"311 437 OFFCURVE",
"357 487 OFFCURVE",
"423 487 CURVE SMOOTH",
"490 487 OFFCURVE",
"536 437 OFFCURVE",
"536 365 CURVE SMOOTH",
"536 334 OFFCURVE",
"536 304 OFFCURVE",
"536 273 CURVE",
"311 273 LINE"
);
}
);
width = 601;
},
{
layerId = "4E2227F3-52E4-4048-A8EE-327B486EF0A4";
paths = (
{
closed = 1;
nodes = (
"274 -8 OFFCURVE",
"345 22 OFFCURVE",
"351 47 CURVE",
"355 23 OFFCURVE",
"410 -8 OFFCURVE",
"496 -8 CURVE SMOOTH",
"619 -8 OFFCURVE",
"685 55 OFFCURVE",
"688 171 CURVE",
"505 182 LINE",
"505 176 OFFCURVE",
"499 153 OFFCURVE",
"480 153 CURVE SMOOTH",
"466 153 OFFCURVE",
"457 166 OFFCURVE",
"457 185 CURVE SMOOTH",
"457 194 OFFCURVE",
"457 189 OFFCURVE",
"457 198 CURVE",
"690 198 LINE",
"690 244 OFFCURVE",
"690 304 OFFCURVE",
"690 350 CURVE SMOOTH",
"690 456 OFFCURVE",
"611 528 OFFCURVE",
"487 528 CURVE SMOOTH",
"428 528 OFFCURVE",
"384 512 OFFCURVE",
"351 489 CURVE",
"313 514 OFFCURVE",
"277 528 OFFCURVE",
"224 528 CURVE SMOOTH",
"105 528 OFFCURVE",
"14 459 OFFCURVE",
"14 341 CURVE",
"203 337 LINE",
"203 355 OFFCURVE",
"214 367 OFFCURVE",
"230 367 CURVE SMOOTH",
"246 367 OFFCURVE",
"258 355 OFFCURVE",
"258 337 CURVE SMOOTH",
"258 305 LINE",
"218 305 LINE SMOOTH",
"93 305 OFFCURVE",
"9 289 OFFCURVE",
"9 153 CURVE SMOOTH",
"9 3 OFFCURVE",
"112 -8 OFFCURVE",
"176 -8 CURVE SMOOTH"
);
},
{
closed = 1;
nodes = (
"213 125 OFFCURVE",
"201 134 OFFCURVE",
"201 158 CURVE SMOOTH",
"201 183 OFFCURVE",
"213 198 OFFCURVE",
"232 198 CURVE SMOOTH",
"258 198 LINE",
"258 152 LINE SMOOTH",
"258 135 OFFCURVE",
"240 125 OFFCURVE",
"226 125 CURVE SMOOTH"
);
},
{
closed = 1;
nodes = (
"457 315 OFFCURVE",
"457 325 OFFCURVE",
"457 335 CURVE SMOOTH",
"457 354 OFFCURVE",
"466 367 OFFCURVE",
"480 367 CURVE SMOOTH",
"493 367 OFFCURVE",
"502 354 OFFCURVE",
"502 335 CURVE SMOOTH",
"502 325 OFFCURVE",
"502 315 OFFCURVE",
"502 305 CURVE",
"457 305 LINE"
);
}
);
width = 704;
},
{
associatedMasterId = "262880E7-CFE1-4BDA-902E-E24798F3240A";
hints = (
{
horizontal = 1;
origin = "{1, 5}";
target = "{0, 43}";
type = Stem;
},
{
horizontal = 1;
origin = "{0, 49}";
target = "{1, 10}";
type = Stem;
},
{
origin = "{0, 46}";
target = "{1, 2}";
type = Stem;
},
{
origin = "{1, 7}";
target = "{0, 15}";
type = Stem;
},
{
horizontal = 1;
origin = "{0, 31}";
target = "{0, 38}";
type = Stem;
},
{
origin = "{0, 34}";
target = "{0, 35}";
type = Stem;
},
{
origin = "{1, 6}";
target = "{0, 18}";
type = Stem;
},
{
origin = "{2, 11}";
target = "{0, 19}";
type = Stem;
},
{
horizontal = 1;
place = "{215, 0}";
type = Stem;
},
{
horizontal = 1;
origin = "{0, 25}";
target = "{2, 5}";
type = Stem;
},
{
horizontal = 1;
origin = "{0, 5}";
target = "{0, 12}";
type = Stem;
},
{
origin = "{0, 9}";
target = "{0, 8}";
type = Stem;
}
);
layerId = "E7B60026-6285-4AF7-81D0-E2C0967E1F1B";
name = "{100,500}";
paths = (
{
closed = 1;
nodes = (
"309 -8 OFFCURVE",
"381 24 OFFCURVE",
"412 74 CURVE",
"439 28 OFFCURVE",
"502 -8 OFFCURVE",
"578 -8 CURVE SMOOTH",
"681 -8 OFFCURVE",
"754 50 OFFCURVE",
"779 111 CURVE",
"709 156 LINE",
"688 111 OFFCURVE",
"654 86 OFFCURVE",
"592 86 CURVE SMOOTH",
"525 86 OFFCURVE",
"471 115 OFFCURVE",
"465 176 CURVE",
"464 195 OFFCURVE",
"463 194 OFFCURVE",
"463 215 CURVE",
"786 215 LINE",
"786 305 OFFCURVE",
"782 347 OFFCURVE",
"774 375 CURVE SMOOTH",
"749 463 OFFCURVE",
"666 517 OFFCURVE",
"576 517 CURVE SMOOTH",
"501 517 OFFCURVE",
"439 470 OFFCURVE",
"418 430 CURVE",
"398 474 OFFCURVE",
"334 517 OFFCURVE",
"253 517 CURVE SMOOTH",
"144 517 OFFCURVE",
"59 457 OFFCURVE",
"54 375 CURVE",
"154 362 LINE",
"158 404 OFFCURVE",
"198 431 OFFCURVE",
"256 431 CURVE SMOOTH",
"329 431 OFFCURVE",
"361 389 OFFCURVE",
"361 333 CURVE SMOOTH",
"361 299 LINE",
"246 299 LINE SMOOTH",
"113 299 OFFCURVE",
"39 233 OFFCURVE",
"39 135 CURVE SMOOTH",
"39 31 OFFCURVE",
"123 -8 OFFCURVE",
"224 -8 CURVE SMOOTH"
);
},
{
closed = 1;
nodes = (
"178 71 OFFCURVE",
"139 99 OFFCURVE",
"139 143 CURVE SMOOTH",
"139 193 OFFCURVE",
"189 215 OFFCURVE",
"264 215 CURVE SMOOTH",
"361 215 LINE",
"361 170 LINE",
"361 102 OFFCURVE",
"298 71 OFFCURVE",
"236 71 CURVE SMOOTH"
);
},
{
closed = 1;
nodes = (
"463 319 OFFCURVE",
"464 334 OFFCURVE",
"467 347 CURVE SMOOTH",
"478 396 OFFCURVE",
"518 431 OFFCURVE",
"574 431 CURVE SMOOTH",
"631 431 OFFCURVE",
"671 395 OFFCURVE",
"682 347 CURVE SMOOTH",
"685 335 OFFCURVE",
"686 317 OFFCURVE",
"687 299 CURVE",
"462 299 LINE"
);
}
);
width = 828;
},
{
associatedMasterId = "262880E7-CFE1-4BDA-902E-E24798F3240A";
layerId = "29303AE9-139B-4911-9A39-4D32E7983952";
name = "{100,300}";
paths = (
{
closed = 1;
nodes = (
"245 -8 OFFCURVE",
"308 25 OFFCURVE",
"322 64 CURVE",
"332 31 OFFCURVE",
"383 -8 OFFCURVE",
"457 -8 CURVE SMOOTH",
"552 -8 OFFCURVE",
"611 47 OFFCURVE",
"618 138 CURVE",
"521 150 LINE",
"515 116 OFFCURVE",
"489 85 OFFCURVE",
"450 85 CURVE SMOOTH",
"408 85 OFFCURVE",
"379 118 OFFCURVE",
"379 158 CURVE SMOOTH",
"379 174 OFFCURVE",
"379 188 OFFCURVE",
"379 214 CURVE",
"620 214 LINE",
"620 255 OFFCURVE",
"620 317 OFFCURVE",
"620 358 CURVE SMOOTH",
"620 452 OFFCURVE",
"553 517 OFFCURVE",
"453 517 CURVE SMOOTH",
"394 517 OFFCURVE",
"349 492 OFFCURVE",
"323 453 CURVE",
"295 494 OFFCURVE",
"257 517 OFFCURVE",
"201 517 CURVE SMOOTH",
"108 517 OFFCURVE",
"33 460 OFFCURVE",
"32 366 CURVE",
"132 363 LINE",
"132 404 OFFCURVE",
"165 431 OFFCURVE",
"203 431 CURVE SMOOTH",
"249 431 OFFCURVE",
"274 395 OFFCURVE",
"274 341 CURVE SMOOTH",
"274 298 LINE",
"204 298 LINE SMOOTH",
"98 298 OFFCURVE",
"24 261 OFFCURVE",
"24 139 CURVE SMOOTH",
"24 11 OFFCURVE",
"106 -8 OFFCURVE",
"166 -8 CURVE SMOOTH"
);
},
{
closed = 1;
nodes = (
"155 72 OFFCURVE",
"125 94 OFFCURVE",
"125 141 CURVE SMOOTH",
"125 188 OFFCURVE",
"161 213 OFFCURVE",
"211 213 CURVE SMOOTH",
"274 213 LINE",
"274 147 LINE SMOOTH",
"274 98 OFFCURVE",
"232 72 OFFCURVE",
"191 72 CURVE SMOOTH"
);
},
{
closed = 1;
nodes = (
"379 319 OFFCURVE",
"379 330 OFFCURVE",
"379 351 CURVE SMOOTH",
"379 398 OFFCURVE",
"408 431 OFFCURVE",
"450 431 CURVE SMOOTH",
"491 431 OFFCURVE",
"520 398 OFFCURVE",
"520 351 CURVE SMOOTH",
"520 330 OFFCURVE",
"520 319 OFFCURVE",
"520 298 CURVE",
"379 298 LINE"
);
}
);
width = 649;
}
);
leftKerningGroup = a;
rightKerningGroup = e;
unicode = 00E6;
},
{
glyphname = b;
layers = (
{
components = (
{
name = b.bowl;
transform = "{1, 0, 0, 1, 94, 0}";
}
);
hints = (
{
origin = "{0, 2}";
target = "{0, 1}";
type = Stem;
},
{
horizontal = 1;
place = "{508, -21}";
type = Stem;
},
{
origin = "{0, 3}";
target = "{0, 0}";
type = Stem;
},
{
place = "{429, 22}";
type = Stem;
},
{
horizontal = 1;
place = "{0, -2147483648}";
type = Stem;
}
);
layerId = "262880E7-CFE1-4BDA-902E-E24798F3240A";
paths = (
{
closed = 1;
nodes = (
"113 0 LINE",
"113 700 LINE",
"91 700 LINE",
"91 0 LINE"
);
}
);
width = 507;
},
{
components = (
{
name = b.bowl;
transform = "{1, 0, 0, 1, 175, 0}";
}
);
layerId = "4E2227F3-52E4-4048-A8EE-327B486EF0A4";
paths = (
{
closed = 1;
nodes = (
"210 0 LINE",
"210 700 LINE",
"22 700 LINE",
"22 0 LINE"
);
}
);
width = 459;
},
{
components = (
{
name = b.bowl;
transform = "{1, 0, 0, 1, 189, 0}";
}
);
layerId = "FFFA8D72-12AC-4CE0-B2CA-57A29829F4DA";
paths = (
{
closed = 1;
nodes = (
"230 0 LINE",
"230 700 LINE",
"42 700 LINE",
"42 0 LINE"
);
}
);
width = 586;
},
{
components = (
{
name = b.bowl;
transform = "{1, 0, 0, 1, 69, 0}";
}
);
layerId = "DCBE1F7B-116A-43E0-B7B4-8657BA77D8B5";
paths = (
{
closed = 1;
nodes = (
"84 0 LINE",
"84 700 LINE",
"62 700 LINE",
"62 0 LINE"
);
}
);
width = 377;
}
);
leftKerningGroup = b;
rightKerningGroup = n;
unicode = 0062;
},
{
color = 3;
glyphname = c;
layers = (
{
anchors = (
{
name = bottom;
position = "{238, -8}";
},
{
name = top;
position = "{250, 500}";
}
);
hints = (
{
origin = "{0, 43}";
target = "{0, 18}";
type = Stem;
},
{
horizontal = 1;
origin = "{0, 49}";
target = "{0, 12}";
type = Stem;
},
{
horizontal = 1;
origin = "{0, 37}";
target = "{0, 24}";
type = Stem;
},
{
origin = "{0, 30}";
target = "{0, 31}";
type = Stem;
}
);
layerId = "262880E7-CFE1-4BDA-902E-E24798F3240A";
paths = (
{
closed = 1;
nodes = (
"343 -8 OFFCURVE",
"413 45 OFFCURVE",
"427 113 CURVE SMOOTH",
"430 124 OFFCURVE",
"430 129 OFFCURVE",
"431 137 CURVE",
"410 139 LINE",
"408 131 OFFCURVE",
"409 131 OFFCURVE",
"408 125 CURVE SMOOTH",
"398 64 OFFCURVE",
"335 13 OFFCURVE",
"250 13 CURVE SMOOTH",
"165 13 OFFCURVE",
"108 63 OFFCURVE",
"94 135 CURVE SMOOTH",
"90 156 OFFCURVE",
"86 193 OFFCURVE",
"86 250 CURVE SMOOTH",
"86 302 OFFCURVE",
"90 343 OFFCURVE",
"94 365 CURVE SMOOTH",
"107 436 OFFCURVE",
"165 487 OFFCURVE",
"250 487 CURVE SMOOTH",
"335 487 OFFCURVE",
"395 436 OFFCURVE",
"407 375 CURVE SMOOTH",
"409 369 OFFCURVE",
"410 361 OFFCURVE",
"411 352 CURVE",
"433 353 LINE",
"432 363 OFFCURVE",
"430 376 OFFCURVE",
"427 387 CURVE SMOOTH",
"411 454 OFFCURVE",
"343 508 OFFCURVE",
"250 508 CURVE SMOOTH",
"158 508 OFFCURVE",
"93 454 OFFCURVE",
"75 377 CURVE SMOOTH",
"68 345 OFFCURVE",
"64 310 OFFCURVE",
"64 251 CURVE SMOOTH",
"64 195 OFFCURVE",
"67 156 OFFCURVE",
"75 123 CURVE SMOOTH",
"94 46 OFFCURVE",
"158 -8 OFFCURVE",
"250 -8 CURVE SMOOTH"
);
}
);
width = 483;
},
{
anchors = (
{
name = bottom;
position = "{227, -8}";
},
{
name = top;
position = "{227, 520}";
}
);
layerId = "4E2227F3-52E4-4048-A8EE-327B486EF0A4";
paths = (
{
closed = 1;
nodes = (
"361 -8 OFFCURVE",
"437 57 OFFCURVE",
"437 170 CURVE SMOOTH",
"437 181 OFFCURVE",
"437 197 OFFCURVE",
"437 213 CURVE",
"249 215 LINE",
"249 205 OFFCURVE",
"249 195 OFFCURVE",
"249 185 CURVE SMOOTH",
"249 166 OFFCURVE",
"240 153 OFFCURVE",
"227 153 CURVE SMOOTH",
"213 153 OFFCURVE",
"204 166 OFFCURVE",
"204 185 CURVE SMOOTH",
"204 210 OFFCURVE",
"204 235 OFFCURVE",
"204 260 CURVE SMOOTH",
"204 285 OFFCURVE",
"204 310 OFFCURVE",
"204 335 CURVE SMOOTH",
"204 354 OFFCURVE",
"213 367 OFFCURVE",
"227 367 CURVE SMOOTH",
"240 367 OFFCURVE",
"249 354 OFFCURVE",
"249 335 CURVE SMOOTH",
"249 325 OFFCURVE",
"249 316 OFFCURVE",
"249 306 CURVE",
"437 313 LINE",
"437 327 OFFCURVE",
"437 340 OFFCURVE",
"437 350 CURVE SMOOTH",
"437 456 OFFCURVE",
"361 528 OFFCURVE",
"227 528 CURVE SMOOTH",
"93 528 OFFCURVE",
"16 456 OFFCURVE",
"16 350 CURVE SMOOTH",
"16 327 OFFCURVE",
"16 283 OFFCURVE",
"16 260 CURVE SMOOTH",
"16 237 OFFCURVE",
"16 193 OFFCURVE",
"16 170 CURVE SMOOTH",
"16 57 OFFCURVE",
"93 -8 OFFCURVE",
"227 -8 CURVE SMOOTH"
);
}
);
width = 446;
},
{
anchors = (
{
name = bottom;
position = "{278, -8}";
},
{
name = top;
position = "{278, 520}";
}
);
layerId = "FFFA8D72-12AC-4CE0-B2CA-57A29829F4DA";
paths = (
{
closed = 1;
nodes = (
"391 -8 OFFCURVE",
"486 45 OFFCURVE",
"521 144 CURVE SMOOTH",
"528 164 OFFCURVE",
"529 185 OFFCURVE",
"529 189 CURVE",
"344 219 LINE",
"343 208 OFFCURVE",
"342 202 OFFCURVE",
"341 199 CURVE SMOOTH",
"330 167 OFFCURVE",
"308 153 OFFCURVE",
"281 153 CURVE SMOOTH",
"253 153 OFFCURVE",
"234 167 OFFCURVE",
"223 193 CURVE SMOOTH",
"216 211 OFFCURVE",
"212 234 OFFCURVE",
"212 262 CURVE SMOOTH",
"212 291 OFFCURVE",
"216 314 OFFCURVE",
"224 331 CURVE SMOOTH",
"235 355 OFFCURVE",
"254 367 OFFCURVE",
"281 367 CURVE SMOOTH",
"311 367 OFFCURVE",
"334 349 OFFCURVE",
"341 327 CURVE SMOOTH",
"344 318 OFFCURVE",
"346 305 OFFCURVE",
"347 298 CURVE",
"531 327 LINE",
"531 329 OFFCURVE",
"532 349 OFFCURVE",
"521 379 CURVE SMOOTH",
"491 462 OFFCURVE",
"399 528 OFFCURVE",
"282 528 CURVE SMOOTH",
"170 528 OFFCURVE",
"79 471 OFFCURVE",
"42 376 CURVE SMOOTH",
"31 348 OFFCURVE",
"22 310 OFFCURVE",
"22 263 CURVE SMOOTH",
"22 225 OFFCURVE",
"28 185 OFFCURVE",
"42 149 CURVE SMOOTH",
"80 51 OFFCURVE",
"169 -8 OFFCURVE",
"282 -8 CURVE SMOOTH"
);
}
);
width = 543;
},
{
anchors = (
{
name = bottom;
position = "{182, -8}";
},
{
name = top;
position = "{182, 500}";
}
);
layerId = "DCBE1F7B-116A-43E0-B7B4-8657BA77D8B5";
paths = (
{
closed = 1;
nodes = (
"262 -8 OFFCURVE",
"317 52 OFFCURVE",
"317 115 CURVE SMOOTH",
"317 117 OFFCURVE",
"317 125 OFFCURVE",
"317 127 CURVE",
"295 127 LINE",
"295 125 OFFCURVE",
"295 117 OFFCURVE",
"295 115 CURVE SMOOTH",
"295 63 OFFCURVE",
"249 13 OFFCURVE",
"182 13 CURVE SMOOTH",
"116 13 OFFCURVE",
"70 63 OFFCURVE",
"70 135 CURVE SMOOTH",
"70 173 OFFCURVE",
"70 212 OFFCURVE",
"70 250 CURVE SMOOTH",
"70 288 OFFCURVE",
"70 327 OFFCURVE",
"70 365 CURVE SMOOTH",
"70 437 OFFCURVE",
"116 487 OFFCURVE",
"182 487 CURVE SMOOTH",
"249 487 OFFCURVE",
"295 437 OFFCURVE",
"295 385 CURVE SMOOTH",
"295 383 OFFCURVE",
"295 375 OFFCURVE",
"295 373 CURVE",
"317 373 LINE",
"317 374 OFFCURVE",
"317 384 OFFCURVE",
"317 385 CURVE SMOOTH",
"317 448 OFFCURVE",
"262 508 OFFCURVE",
"182 508 CURVE SMOOTH",
"103 508 OFFCURVE",
"48 448 OFFCURVE",
"48 365 CURVE SMOOTH",
"48 327 OFFCURVE",
"48 288 OFFCURVE",
"48 250 CURVE SMOOTH",
"48 212 OFFCURVE",
"48 173 OFFCURVE",
"48 135 CURVE SMOOTH",
"48 52 OFFCURVE",
"103 -8 OFFCURVE",
"182 -8 CURVE SMOOTH"
);
}
);
width = 351;
},
{
anchors = (
{
name = top;
position = "{260, 528}";
}
);
associatedMasterId = "FFFA8D72-12AC-4CE0-B2CA-57A29829F4DA";
layerId = "0E7C393E-0635-473F-B31A-CAEFC4379571";
name = "Feb 24 17, 16:06";
paths = (
{
closed = 1;
nodes = (
"372 -8 OFFCURVE",
"454 49 OFFCURVE",
"490 144 CURVE SMOOTH",
"497 163 OFFCURVE",
"502 183 OFFCURVE",
"505 204 CURVE",
"319 219 LINE",
"317 206 OFFCURVE",
"314 195 OFFCURVE",
"310 185 CURVE SMOOTH",
"302 165 OFFCURVE",
"285 153 OFFCURVE",
"260 153 CURVE SMOOTH",
"235 153 OFFCURVE",
"219 165 OFFCURVE",
"210 185 CURVE SMOOTH",
"201 205 OFFCURVE",
"198 232 OFFCURVE",
"198 262 CURVE SMOOTH",
"198 298 OFFCURVE",
"200 316 OFFCURVE",
"210 336 CURVE SMOOTH",
"220 355 OFFCURVE",
"235 367 OFFCURVE",
"260 367 CURVE SMOOTH",
"285 367 OFFCURVE",
"300 355 OFFCURVE",
"310 336 CURVE SMOOTH",
"316 324 OFFCURVE",
"319 309 OFFCURVE",
"321 295 CURVE",
"507 315 LINE",
"503 338 OFFCURVE",
"498 360 OFFCURVE",
"490 381 CURVE SMOOTH",
"454 476 OFFCURVE",
"372 528 OFFCURVE",
"260 528 CURVE SMOOTH",
"148 528 OFFCURVE",
"66 476 OFFCURVE",
"30 381 CURVE SMOOTH",
"17 346 OFFCURVE",
"10 307 OFFCURVE",
"10 263 CURVE SMOOTH",
"10 219 OFFCURVE",
"17 179 OFFCURVE",
"30 144 CURVE SMOOTH",
"66 49 OFFCURVE",
"148 -8 OFFCURVE",
"260 -8 CURVE SMOOTH"
);
}
);
width = 515;
},
{
anchors = (
{
name = top;
position = "{223, 532}";
}
);
associatedMasterId = "4E2227F3-52E4-4048-A8EE-327B486EF0A4";
layerId = "A66C9DAC-E233-43FD-8EF1-F60ACA1546F6";
name = "Mar 6 17, 05:00";
paths = (
{
closed = 1;
nodes = (
"359 -8 OFFCURVE",
"435 57 OFFCURVE",
"435 170 CURVE SMOOTH",
"435 180 OFFCURVE",
"435 194 OFFCURVE",
"435 209 CURVE",
"247 214 LINE",
"246 184 OFFCURVE",
"245 171 OFFCURVE",
"241 163 CURVE SMOOTH",
"238 157 OFFCURVE",
"231 153 OFFCURVE",
"223 153 CURVE SMOOTH",
"215 153 OFFCURVE",
"207 157 OFFCURVE",
"204 163 CURVE SMOOTH",
"198 174 OFFCURVE",
"198 194 OFFCURVE",
"198 260 CURVE SMOOTH",
"198 332 OFFCURVE",
"197 348 OFFCURVE",
"204 360 CURVE SMOOTH",
"208 366 OFFCURVE",
"214 371 OFFCURVE",
"223 371 CURVE SMOOTH",
"231 371 OFFCURVE",
"238 366 OFFCURVE",
"241 360 CURVE SMOOTH",
"245 351 OFFCURVE",
"247 340 OFFCURVE",
"247 305 CURVE",
"435 311 LINE",
"435 326 OFFCURVE",
"435 340 OFFCURVE",
"435 350 CURVE SMOOTH",
"435 456 OFFCURVE",
"359 532 OFFCURVE",
"223 532 CURVE SMOOTH",
"87 532 OFFCURVE",
"10 456 OFFCURVE",
"10 350 CURVE SMOOTH",
"10 327 OFFCURVE",
"10 283 OFFCURVE",
"10 260 CURVE SMOOTH",
"10 237 OFFCURVE",
"10 193 OFFCURVE",
"10 170 CURVE SMOOTH",
"10 57 OFFCURVE",
"87 -8 OFFCURVE",
"223 -8 CURVE SMOOTH"
);
}
);
width = 443;
},
{
anchors = (
{
name = bottom;
position = "{253, -8}";
},
{
name = top;
position = "{253, 520}";
}
);
associatedMasterId = "4E2227F3-52E4-4048-A8EE-327B486EF0A4";
layerId = "A708B374-6D5B-4775-AA6A-F8146B244141";
name = "{188,400}";
paths = (
{
closed = 1;
nodes = (
"378 -8 OFFCURVE",
"464 53 OFFCURVE",
"480 163 CURVE SMOOTH",
"482 175 OFFCURVE",
"483 188 OFFCURVE",
"483 201 CURVE",
"297 217 LINE",
"296 207 OFFCURVE",
"295 197 OFFCURVE",
"293 188 CURVE SMOOTH",
"289 168 OFFCURVE",
"279 153 OFFCURVE",
"254 153 CURVE SMOOTH",
"233 153 OFFCURVE",
"221 165 OFFCURVE",
"215 186 CURVE SMOOTH",
"209 205 OFFCURVE",
"208 231 OFFCURVE",
"208 261 CURVE SMOOTH",
"208 288 OFFCURVE",
"209 313 OFFCURVE",
"214 332 CURVE SMOOTH",
"220 354 OFFCURVE",
"232 367 OFFCURVE",
"254 367 CURVE SMOOTH",
"275 367 OFFCURVE",
"288 355 OFFCURVE",
"294 335 CURVE SMOOTH",
"297 326 OFFCURVE",
"298 315 OFFCURVE",
"298 302 CURVE",
"484 320 LINE",
"484 337 OFFCURVE",
"482 353 OFFCURVE",
"479 368 CURVE SMOOTH",
"459 467 OFFCURVE",
"373 528 OFFCURVE",
"255 528 CURVE SMOOTH",
"132 528 OFFCURVE",
"48 464 OFFCURVE",
"29 363 CURVE SMOOTH",
"24 338 OFFCURVE",
"19 297 OFFCURVE",
"19 262 CURVE SMOOTH",
"19 231 OFFCURVE",
"22 189 OFFCURVE",
"29 160 CURVE SMOOTH",
"48 54 OFFCURVE",
"131 -8 OFFCURVE",
"255 -8 CURVE SMOOTH"
);
}
);
width = 495;
},
{
anchors = (
{
name = bottom;
position = "{285, -8}";
},
{
name = top;
position = "{282, 528}";
}
);
associatedMasterId = "FFFA8D72-12AC-4CE0-B2CA-57A29829F4DA";
layerId = "25481B12-31C4-41DE-BA37-A1D24E36589F";
name = "Apr 20 17, 01:36";
paths = (
{
closed = 1;
nodes = (
"391 -8 OFFCURVE",
"485 46 OFFCURVE",
"521 144 CURVE SMOOTH",
"528 164 OFFCURVE",
"529 185 OFFCURVE",
"529 189 CURVE",
"344 219 LINE",
"343 208 OFFCURVE",
"342 202 OFFCURVE",
"341 199 CURVE SMOOTH",
"331 167 OFFCURVE",
"308 153 OFFCURVE",
"284 153 CURVE SMOOTH",
"259 153 OFFCURVE",
"236 169 OFFCURVE",
"227 193 CURVE SMOOTH",
"220 211 OFFCURVE",
"217 234 OFFCURVE",
"217 262 CURVE SMOOTH",
"217 288 OFFCURVE",
"220 310 OFFCURVE",
"227 327 CURVE SMOOTH",
"237 351 OFFCURVE",
"260 367 OFFCURVE",
"284 367 CURVE SMOOTH",
"311 367 OFFCURVE",
"334 349 OFFCURVE",
"341 327 CURVE SMOOTH",
"344 318 OFFCURVE",
"346 305 OFFCURVE",
"347 298 CURVE",
"531 327 LINE",
"531 329 OFFCURVE",
"532 349 OFFCURVE",
"521 379 CURVE SMOOTH",
"491 462 OFFCURVE",
"399 528 OFFCURVE",
"285 528 CURVE SMOOTH",
"175 528 OFFCURVE",
"84 471 OFFCURVE",
"47 376 CURVE SMOOTH",
"36 348 OFFCURVE",
"27 310 OFFCURVE",
"27 263 CURVE SMOOTH",
"27 225 OFFCURVE",
"33 185 OFFCURVE",
"47 149 CURVE SMOOTH",
"85 51 OFFCURVE",
"174 -8 OFFCURVE",
"285 -8 CURVE SMOOTH"
);
}
);
visible = 1;
width = 555;
},
{
anchors = (
{
name = bottom;
position = "{270, -8}";
},
{
name = top;
position = "{273, 517}";
}
);
associatedMasterId = "FFFA8D72-12AC-4CE0-B2CA-57A29829F4DA";
hints = (
{
origin = "{0, 43}";
target = "{0, 18}";
type = Stem;
},
{
horizontal = 1;
origin = "{0, 49}";
target = "{0, 12}";
type = Stem;
},
{
horizontal = 1;
origin = "{0, 37}";
target = "{0, 24}";
type = Stem;
},
{
origin = "{0, 30}";
target = "{0, 31}";
type = Stem;
}
);
layerId = "1EE1D46F-5D19-4979-A3CF-98CB5FD660B9";
name = "1005GOOD";
paths = (
{
closed = 1;
nodes = (
"380 -8 OFFCURVE",
"444 34 OFFCURVE",
"478 125 CURVE SMOOTH",
"481 134 OFFCURVE",
"483 143 OFFCURVE",
"486 152 CURVE",
"388 169 LINE",
"387 166 OFFCURVE",
"386 161 OFFCURVE",
"384 157 CURVE SMOOTH",
"364 109 OFFCURVE",
"326 78 OFFCURVE",
"271 78 CURVE SMOOTH",
"221 78 OFFCURVE",
"182 108 OFFCURVE",
"167 159 CURVE SMOOTH",
"159 188 OFFCURVE",
"154 223 OFFCURVE",
"154 255 CURVE SMOOTH",
"154 288 OFFCURVE",
"159 323 OFFCURVE",
"167 349 CURVE SMOOTH",
"184 401 OFFCURVE",
"222 431 OFFCURVE",
"273 431 CURVE SMOOTH",
"327 431 OFFCURVE",
"367 402 OFFCURVE",
"384 353 CURVE SMOOTH",
"386 350 OFFCURVE",
"388 343 OFFCURVE",
"389 334 CURVE",
"487 350 LINE",
"484 362 OFFCURVE",
"482 374 OFFCURVE",
"478 385 CURVE SMOOTH",
"444 476 OFFCURVE",
"380 517 OFFCURVE",
"271 517 CURVE SMOOTH",
"175 517 OFFCURVE",
"101 466 OFFCURVE",
"72 378 CURVE SMOOTH",
"61 344 OFFCURVE",
"54 299 OFFCURVE",
"54 256 CURVE SMOOTH",
"54 214 OFFCURVE",
"61 169 OFFCURVE",
"72 134 CURVE SMOOTH",
"101 45 OFFCURVE",
"175 -8 OFFCURVE",
"270 -8 CURVE SMOOTH"
);
}
);
width = 527;
},
{
anchors = (
{
name = bottom;
position = "{270, -8}";
},
{
name = top;
position = "{273, 517}";
}
);
associatedMasterId = "FFFA8D72-12AC-4CE0-B2CA-57A29829F4DA";
hints = (
{
origin = "{0, 43}";
target = "{0, 18}";
type = Stem;
},
{
horizontal = 1;
origin = "{0, 49}";
target = "{0, 12}";
type = Stem;
},
{
horizontal = 1;
origin = "{0, 37}";
target = "{0, 24}";
type = Stem;
},
{
origin = "{0, 30}";
target = "{0, 31}";
type = Stem;
}
);
layerId = "23FE8C9D-6308-4DBC-91C0-B125E6231B14";
name = "For VF";
paths = (
{
closed = 1;
nodes = (
"380 -8 OFFCURVE",
"444 34 OFFCURVE",
"478 125 CURVE SMOOTH",
"481 134 OFFCURVE",
"483 143 OFFCURVE",
"486 152 CURVE",
"388 169 LINE",
"387 166 OFFCURVE",
"386 161 OFFCURVE",
"384 157 CURVE SMOOTH",
"364 109 OFFCURVE",
"326 78 OFFCURVE",
"271 78 CURVE SMOOTH",
"221 78 OFFCURVE",
"182 108 OFFCURVE",
"167 159 CURVE SMOOTH",
"159 188 OFFCURVE",
"154 223 OFFCURVE",
"154 255 CURVE SMOOTH",
"154 288 OFFCURVE",
"159 323 OFFCURVE",
"167 349 CURVE SMOOTH",
"184 401 OFFCURVE",
"222 431 OFFCURVE",
"273 431 CURVE SMOOTH",
"327 431 OFFCURVE",
"367 402 OFFCURVE",
"384 353 CURVE SMOOTH",
"386 350 OFFCURVE",
"388 343 OFFCURVE",
"389 334 CURVE",
"487 350 LINE",
"484 362 OFFCURVE",
"482 374 OFFCURVE",
"478 385 CURVE SMOOTH",
"444 476 OFFCURVE",
"380 517 OFFCURVE",
"271 517 CURVE SMOOTH",
"175 517 OFFCURVE",
"101 466 OFFCURVE",
"72 378 CURVE SMOOTH",
"61 344 OFFCURVE",
"54 299 OFFCURVE",
"54 256 CURVE SMOOTH",
"54 214 OFFCURVE",
"61 169 OFFCURVE",
"72 134 CURVE SMOOTH",
"101 45 OFFCURVE",
"175 -8 OFFCURVE",
"270 -8 CURVE SMOOTH"
);
}
);
width = 527;
}
);
leftKerningGroup = o;
rightKerningGroup = c;
unicode = 0063;
},
{
glyphname = eth;
layers = (
{
hints = (
{
horizontal = 1;
place = "{508, -2147483648}";
type = Stem;
},
{
origin = "{0, 25}";
target = "{0, 22}";
type = Stem;
},
{
origin = "{0, 15}";
target = "{0, 5}";
type = Stem;
},
{
horizontal = 1;
place = "{-8, -2147483648}";
type = Stem;
}
);
layerId = "262880E7-CFE1-4BDA-902E-E24798F3240A";
paths = (
{
closed = 1;
nodes = (
"330 -8 OFFCURVE",
"396 46 OFFCURVE",
"413 123 CURVE SMOOTH",
"420 155 OFFCURVE",
"418 191 OFFCURVE",
"418 250 CURVE SMOOTH",
"418 290 OFFCURVE",
"419 321 OFFCURVE",
"417 348 CURVE SMOOTH",
"404 562 OFFCURVE",
"283 642 OFFCURVE",
"209 700 CURVE",
"177 700 LINE",
"263 634 OFFCURVE",
"369 539 OFFCURVE",
"384 427 CURVE",
"391 430 LINE",
"362 478 OFFCURVE",
"307 508 OFFCURVE",
"240 508 CURVE SMOOTH",
"151 508 OFFCURVE",
"87 454 OFFCURVE",
"70 377 CURVE SMOOTH",
"62 345 OFFCURVE",
"63 310 OFFCURVE",
"63 251 CURVE SMOOTH",
"63 195 OFFCURVE",
"62 156 OFFCURVE",
"70 123 CURVE SMOOTH",
"88 46 OFFCURVE",
"150 -8 OFFCURVE",
"240 -8 CURVE SMOOTH"
);
},
{
closed = 1;
nodes = (
"158 13 OFFCURVE",
"102 63 OFFCURVE",
"89 135 CURVE SMOOTH",
"85 156 OFFCURVE",
"85 193 OFFCURVE",
"85 250 CURVE SMOOTH",
"85 302 OFFCURVE",
"85 343 OFFCURVE",
"89 365 CURVE SMOOTH",
"102 436 OFFCURVE",
"158 487 OFFCURVE",
"240 487 CURVE SMOOTH",
"322 487 OFFCURVE",
"380 436 OFFCURVE",
"393 365 CURVE SMOOTH",
"397 344 OFFCURVE",
"396 307 OFFCURVE",
"396 250 CURVE SMOOTH",
"396 198 OFFCURVE",
"397 157 OFFCURVE",
"393 135 CURVE SMOOTH",
"380 64 OFFCURVE",
"322 13 OFFCURVE",
"240 13 CURVE SMOOTH"
);
},
{
closed = 1;
nodes = (
"383 634 LINE",
"377 653 LINE",
"190 589 LINE",
"196 570 LINE"
);
}
);
width = 488;
},
{
layerId = "FFFA8D72-12AC-4CE0-B2CA-57A29829F4DA";
paths = (
{
closed = 1;
nodes = (
"384 -8 OFFCURVE",
"471 49 OFFCURVE",
"508 129 CURVE SMOOTH",
"520 155 OFFCURVE",
"528 189 OFFCURVE",
"528 228 CURVE SMOOTH",
"528 279 OFFCURVE",
"522 328 OFFCURVE",
"510 373 CURVE SMOOTH",
"487 463 OFFCURVE",
"433 551 OFFCURVE",
"320 700 CURVE",
"119 700 LINE",
"204 608 OFFCURVE",
"262 539 OFFCURVE",
"315 420 CURVE",
"325 422 LINE",
"313 463 OFFCURVE",
"169 446 OFFCURVE",
"119 415 CURVE SMOOTH",
"84 393 OFFCURVE",
"57 362 OFFCURVE",
"40 325 CURVE SMOOTH",
"27 296 OFFCURVE",
"20 263 OFFCURVE",
"20 227 CURVE SMOOTH",
"20 192 OFFCURVE",
"26 160 OFFCURVE",
"40 129 CURVE SMOOTH",
"78 45 OFFCURVE",
"166 -8 OFFCURVE",
"274 -8 CURVE SMOOTH"
);
},
{
closed = 1;
nodes = (
"252 132 OFFCURVE",
"234 145 OFFCURVE",
"223 167 CURVE SMOOTH",
"215 183 OFFCURVE",
"210 199 OFFCURVE",
"210 222 CURVE SMOOTH",
"210 243 OFFCURVE",
"214 258 OFFCURVE",
"222 274 CURVE SMOOTH",
"233 296 OFFCURVE",
"252 307 OFFCURVE",
"274 307 CURVE SMOOTH",
"296 307 OFFCURVE",
"313 296 OFFCURVE",
"325 274 CURVE SMOOTH",
"333 259 OFFCURVE",
"338 243 OFFCURVE",
"338 222 CURVE SMOOTH",
"338 199 OFFCURVE",
"333 182 OFFCURVE",
"325 167 CURVE SMOOTH",
"313 145 OFFCURVE",
"296 132 OFFCURVE",
"274 132 CURVE SMOOTH"
);
},
{
closed = 1;
nodes = (
"498 561 LINE",
"474 658 LINE",
"126 572 LINE",
"150 475 LINE"
);
}
);
width = 552;
},
{
layerId = "DCBE1F7B-116A-43E0-B7B4-8657BA77D8B5";
paths = (
{
closed = 1;
nodes = (
"262 -8 OFFCURVE",
"317 52 OFFCURVE",
"317 135 CURVE SMOOTH",
"317 173 OFFCURVE",
"317 212 OFFCURVE",
"317 250 CURVE SMOOTH",
"317 298 OFFCURVE",
"318 327 OFFCURVE",
"317 365 CURVE SMOOTH",
"311 580 OFFCURVE",
"221 660 OFFCURVE",
"175 700 CURVE",
"150 700 LINE",
"208 654 OFFCURVE",
"285 561 OFFCURVE",
"290 443 CURVE",
"293 452 LINE",
"269 487 OFFCURVE",
"229 508 OFFCURVE",
"182 508 CURVE SMOOTH",
"103 508 OFFCURVE",
"48 448 OFFCURVE",
"48 365 CURVE SMOOTH",
"48 327 OFFCURVE",
"48 298 OFFCURVE",
"48 250 CURVE SMOOTH",
"48 212 OFFCURVE",
"48 173 OFFCURVE",
"48 135 CURVE SMOOTH",
"48 52 OFFCURVE",
"103 -8 OFFCURVE",
"182 -8 CURVE SMOOTH"
);
},
{
closed = 1;
nodes = (
"116 13 OFFCURVE",
"70 63 OFFCURVE",
"70 135 CURVE SMOOTH",
"70 173 OFFCURVE",
"70 212 OFFCURVE",
"70 250 CURVE SMOOTH",
"70 298 OFFCURVE",
"70 327 OFFCURVE",
"70 365 CURVE SMOOTH",
"70 437 OFFCURVE",
"116 487 OFFCURVE",
"182 487 CURVE",
"249 487 OFFCURVE",
"295 437 OFFCURVE",
"295 365 CURVE SMOOTH",
"295 327 OFFCURVE",
"295 298 OFFCURVE",
"295 250 CURVE SMOOTH",
"295 212 OFFCURVE",
"295 173 OFFCURVE",
"295 135 CURVE SMOOTH",
"295 63 OFFCURVE",
"249 13 OFFCURVE",
"182 13 CURVE SMOOTH"
);
},
{
closed = 1;
nodes = (
"342 638 LINE",
"336 657 LINE",
"149 593 LINE",
"155 574 LINE"
);
}
);
width = 372;
},
{
layerId = "4E2227F3-52E4-4048-A8EE-327B486EF0A4";
paths = (
{
closed = 1;
nodes = (
"363 -8 OFFCURVE",
"439 57 OFFCURVE",
"439 170 CURVE SMOOTH",
"439 193 OFFCURVE",
"439 217 OFFCURVE",
"439 240 CURVE SMOOTH",
"439 263 OFFCURVE",
"439 287 OFFCURVE",
"439 310 CURVE SMOOTH",
"439 435 OFFCURVE",
"399 550 OFFCURVE",
"295 700 CURVE",
"114 700 LINE",
"195 576 OFFCURVE",
"231 501 OFFCURVE",
"245 452 CURVE",
"257 452 LINE",
"249 465 OFFCURVE",
"249 488 OFFCURVE",
"193 488 CURVE SMOOTH",
"95 488 OFFCURVE",
"14 416 OFFCURVE",
"14 310 CURVE SMOOTH",
"14 287 OFFCURVE",
"14 263 OFFCURVE",
"14 240 CURVE SMOOTH",
"14 217 OFFCURVE",
"14 193 OFFCURVE",
"14 170 CURVE SMOOTH",
"14 57 OFFCURVE",
"91 -8 OFFCURVE",
"227 -8 CURVE SMOOTH"
);
},
{
closed = 1;
nodes = (
"212 153 OFFCURVE",
"202 166 OFFCURVE",
"202 185 CURVE SMOOTH",
"202 210 OFFCURVE",
"202 215 OFFCURVE",
"202 240 CURVE SMOOTH",
"202 265 OFFCURVE",
"202 270 OFFCURVE",
"202 295 CURVE SMOOTH",
"202 314 OFFCURVE",
"212 327 OFFCURVE",
"227 327 CURVE SMOOTH",
"241 327 OFFCURVE",
"251 314 OFFCURVE",
"251 295 CURVE SMOOTH",
"251 270 OFFCURVE",
"251 265 OFFCURVE",
"251 240 CURVE SMOOTH",
"251 215 OFFCURVE",
"251 210 OFFCURVE",
"251 185 CURVE SMOOTH",
"251 166 OFFCURVE",
"241 153 OFFCURVE",
"227 153 CURVE SMOOTH"
);
},
{
closed = 1;
nodes = (
"437 582 LINE",
"420 661 LINE",
"100 585 LINE",
"119 510 LINE"
);
}
);
width = 455;
},
{
associatedMasterId = "FFFA8D72-12AC-4CE0-B2CA-57A29829F4DA";
layerId = "69ED2367-3D6B-49BA-B51E-69D72CE29D64";
name = "Apr 8 17, 03:30";
paths = (
{
closed = 1;
nodes = (
"439 556 LINE SMOOTH",
"445 558 OFFCURVE",
"447 563 OFFCURVE",
"446 569 CURVE",
"422 650 LINE SMOOTH",
"420 656 OFFCURVE",
"415 658 OFFCURVE",
"409 657 CURVE",
"320 631 LINE",
"291 671 LINE",
"286 677 OFFCURVE",
"280 680 OFFCURVE",
"270 680 CURVE SMOOTH",
"96 680 LINE SMOOTH",
"90 680 OFFCURVE",
"88 675 OFFCURVE",
"92 670 CURVE",
"155 582 LINE",
"93 564 LINE",
"87 562 OFFCURVE",
"84 557 OFFCURVE",
"86 552 CURVE",
"110 470 LINE",
"112 464 OFFCURVE",
"117 462 OFFCURVE",
"122 463 CURVE",
"221 492 LINE",
"277 415 LINE",
"275 415 LINE",
"263 421 OFFCURVE",
"244 432 OFFCURVE",
"211 432 CURVE SMOOTH",
"120 432 OFFCURVE",
"60 380 OFFCURVE",
"36 307 CURVE SMOOTH",
"26 277 OFFCURVE",
"23 246 OFFCURVE",
"23 215 CURVE SMOOTH",
"23 184 OFFCURVE",
"27 158 OFFCURVE",
"37 128 CURVE SMOOTH",
"64 45 OFFCURVE",
"146 -12 OFFCURVE",
"273 -12 CURVE SMOOTH",
"393 -12 OFFCURVE",
"479 44 OFFCURVE",
"510 139 CURVE SMOOTH",
"518 164 OFFCURVE",
"523 193 OFFCURVE",
"523 226 CURVE SMOOTH",
"523 327 OFFCURVE",
"493 393 OFFCURVE",
"385 540 CURVE"
);
}
);
visible = 1;
width = 562;
}
);
leftKerningGroup = o;
rightKerningGroup = b;
unicode = 00F0;
},
{
color = 3;
glyphname = e;
layers = (
{
anchors = (
{
name = bottom;
position = "{179, 0}";
},
{
name = ogonek;
position = "{334, 10}";
},
{
name = top;
position = "{179, 500}";
}
);
layerId = "DCBE1F7B-116A-43E0-B7B4-8657BA77D8B5";
paths = (
{
closed = 1;
nodes = (
"253 -8 OFFCURVE",
"305 40 OFFCURVE",
"315 109 CURVE",
"293 109 LINE",
"283 52 OFFCURVE",
"240 13 OFFCURVE",
"182 13 CURVE SMOOTH",
"116 13 OFFCURVE",
"70 63 OFFCURVE",
"70 135 CURVE SMOOTH",
"70 173 OFFCURVE",
"70 212 OFFCURVE",
"70 250 CURVE SMOOTH",
"70 288 OFFCURVE",
"70 327 OFFCURVE",
"70 365 CURVE SMOOTH",
"70 437 OFFCURVE",
"116 487 OFFCURVE",
"182 487 CURVE SMOOTH",
"249 487 OFFCURVE",
"295 437 OFFCURVE",
"295 365 CURVE SMOOTH",
"295 327 OFFCURVE",
"295 288 OFFCURVE",
"295 261 CURVE",
"304 267 LINE",
"62 267 LINE",
"62 247 LINE",
"317 247 LINE",
"317 287 OFFCURVE",
"317 327 OFFCURVE",
"317 365 CURVE SMOOTH",
"317 448 OFFCURVE",
"262 508 OFFCURVE",
"182 508 CURVE SMOOTH",
"103 508 OFFCURVE",
"48 448 OFFCURVE",
"48 365 CURVE SMOOTH",
"48 327 OFFCURVE",
"48 288 OFFCURVE",
"48 250 CURVE SMOOTH",
"48 212 OFFCURVE",
"48 173 OFFCURVE",
"48 135 CURVE SMOOTH",
"48 52 OFFCURVE",
"103 -8 OFFCURVE",
"182 -8 CURVE SMOOTH"
);
}
);
width = 360;
},
{
anchors = (
{
name = bottom;
position = "{197, -8}";
},
{
name = top;
position = "{197, 508}";
}
);
associatedMasterId = "DCBE1F7B-116A-43E0-B7B4-8657BA77D8B5";
layerId = "27DE0D86-600F-4F55-A60E-FD534B4FC0F5";
name = "Jul 13 17, 05:36";
paths = (
{
closed = 1;
nodes = (
"268 -8 OFFCURVE",
"320 40 OFFCURVE",
"330 109 CURVE",
"308 108 LINE",
"298 51 OFFCURVE",
"255 13 OFFCURVE",
"197 13 CURVE SMOOTH",
"131 13 OFFCURVE",
"85 63 OFFCURVE",
"85 135 CURVE SMOOTH",
"85 173 OFFCURVE",
"85 212 OFFCURVE",
"85 250 CURVE SMOOTH",
"85 288 OFFCURVE",
"85 327 OFFCURVE",
"85 365 CURVE SMOOTH",
"85 437 OFFCURVE",
"131 487 OFFCURVE",
"197 487 CURVE SMOOTH",
"264 487 OFFCURVE",
"310 437 OFFCURVE",
"310 365 CURVE SMOOTH",
"310 327 OFFCURVE",
"310 288 OFFCURVE",
"310 261 CURVE",
"319 267 LINE",
"77 267 LINE",
"77 247 LINE",
"332 247 LINE",
"332 287 OFFCURVE",
"332 327 OFFCURVE",
"332 365 CURVE SMOOTH",
"332 448 OFFCURVE",
"277 508 OFFCURVE",
"197 508 CURVE SMOOTH",
"118 508 OFFCURVE",
"63 448 OFFCURVE",
"63 365 CURVE SMOOTH",
"63 327 OFFCURVE",
"63 288 OFFCURVE",
"63 250 CURVE SMOOTH",
"63 212 OFFCURVE",
"63 173 OFFCURVE",
"63 135 CURVE SMOOTH",
"63 52 OFFCURVE",
"118 -8 OFFCURVE",
"197 -8 CURVE SMOOTH"
);
}
);
width = 388;
},
{
anchors = (
{
name = bottom;
position = "{226, 0}";
},
{
name = ogonek;
position = "{407, 10}";
},
{
name = top;
position = "{226, 520}";
}
);
layerId = "4E2227F3-52E4-4048-A8EE-327B486EF0A4";
paths = (
{
closed = 1;
nodes = (
"368 -8 OFFCURVE",
"433 53 OFFCURVE",
"435 180 CURVE",
"252 192 LINE",
"252 176 OFFCURVE",
"246 153 OFFCURVE",
"227 153 CURVE SMOOTH",
"213 153 OFFCURVE",
"204 166 OFFCURVE",
"204 185 CURVE SMOOTH",
"204 210 OFFCURVE",
"204 235 OFFCURVE",
"204 260 CURVE SMOOTH",
"204 285 OFFCURVE",
"204 310 OFFCURVE",
"204 335 CURVE SMOOTH",
"204 354 OFFCURVE",
"213 367 OFFCURVE",
"227 367 CURVE SMOOTH",
"240 367 OFFCURVE",
"249 354 OFFCURVE",
"249 335 CURVE SMOOTH",
"249 316 OFFCURVE",
"249 298 OFFCURVE",
"249 279 CURVE",
"312 305 LINE",
"154 305 LINE",
"154 213 LINE",
"437 213 LINE",
"437 221 OFFCURVE",
"437 291 OFFCURVE",
"437 350 CURVE SMOOTH",
"437 456 OFFCURVE",
"361 528 OFFCURVE",
"227 528 CURVE SMOOTH",
"93 528 OFFCURVE",
"16 456 OFFCURVE",
"16 350 CURVE SMOOTH",
"16 327 OFFCURVE",
"16 283 OFFCURVE",
"16 260 CURVE SMOOTH",
"16 230 OFFCURVE",
"16 200 OFFCURVE",
"16 170 CURVE SMOOTH",
"16 57 OFFCURVE",
"93 -8 OFFCURVE",
"227 -8 CURVE SMOOTH"
);
}
);
width = 451;
},
{
anchors = (
{
name = top;
position = "{223, 528}";
}
);
associatedMasterId = "4E2227F3-52E4-4048-A8EE-327B486EF0A4";
layerId = "1607DCD5-9BA9-4F8D-B5DF-80154018F12C";
name = "Feb 24 17, 00:20";
paths = (
{
closed = 1;
nodes = (
"358 -7 OFFCURVE",
"429 67 OFFCURVE",
"428 181 CURVE",
"247 193 LINE",
"246 168 OFFCURVE",
"238 154 OFFCURVE",
"224 154 CURVE SMOOTH",
"207 154 OFFCURVE",
"198 168 OFFCURVE",
"198 193 CURVE SMOOTH",
"198 332 LINE SMOOTH",
"198 354 OFFCURVE",
"207 367 OFFCURVE",
"223 367 CURVE SMOOTH",
"238 367 OFFCURVE",
"247 354 OFFCURVE",
"247 332 CURVE SMOOTH",
"247 303 LINE",
"126 303 LINE",
"126 215 LINE",
"435 215 LINE",
"435 331 LINE SMOOTH",
"435 457 OFFCURVE",
"359 528 OFFCURVE",
"223 528 CURVE SMOOTH",
"87 528 OFFCURVE",
"10 457 OFFCURVE",
"10 331 CURVE SMOOTH",
"10 189 LINE SMOOTH",
"10 64 OFFCURVE",
"87 -7 OFFCURVE",
"223 -7 CURVE SMOOTH"
);
}
);
width = 445;
},
{
anchors = (
{
name = top;
position = "{203, 517}";
}
);
associatedMasterId = "4E2227F3-52E4-4048-A8EE-327B486EF0A4";
layerId = "A53D93E6-92CC-45B1-8880-653E9256B646";
name = "100Feb 24 17, 00:22";
paths = (
{
closed = 1;
nodes = (
"303 -8 OFFCURVE",
"372 48 OFFCURVE",
"379 141 CURVE",
"280 143 LINE",
"272 102 OFFCURVE",
"241 79 OFFCURVE",
"204 79 CURVE SMOOTH",
"156 79 OFFCURVE",
"125 115 OFFCURVE",
"125 173 CURVE SMOOTH",
"125 339 LINE SMOOTH",
"125 395 OFFCURVE",
"156 431 OFFCURVE",
"203 431 CURVE SMOOTH",
"251 431 OFFCURVE",
"281 395 OFFCURVE",
"281 339 CURVE SMOOTH",
"281 298 LINE",
"86 298 LINE",
"86 215 LINE",
"381 215 LINE",
"381 337 LINE SMOOTH",
"381 449 OFFCURVE",
"314 517 OFFCURVE",
"203 517 CURVE SMOOTH",
"94 517 OFFCURVE",
"26 449 OFFCURVE",
"26 338 CURVE SMOOTH",
"26 171 LINE SMOOTH",
"26 61 OFFCURVE",
"93 -8 OFFCURVE",
"204 -8 CURVE SMOOTH"
);
}
);
width = 409;
},
{
anchors = (
{
name = top;
position = "{235, 517}";
}
);
associatedMasterId = "4E2227F3-52E4-4048-A8EE-327B486EF0A4";
layerId = "A47C68F1-3740-4053-814E-50DA5F989A02";
name = "Feb 24 17, 00:22";
paths = (
{
closed = 1;
nodes = (
"345 -8 OFFCURVE",
"415 47 OFFCURVE",
"436 143 CURVE",
"338 152 LINE",
"324 106 OFFCURVE",
"289 79 OFFCURVE",
"240 79 CURVE SMOOTH",
"169 79 OFFCURVE",
"131 134 OFFCURVE",
"131 230 CURVE SMOOTH",
"131 282 LINE SMOOTH",
"131 377 OFFCURVE",
"169 433 OFFCURVE",
"239 433 CURVE SMOOTH",
"309 433 OFFCURVE",
"348 378 OFFCURVE",
"348 284 CURVE",
"348 296 LINE",
"109 296 LINE",
"109 211 LINE",
"448 211 LINE",
"448 281 LINE SMOOTH",
"448 432 OFFCURVE",
"371 519 OFFCURVE",
"239 519 CURVE SMOOTH",
"107 519 OFFCURVE",
"31 432 OFFCURVE",
"31 281 CURVE SMOOTH",
"31 231 LINE SMOOTH",
"31 79 OFFCURVE",
"107 -8 OFFCURVE",
"240 -8 CURVE SMOOTH"
);
}
);
width = 479;
},
{
anchors = (
{
name = top;
position = "{243, 522}";
}
);
associatedMasterId = "4E2227F3-52E4-4048-A8EE-327B486EF0A4";
layerId = "5954086A-CF98-4407-B6DE-F8A05521AEBF";
name = "Feb 24 17, 00:22";
paths = (
{
closed = 1;
nodes = (
"365 -8 OFFCURVE",
"442 52 OFFCURVE",
"466 157 CURVE",
"327 171 LINE",
"315 134 OFFCURVE",
"288 113 OFFCURVE",
"249 113 CURVE SMOOTH",
"190 113 OFFCURVE",
"161 161 OFFCURVE",
"161 245 CURVE SMOOTH",
"161 273 LINE SMOOTH",
"161 357 OFFCURVE",
"190 405 OFFCURVE",
"249 405 CURVE SMOOTH",
"306 405 OFFCURVE",
"336 358 OFFCURVE",
"336 277 CURVE",
"336 308 LINE",
"133 308 LINE",
"133 213 LINE",
"476 213 LINE",
"476 273 LINE SMOOTH",
"476 433 OFFCURVE",
"393 525 OFFCURVE",
"249 525 CURVE SMOOTH",
"104 525 OFFCURVE",
"21 433 OFFCURVE",
"21 273 CURVE SMOOTH",
"21 246 LINE SMOOTH",
"21 84 OFFCURVE",
"104 -8 OFFCURVE",
"249 -8 CURVE SMOOTH"
);
}
);
width = 498;
},
{
anchors = (
{
name = top;
position = "{223, 532}";
}
);
associatedMasterId = "4E2227F3-52E4-4048-A8EE-327B486EF0A4";
layerId = "A2BBABA4-A182-4348-8C30-8AD760BED60C";
name = "Mar 6 17, 05:03";
paths = (
{
closed = 1;
nodes = (
"357 -8 OFFCURVE",
"435 54 OFFCURVE",
"435 175 CURVE",
"247 192 LINE",
"246 172 OFFCURVE",
"244 153 OFFCURVE",
"223 153 CURVE SMOOTH",
"215 153 OFFCURVE",
"207 157 OFFCURVE",
"204 163 CURVE",
"198 174 OFFCURVE",
"198 325 OFFCURVE",
"198 260 CURVE SMOOTH",
"198 236 OFFCURVE",
"197 348 OFFCURVE",
"204 360 CURVE",
"208 366 OFFCURVE",
"214 371 OFFCURVE",
"223 371 CURVE SMOOTH",
"231 371 OFFCURVE",
"239 366 OFFCURVE",
"242 360 CURVE",
"249 348 OFFCURVE",
"247 332 OFFCURVE",
"247 260 CURVE",
"323 303 LINE",
"162 303 LINE",
"162 215 LINE",
"435 215 LINE",
"435 270 OFFCURVE",
"435 294 OFFCURVE",
"435 350 CURVE SMOOTH",
"435 456 OFFCURVE",
"359 532 OFFCURVE",
"223 532 CURVE SMOOTH",
"87 532 OFFCURVE",
"10 456 OFFCURVE",
"10 350 CURVE SMOOTH",
"10 327 OFFCURVE",
"10 283 OFFCURVE",
"10 260 CURVE SMOOTH",
"10 230 OFFCURVE",
"10 200 OFFCURVE",
"10 170 CURVE SMOOTH",
"10 57 OFFCURVE",
"87 -8 OFFCURVE",
"223 -8 CURVE SMOOTH"
);
}
);
width = 445;
},
{
anchors = (
{
name = bottom;
position = "{265, -9}";
},
{
name = ogonek;
position = "{472, 10}";
},
{
name = top;
position = "{259, 509}";
}
);
associatedMasterId = "4E2227F3-52E4-4048-A8EE-327B486EF0A4";
hints = (
{
place = "{47.795, 47.368}";
type = Stem;
},
{
place = "{295.094, 29.778}";
type = Stem;
},
{
horizontal = 1;
place = "{160.547, 20.991}";
type = Stem;
},
{
horizontal = 1;
place = "{359.265, -38.051}";
type = Stem;
},
{
horizontal = 1;
place = "{-5.607, 38.051}";
type = Stem;
},
{
place = "{278.359, 43.778}";
type = Stem;
}
);
layerId = "2A2B9E74-0281-441B-9A83-648CC11D66AE";
name = "{100,500}";
paths = (
{
closed = 1;
nodes = (
"357 -10 OFFCURVE",
"432 29 OFFCURVE",
"470 95 CURVE",
"394 147 LINE",
"368 102 OFFCURVE",
"330 77 OFFCURVE",
"274 78 CURVE SMOOTH",
"207 79 OFFCURVE",
"164 110 OFFCURVE",
"150 161 CURVE SMOOTH",
"144 180 OFFCURVE",
"143 216 OFFCURVE",
"143 255 CURVE SMOOTH",
"143 294 OFFCURVE",
"145 329 OFFCURVE",
"153 354 CURVE SMOOTH",
"166 400 OFFCURVE",
"202 431 OFFCURVE",
"259 431 CURVE SMOOTH",
"318 431 OFFCURVE",
"357 397 OFFCURVE",
"370 347 CURVE SMOOTH",
"375 329 OFFCURVE",
"377 294 OFFCURVE",
"377 260 CURVE",
"415 297 LINE",
"113 297 LINE",
"113 214 LINE",
"476 214 LINE",
"477 254 OFFCURVE",
"476 284 OFFCURVE",
"473 315 CURVE SMOOTH",
"459 441 OFFCURVE",
"402 517 OFFCURVE",
"259 517 CURVE SMOOTH",
"155 517 OFFCURVE",
"79 459 OFFCURVE",
"55 368 CURVE SMOOTH",
"46 337 OFFCURVE",
"44 300 OFFCURVE",
"44 257 CURVE SMOOTH",
"44 201 OFFCURVE",
"52 153 OFFCURVE",
"69 113 CURVE SMOOTH",
"102 37 OFFCURVE",
"167 -7 OFFCURVE",
"265 -9 CURVE SMOOTH"
);
}
);
width = 514;
},
{
anchors = (
{
name = bottom;
position = "{203, -8}";
},
{
name = ogonek;
position = "{368, 10}";
},
{
name = top;
position = "{203, 509}";
}
);
associatedMasterId = "4E2227F3-52E4-4048-A8EE-327B486EF0A4";
layerId = "08201EB5-B49F-440A-802B-CA47CCD12539";
name = "{100,300}";
paths = (
{
closed = 1;
nodes = (
"307 -8 OFFCURVE",
"365 49 OFFCURVE",
"371 142 CURVE",
"274 147 LINE",
"269 109 OFFCURVE",
"243 78 OFFCURVE",
"203 78 CURVE SMOOTH",
"162 78 OFFCURVE",
"133 111 OFFCURVE",
"133 158 CURVE SMOOTH",
"133 190 OFFCURVE",
"133 223 OFFCURVE",
"133 255 CURVE SMOOTH",
"133 286 OFFCURVE",
"133 319 OFFCURVE",
"133 351 CURVE SMOOTH",
"133 398 OFFCURVE",
"162 431 OFFCURVE",
"203 431 CURVE SMOOTH",
"245 431 OFFCURVE",
"274 398 OFFCURVE",
"274 351 CURVE SMOOTH",
"274 322 OFFCURVE",
"274 293 OFFCURVE",
"274 270 CURVE",
"308 296 LINE",
"105 296 LINE",
"105 213 LINE",
"373 213 LINE",
"373 238 OFFCURVE",
"373 310 OFFCURVE",
"373 358 CURVE SMOOTH",
"373 452 OFFCURVE",
"309 517 OFFCURVE",
"203 517 CURVE SMOOTH",
"98 517 OFFCURVE",
"33 452 OFFCURVE",
"33 358 CURVE SMOOTH",
"33 327 OFFCURVE",
"33 286 OFFCURVE",
"33 255 CURVE SMOOTH",
"33 221 OFFCURVE",
"33 185 OFFCURVE",
"33 151 CURVE SMOOTH",
"33 54 OFFCURVE",
"98 -8 OFFCURVE",
"203 -8 CURVE SMOOTH"
);
}
);
width = 403;
},
{
anchors = (
{
name = bottom;
position = "{233, -5}";
},
{
name = ogonek;
position = "{419, 10}";
},
{
name = top;
position = "{233, 504}";
}
);
associatedMasterId = "4E2227F3-52E4-4048-A8EE-327B486EF0A4";
hints = (
{
horizontal = 1;
origin = "{0, 27}";
target = "{0, 26}";
type = Stem;
},
{
origin = "{0, 24}";
target = "{0, 28}";
type = Stem;
},
{
origin = "{0, 40}";
target = "{0, 12}";
type = Stem;
},
{
horizontal = 1;
origin = "{0, 46}";
target = "{0, 6}";
type = Stem;
},
{
horizontal = 1;
origin = "{0, 34}";
target = "{0, 18}";
type = Stem;
}
);
layerId = "760AC3E6-CE82-4E46-8443-13CF55BA59C8";
name = "{53,400}";
paths = (
{
closed = 1;
nodes = (
"323 -8 OFFCURVE",
"385 42 OFFCURVE",
"403 118 CURVE",
"354 127 LINE",
"340 75 OFFCURVE",
"297 39 OFFCURVE",
"237 39 CURVE SMOOTH",
"170 39 OFFCURVE",
"125 82 OFFCURVE",
"118 145 CURVE SMOOTH",
"116 172 OFFCURVE",
"116 209 OFFCURVE",
"116 252 CURVE SMOOTH",
"116 293 OFFCURVE",
"116 330 OFFCURVE",
"118 359 CURVE SMOOTH",
"125 421 OFFCURVE",
"169 465 OFFCURVE",
"235 465 CURVE SMOOTH",
"300 465 OFFCURVE",
"345 421 OFFCURVE",
"352 359 CURVE SMOOTH",
"354 332 OFFCURVE",
"355 295 OFFCURVE",
"355 262 CURVE",
"375 277 LINE",
"99 277 LINE",
"99 232 LINE",
"408 232 LINE",
"408 285 OFFCURVE",
"408 325 OFFCURVE",
"405 360 CURVE SMOOTH",
"397 449 OFFCURVE",
"333 512 OFFCURVE",
"234 512 CURVE SMOOTH",
"142 512 OFFCURVE",
"77 452 OFFCURVE",
"67 367 CURVE SMOOTH",
"63 334 OFFCURVE",
"63 297 OFFCURVE",
"63 252 CURVE SMOOTH",
"63 207 OFFCURVE",
"63 168 OFFCURVE",
"69 132 CURVE SMOOTH",
"81 49 OFFCURVE",
"143 -8 OFFCURVE",
"236 -8 CURVE SMOOTH"
);
}
);
width = 465;
},
{
anchors = (
{
name = bottom;
position = "{280, -10}";
},
{
name = ogonek;
position = "{485, 10}";
},
{
name = top;
position = "{266, 515}";
}
);
associatedMasterId = "4E2227F3-52E4-4048-A8EE-327B486EF0A4";
hints = (
{
place = "{23.898, 23.684}";
type = Stem;
},
{
place = "{147.547, 14.889}";
type = Stem;
},
{
horizontal = 1;
place = "{80.273, 10.495}";
type = Stem;
},
{
horizontal = 1;
place = "{179.632, -19.026}";
type = Stem;
},
{
horizontal = 1;
place = "{-2.804, 19.026}";
type = Stem;
},
{
place = "{139.18, 21.889}";
type = Stem;
}
);
layerId = "2A2CF652-FDA6-4CD5-BE40-6F49EDC401C9";
name = "{144,500}";
paths = (
{
closed = 1;
nodes = (
"371 -9 OFFCURVE",
"449 25 OFFCURVE",
"493 86 CURVE",
"403 177 LINE",
"382 142 OFFCURVE",
"348 116 OFFCURVE",
"296 115 CURVE SMOOTH",
"239 114 OFFCURVE",
"208 136 OFFCURVE",
"192 169 CURVE SMOOTH",
"181 192 OFFCURVE",
"176 217 OFFCURVE",
"176 257 CURVE SMOOTH",
"176 290 OFFCURVE",
"179 319 OFFCURVE",
"186 341 CURVE SMOOTH",
"199 378 OFFCURVE",
"225 399 OFFCURVE",
"267 399 CURVE SMOOTH",
"311 399 OFFCURVE",
"341 377 OFFCURVE",
"353 337 CURVE SMOOTH",
"358 318 OFFCURVE",
"361 290 OFFCURVE",
"361 261 CURVE",
"416 306 LINE",
"134 306 LINE",
"134 213 LINE",
"505 213 LINE",
"507 248 OFFCURVE",
"507 279 OFFCURVE",
"502 310 CURVE SMOOTH",
"484 435 OFFCURVE",
"403 523 OFFCURVE",
"266 523 CURVE SMOOTH",
"160 523 OFFCURVE",
"79 462 OFFCURVE",
"48 368 CURVE SMOOTH",
"37 337 OFFCURVE",
"32 300 OFFCURVE",
"33 262 CURVE SMOOTH",
"33 216 OFFCURVE",
"40 176 OFFCURVE",
"54 142 CURVE SMOOTH",
"88 50 OFFCURVE",
"168 -8 OFFCURVE",
"283 -8 CURVE SMOOTH"
);
}
);
width = 534;
},
{
anchors = (
{
name = bottom;
position = "{242, -8}";
},
{
name = ogonek;
position = "{455, 10}";
},
{
name = top;
position = "{245, 500}";
}
);
hints = (
{
horizontal = 1;
origin = "{0, 27}";
target = "{0, 26}";
type = Stem;
},
{
origin = "{0, 24}";
target = "{0, 28}";
type = Stem;
},
{
origin = "{0, 40}";
target = "{0, 12}";
type = Stem;
},
{
horizontal = 1;
origin = "{0, 46}";
target = "{0, 6}";
type = Stem;
},
{
horizontal = 1;
origin = "{0, 34}";
target = "{0, 18}";
type = Stem;
}
);
layerId = "262880E7-CFE1-4BDA-902E-E24798F3240A";
paths = (
{
closed = 1;
nodes = (
"337 -8 OFFCURVE",
"402 44 OFFCURVE",
"422 116 CURVE",
"400 117 LINE",
"381 56 OFFCURVE",
"325 13 OFFCURVE",
"246 13 CURVE SMOOTH",
"161 13 OFFCURVE",
"103 63 OFFCURVE",
"90 135 CURVE SMOOTH",
"86 156 OFFCURVE",
"86 193 OFFCURVE",
"86 250 CURVE SMOOTH",
"86 302 OFFCURVE",
"86 343 OFFCURVE",
"90 365 CURVE SMOOTH",
"103 436 OFFCURVE",
"161 487 OFFCURVE",
"246 487 CURVE SMOOTH",
"331 487 OFFCURVE",
"389 436 OFFCURVE",
"403 365 CURVE SMOOTH",
"407 345 OFFCURVE",
"408 302 OFFCURVE",
"408 258 CURVE",
"417 267 LINE",
"76 267 LINE",
"76 247 LINE",
"430 247 LINE",
"430 333 OFFCURVE",
"430 350 OFFCURVE",
"424 377 CURVE SMOOTH",
"407 454 OFFCURVE",
"339 508 OFFCURVE",
"246 508 CURVE SMOOTH",
"154 508 OFFCURVE",
"89 454 OFFCURVE",
"71 377 CURVE SMOOTH",
"64 345 OFFCURVE",
"64 310 OFFCURVE",
"64 251 CURVE SMOOTH",
"64 195 OFFCURVE",
"63 156 OFFCURVE",
"71 123 CURVE SMOOTH",
"90 46 OFFCURVE",
"154 -8 OFFCURVE",
"246 -8 CURVE SMOOTH"
);
}
);
width = 488;
},
{
anchors = (
{
name = top;
position = "{226, 498}";
}
);
associatedMasterId = "262880E7-CFE1-4BDA-902E-E24798F3240A";
layerId = "2EFA006A-DDA3-4D17-BF31-C40C040EE571";
name = "Feb 24 17, 00:11";
paths = (
{
closed = 1;
nodes = (
"307 -8 OFFCURVE",
"370 42 OFFCURVE",
"385 116 CURVE",
"364 115 LINE",
"348 54 OFFCURVE",
"293 13 OFFCURVE",
"227 13 CURVE SMOOTH",
"137 13 OFFCURVE",
"77 81 OFFCURVE",
"77 182 CURVE SMOOTH",
"77 318 LINE SMOOTH",
"77 419 OFFCURVE",
"137 487 OFFCURVE",
"226 487 CURVE SMOOTH",
"316 487 OFFCURVE",
"376 419 OFFCURVE",
"376 318 CURVE SMOOTH",
"376 267 LINE",
"67 267 LINE",
"67 246 LINE",
"398 246 LINE",
"398 316 LINE SMOOTH",
"398 431 OFFCURVE",
"329 508 OFFCURVE",
"226 508 CURVE SMOOTH",
"123 508 OFFCURVE",
"55 432 OFFCURVE",
"55 317 CURVE SMOOTH",
"55 183 LINE SMOOTH",
"55 68 OFFCURVE",
"124 -8 OFFCURVE",
"227 -8 CURVE SMOOTH"
);
}
);
width = 453;
},
{
anchors = (
{
name = bottom;
position = "{275, 0}";
},
{
name = ogonek;
position = "{494, 10}";
},
{
name = top;
position = "{275, 520}";
}
);
guideLines = (
{
position = "{828, 79}";
},
{
position = "{1486, 267}";
},
{
position = "{1228, 193}";
},
{
position = "{1616, 306}";
},
{
position = "{945, 113}";
}
);
layerId = "FFFA8D72-12AC-4CE0-B2CA-57A29829F4DA";
paths = (
{
closed = 1;
nodes = (
"379 -8 OFFCURVE",
"458 15 OFFCURVE",
"507 69 CURVE",
"412 190 LINE",
"392 165 OFFCURVE",
"355 148 OFFCURVE",
"312 148 CURVE SMOOTH",
"268 148 OFFCURVE",
"232 166 OFFCURVE",
"219 188 CURVE SMOOTH",
"208 206 OFFCURVE",
"206 230 OFFCURVE",
"206 258 CURVE SMOOTH",
"206 288 OFFCURVE",
"209 309 OFFCURVE",
"216 327 CURVE SMOOTH",
"226 352 OFFCURVE",
"244 367 OFFCURVE",
"273 367 CURVE SMOOTH",
"304 367 OFFCURVE",
"325 352 OFFCURVE",
"332 327 CURVE SMOOTH",
"337 310 OFFCURVE",
"342 290 OFFCURVE",
"342 262 CURVE",
"413 310 LINE",
"153 310 LINE",
"153 213 LINE",
"529 213 LINE",
"532 242 OFFCURVE",
"532 270 OFFCURVE",
"528 297 CURVE SMOOTH",
"508 429 OFFCURVE",
"405 528 OFFCURVE",
"274 528 CURVE SMOOTH",
"161 528 OFFCURVE",
"75 466 OFFCURVE",
"39 366 CURVE SMOOTH",
"27 333 OFFCURVE",
"21 295 OFFCURVE",
"21 254 CURVE SMOOTH",
"21 212 OFFCURVE",
"29 175 OFFCURVE",
"43 142 CURVE SMOOTH",
"83 47 OFFCURVE",
"173 -8 OFFCURVE",
"298 -8 CURVE SMOOTH"
);
}
);
width = 549;
},
{
anchors = (
{
name = bottom;
position = "{240, -7}";
},
{
name = ogonek;
position = "{427, 10}";
},
{
name = top;
position = "{236, 509}";
}
);
associatedMasterId = "4E2227F3-52E4-4048-A8EE-327B486EF0A4";
hints = (
{
place = "{2.063, 28.899}";
type = Stem;
},
{
place = "{150.309, 25.722}";
type = Stem;
},
{
horizontal = 1;
place = "{50.868, 28.535}";
type = Stem;
},
{
horizontal = 1;
place = "{218.464, 21.155}";
type = Stem;
},
{
horizontal = 1;
place = "{-0.701, 4.756}";
type = Stem;
},
{
place = "{285.106, -17.506}";
type = Stem;
}
);
layerId = "6A71C6C0-6498-4E03-A0EC-57F8322562B8";
name = "{100,400}";
paths = (
{
closed = 1;
nodes = (
"338 -8 OFFCURVE",
"404 43 OFFCURVE",
"427 128 CURVE",
"337 148 LINE",
"324 106 OFFCURVE",
"291 78 OFFCURVE",
"243 78 CURVE SMOOTH",
"190 78 OFFCURVE",
"155 111 OFFCURVE",
"148 159 CURVE SMOOTH",
"145 184 OFFCURVE",
"145 217 OFFCURVE",
"145 255 CURVE SMOOTH",
"145 291 OFFCURVE",
"145 323 OFFCURVE",
"148 350 CURVE SMOOTH",
"154 398 OFFCURVE",
"187 431 OFFCURVE",
"238 431 CURVE SMOOTH",
"288 431 OFFCURVE",
"322 397 OFFCURVE",
"328 349 CURVE SMOOTH",
"331 325 OFFCURVE",
"332 294 OFFCURVE",
"332 265 CURVE",
"368 289 LINE",
"115 289 LINE",
"115 209 LINE",
"432 209 LINE",
"432 248 OFFCURVE",
"432 307 OFFCURVE",
"429 345 CURVE SMOOTH",
"421 447 OFFCURVE",
"351 517 OFFCURVE",
"237 517 CURVE SMOOTH",
"133 517 OFFCURVE",
"62 454 OFFCURVE",
"50 361 CURVE SMOOTH",
"45 331 OFFCURVE",
"44 293 OFFCURVE",
"45 255 CURVE SMOOTH",
"45 212 OFFCURVE",
"46 174 OFFCURVE",
"53 139 CURVE SMOOTH",
"70 49 OFFCURVE",
"135 -8 OFFCURVE",
"242 -8 CURVE SMOOTH"
);
}
);
width = 473;
},
{
anchors = (
{
name = bottom;
position = "{259, -8}";
},
{
name = top;
position = "{262, 500}";
}
);
associatedMasterId = "262880E7-CFE1-4BDA-902E-E24798F3240A";
hints = (
{
horizontal = 1;
origin = "{0, 27}";
target = "{0, 26}";
type = Stem;
},
{
origin = "{0, 24}";
target = "{0, 28}";
type = Stem;
},
{
origin = "{0, 40}";
target = "{0, 12}";
type = Stem;
},
{
horizontal = 1;
origin = "{0, 46}";
target = "{0, 6}";
type = Stem;
},
{
horizontal = 1;
origin = "{0, 34}";
target = "{0, 18}";
type = Stem;
}
);
layerId = "7CC44197-52E2-415C-A2F7-9CC81F3B3C8A";
name = "Dec 5 17, 03:03";
paths = (
{
closed = 1;
nodes = (
"354 -8 OFFCURVE",
"419 44 OFFCURVE",
"439 116 CURVE",
"417 117 LINE",
"398 56 OFFCURVE",
"342 13 OFFCURVE",
"263 13 CURVE SMOOTH",
"178 13 OFFCURVE",
"120 63 OFFCURVE",
"107 135 CURVE SMOOTH",
"103 156 OFFCURVE",
"103 193 OFFCURVE",
"103 250 CURVE SMOOTH",
"103 302 OFFCURVE",
"103 343 OFFCURVE",
"107 365 CURVE SMOOTH",
"120 436 OFFCURVE",
"178 487 OFFCURVE",
"263 487 CURVE SMOOTH",
"348 487 OFFCURVE",
"406 436 OFFCURVE",
"420 365 CURVE SMOOTH",
"424 345 OFFCURVE",
"425 302 OFFCURVE",
"425 258 CURVE",
"434 267 LINE",
"93 267 LINE",
"93 247 LINE",
"447 247 LINE",
"447 333 OFFCURVE",
"447 350 OFFCURVE",
"441 377 CURVE SMOOTH",
"424 454 OFFCURVE",
"356 508 OFFCURVE",
"263 508 CURVE SMOOTH",
"171 508 OFFCURVE",
"106 454 OFFCURVE",
"88 377 CURVE SMOOTH",
"81 345 OFFCURVE",
"81 310 OFFCURVE",
"81 251 CURVE SMOOTH",
"81 195 OFFCURVE",
"80 156 OFFCURVE",
"88 123 CURVE SMOOTH",
"107 46 OFFCURVE",
"171 -8 OFFCURVE",
"263 -8 CURVE SMOOTH"
);
}
);
width = 525;
},
{
anchors = (
{
name = bottom;
position = "{261, -9}";
},
{
name = ogonek;
position = "{452, 10}";
},
{
name = top;
position = "{251, 520}";
}
);
associatedMasterId = "262880E7-CFE1-4BDA-902E-E24798F3240A";
layerId = "77539BFB-0A83-4960-9558-E507C43AA1DE";
name = "{188,400}";
paths = (
{
closed = 1;
nodes = (
"374 -8 OFFCURVE",
"449 48 OFFCURVE",
"481 156 CURVE",
"309 188 LINE",
"301 166 OFFCURVE",
"286 153 OFFCURVE",
"262 152 CURVE SMOOTH",
"236 151 OFFCURVE",
"221 164 OFFCURVE",
"214 186 CURVE SMOOTH",
"208 205 OFFCURVE",
"207 231 OFFCURVE",
"207 259 CURVE SMOOTH",
"207 287 OFFCURVE",
"208 310 OFFCURVE",
"212 331 CURVE SMOOTH",
"217 353 OFFCURVE",
"230 367 OFFCURVE",
"252 367 CURVE SMOOTH",
"274 367 OFFCURVE",
"288 353 OFFCURVE",
"292 331 CURVE SMOOTH",
"295 313 OFFCURVE",
"297 293 OFFCURVE",
"297 271 CURVE",
"364 308 LINE",
"155 308 LINE",
"155 213 LINE",
"485 213 LINE",
"486 232 OFFCURVE",
"486 281 OFFCURVE",
"484 324 CURVE SMOOTH",
"475 443 OFFCURVE",
"385 528 OFFCURVE",
"250 528 CURVE SMOOTH",
"127 528 OFFCURVE",
"42 457 OFFCURVE",
"25 349 CURVE SMOOTH",
"21 325 OFFCURVE",
"18 286 OFFCURVE",
"19 260 CURVE SMOOTH",
"19 223 OFFCURVE",
"22 190 OFFCURVE",
"29 160 CURVE SMOOTH",
"54 52 OFFCURVE",
"126 -8 OFFCURVE",
"263 -8 CURVE SMOOTH"
);
}
);
width = 502;
},
{
anchors = (
{
name = bottom;
position = "{259, -8}";
},
{
name = top;
position = "{262, 500}";
}
);
associatedMasterId = "262880E7-CFE1-4BDA-902E-E24798F3240A";
hints = (
{
horizontal = 1;
origin = "{0, 27}";
target = "{0, 26}";
type = Stem;
},
{
origin = "{0, 24}";
target = "{0, 28}";
type = Stem;
},
{
origin = "{0, 40}";
target = "{0, 12}";
type = Stem;
},
{
horizontal = 1;
origin = "{0, 46}";
target = "{0, 6}";
type = Stem;
},
{
horizontal = 1;
origin = "{0, 34}";
target = "{0, 18}";
type = Stem;
}
);
layerId = "A6FFD31F-04FC-4B82-B657-5B2E8C900C9B";
name = "Dec 5 17, 03:03";
paths = (
{
closed = 1;
nodes = (
"354 -8 OFFCURVE",
"419 44 OFFCURVE",
"439 116 CURVE",
"417 117 LINE",
"398 56 OFFCURVE",
"342 13 OFFCURVE",
"263 13 CURVE SMOOTH",
"178 13 OFFCURVE",
"120 63 OFFCURVE",
"107 135 CURVE SMOOTH",
"103 156 OFFCURVE",
"103 193 OFFCURVE",
"103 250 CURVE SMOOTH",
"103 302 OFFCURVE",
"103 343 OFFCURVE",
"107 365 CURVE SMOOTH",
"120 436 OFFCURVE",
"178 487 OFFCURVE",
"263 487 CURVE SMOOTH",
"348 487 OFFCURVE",
"406 436 OFFCURVE",
"420 365 CURVE SMOOTH",
"424 345 OFFCURVE",
"425 302 OFFCURVE",
"425 258 CURVE",
"434 267 LINE",
"93 267 LINE",
"93 247 LINE",
"447 247 LINE",
"447 333 OFFCURVE",
"447 350 OFFCURVE",
"441 377 CURVE SMOOTH",
"424 454 OFFCURVE",
"356 508 OFFCURVE",
"263 508 CURVE SMOOTH",
"171 508 OFFCURVE",
"106 454 OFFCURVE",
"88 377 CURVE SMOOTH",
"81 345 OFFCURVE",
"81 310 OFFCURVE",
"81 251 CURVE SMOOTH",
"81 195 OFFCURVE",
"80 156 OFFCURVE",
"88 123 CURVE SMOOTH",
"107 46 OFFCURVE",
"171 -8 OFFCURVE",
"263 -8 CURVE SMOOTH"
);
}
);
width = 525;
},
{
anchors = (
{
name = bottom;
position = "{233, -5}";
},
{
name = ogonek;
position = "{419, 10}";
},
{
name = top;
position = "{233, 504}";
}
);
associatedMasterId = "4E2227F3-52E4-4048-A8EE-327B486EF0A4";
hints = (
{
horizontal = 1;
origin = "{0, 27}";
target = "{0, 26}";
type = Stem;
},
{
origin = "{0, 24}";
target = "{0, 28}";
type = Stem;
},
{
origin = "{0, 40}";
target = "{0, 12}";
type = Stem;
},
{
horizontal = 1;
origin = "{0, 46}";
target = "{0, 6}";
type = Stem;
},
{
horizontal = 1;
origin = "{0, 34}";
target = "{0, 18}";
type = Stem;
}
);
layerId = "B9A583A1-7CC2-472E-97DA-5B156B5B5DEE";
name = "{53,400} Jan 10 18, 13:34";
paths = (
{
closed = 1;
nodes = (
"323 -8 OFFCURVE",
"385 42 OFFCURVE",
"403 118 CURVE",
"354 127 LINE",
"340 75 OFFCURVE",
"297 39 OFFCURVE",
"237 39 CURVE SMOOTH",
"170 39 OFFCURVE",
"125 82 OFFCURVE",
"118 145 CURVE SMOOTH",
"116 172 OFFCURVE",
"116 209 OFFCURVE",
"116 252 CURVE SMOOTH",
"116 293 OFFCURVE",
"116 330 OFFCURVE",
"118 359 CURVE SMOOTH",
"125 421 OFFCURVE",
"169 465 OFFCURVE",
"235 465 CURVE SMOOTH",
"300 465 OFFCURVE",
"345 421 OFFCURVE",
"352 359 CURVE SMOOTH",
"354 332 OFFCURVE",
"355 295 OFFCURVE",
"355 262 CURVE",
"375 277 LINE",
"99 277 LINE",
"99 232 LINE",
"408 232 LINE",
"408 285 OFFCURVE",
"408 325 OFFCURVE",
"405 360 CURVE SMOOTH",
"397 449 OFFCURVE",
"333 512 OFFCURVE",
"234 512 CURVE SMOOTH",
"142 512 OFFCURVE",
"77 452 OFFCURVE",
"67 367 CURVE SMOOTH",
"63 334 OFFCURVE",
"63 297 OFFCURVE",
"63 252 CURVE SMOOTH",
"63 207 OFFCURVE",
"63 168 OFFCURVE",
"69 132 CURVE SMOOTH",
"81 49 OFFCURVE",
"143 -8 OFFCURVE",
"236 -8 CURVE SMOOTH"
);
}
);
width = 465;
},
{
anchors = (
{
name = bottom;
position = "{194, 0}";
},
{
name = ogonek;
position = "{349, 10}";
},
{
name = top;
position = "{194, 500}";
}
);
associatedMasterId = "DCBE1F7B-116A-43E0-B7B4-8657BA77D8B5";
layerId = "E9BB31EC-A6F9-409B-96D6-4D1184DC26D9";
name = "Jan 10 18, 13:35";
paths = (
{
closed = 1;
nodes = (
"268 -8 OFFCURVE",
"320 40 OFFCURVE",
"330 109 CURVE",
"308 109 LINE",
"298 52 OFFCURVE",
"255 13 OFFCURVE",
"197 13 CURVE SMOOTH",
"131 13 OFFCURVE",
"85 63 OFFCURVE",
"85 135 CURVE SMOOTH",
"85 173 OFFCURVE",
"85 212 OFFCURVE",
"85 250 CURVE SMOOTH",
"85 288 OFFCURVE",
"85 327 OFFCURVE",
"85 365 CURVE SMOOTH",
"85 437 OFFCURVE",
"131 487 OFFCURVE",
"197 487 CURVE SMOOTH",
"264 487 OFFCURVE",
"310 437 OFFCURVE",
"310 365 CURVE SMOOTH",
"310 327 OFFCURVE",
"310 288 OFFCURVE",
"310 261 CURVE",
"319 267 LINE",
"77 267 LINE",
"77 247 LINE",
"332 247 LINE",
"332 287 OFFCURVE",
"332 327 OFFCURVE",
"332 365 CURVE SMOOTH",
"332 448 OFFCURVE",
"277 508 OFFCURVE",
"197 508 CURVE SMOOTH",
"118 508 OFFCURVE",
"63 448 OFFCURVE",
"63 365 CURVE SMOOTH",
"63 327 OFFCURVE",
"63 288 OFFCURVE",
"63 250 CURVE SMOOTH",
"63 212 OFFCURVE",
"63 173 OFFCURVE",
"63 135 CURVE SMOOTH",
"63 52 OFFCURVE",
"118 -8 OFFCURVE",
"197 -8 CURVE SMOOTH"
);
}
);
width = 388;
}
);
leftKerningGroup = o;
rightKerningGroup = e;
unicode = 0065;
},
{
color = 7;
glyphname = eopen;
layers = (
{
background = {
paths = (
{
closed = 1;
nodes = (
"260 -8 OFFCURVE",
"315 52 OFFCURVE",
"315 115 CURVE SMOOTH",
"315 117 OFFCURVE",
"315 125 OFFCURVE",
"315 127 CURVE",
"293 127 LINE",
"293 125 OFFCURVE",
"293 117 OFFCURVE",
"293 115 CURVE SMOOTH",
"293 63 OFFCURVE",
"247 13 OFFCURVE",
"180 13 CURVE SMOOTH",
"114 13 OFFCURVE",
"68 63 OFFCURVE",
"68 135 CURVE SMOOTH",
"68 173 OFFCURVE",
"68 212 OFFCURVE",
"68 250 CURVE SMOOTH",
"68 288 OFFCURVE",
"68 327 OFFCURVE",
"68 365 CURVE SMOOTH",
"68 437 OFFCURVE",
"114 487 OFFCURVE",
"180 487 CURVE SMOOTH",
"247 487 OFFCURVE",
"293 437 OFFCURVE",
"293 385 CURVE SMOOTH",
"293 383 OFFCURVE",
"293 375 OFFCURVE",
"293 373 CURVE",
"315 373 LINE",
"315 374 OFFCURVE",
"315 384 OFFCURVE",
"315 385 CURVE SMOOTH",
"315 448 OFFCURVE",
"260 508 OFFCURVE",
"180 508 CURVE SMOOTH",
"101 508 OFFCURVE",
"46 448 OFFCURVE",
"46 365 CURVE SMOOTH",
"46 327 OFFCURVE",
"46 288 OFFCURVE",
"46 250 CURVE SMOOTH",
"46 212 OFFCURVE",
"46 173 OFFCURVE",
"46 135 CURVE SMOOTH",
"46 52 OFFCURVE",
"101 -8 OFFCURVE",
"180 -8 CURVE SMOOTH"
);
}
);
};
layerId = "DCBE1F7B-116A-43E0-B7B4-8657BA77D8B5";
paths = (
{
closed = 1;
nodes = (
"260 -9 OFFCURVE",
"313 39 OFFCURVE",
"313 117 CURVE SMOOTH",
"313 127 LINE",
"291 127 LINE",
"291 116 LINE SMOOTH",
"291 51 OFFCURVE",
"246 12 OFFCURVE",
"179 12 CURVE SMOOTH",
"112 12 OFFCURVE",
"65 62 OFFCURVE",
"65 127 CURVE SMOOTH",
"65 135 LINE SMOOTH",
"65 211 OFFCURVE",
"116 250 OFFCURVE",
"191 250 CURVE SMOOTH",
"231 250 LINE",
"231 269 LINE",
"191 269 LINE SMOOTH",
"113 269 OFFCURVE",
"66 310 OFFCURVE",
"66 379 CURVE SMOOTH",
"66 382 LINE SMOOTH",
"66 445 OFFCURVE",
"112 487 OFFCURVE",
"179 487 CURVE SMOOTH",
"246 487 OFFCURVE",
"291 442 OFFCURVE",
"291 386 CURVE SMOOTH",
"291 373 LINE",
"313 373 LINE",
"313 384 LINE SMOOTH",
"313 454 OFFCURVE",
"260 508 OFFCURVE",
"179 508 CURVE SMOOTH",
"99 508 OFFCURVE",
"44 457 OFFCURVE",
"44 380 CURVE SMOOTH",
"44 380 LINE SMOOTH",
"44 316 OFFCURVE",
"78 273 OFFCURVE",
"138 257 CURVE",
"137 262 LINE",
"76 245 OFFCURVE",
"43 201 OFFCURVE",
"43 134 CURVE SMOOTH",
"43 128 LINE SMOOTH",
"43 51 OFFCURVE",
"99 -9 OFFCURVE",
"179 -9 CURVE SMOOTH"
);
}
);
width = 347;
},
{
background = {
paths = (
{
closed = 1;
nodes = (
"360 -8 OFFCURVE",
"436 57 OFFCURVE",
"436 170 CURVE SMOOTH",
"436 181 OFFCURVE",
"436 197 OFFCURVE",
"436 213 CURVE",
"248 215 LINE",
"248 205 OFFCURVE",
"248 195 OFFCURVE",
"248 185 CURVE SMOOTH",
"248 166 OFFCURVE",
"239 153 OFFCURVE",
"226 153 CURVE SMOOTH",
"212 153 OFFCURVE",
"203 166 OFFCURVE",
"203 185 CURVE SMOOTH",
"203 210 OFFCURVE",
"203 235 OFFCURVE",
"203 260 CURVE SMOOTH",
"203 285 OFFCURVE",
"203 310 OFFCURVE",
"203 335 CURVE SMOOTH",
"203 354 OFFCURVE",
"212 367 OFFCURVE",
"226 367 CURVE SMOOTH",
"239 367 OFFCURVE",
"248 354 OFFCURVE",
"248 335 CURVE SMOOTH",
"248 325 OFFCURVE",
"248 316 OFFCURVE",
"248 306 CURVE",
"436 313 LINE",
"436 327 OFFCURVE",
"436 340 OFFCURVE",
"436 350 CURVE SMOOTH",
"436 456 OFFCURVE",
"360 528 OFFCURVE",
"226 528 CURVE SMOOTH",
"92 528 OFFCURVE",
"15 456 OFFCURVE",
"15 350 CURVE SMOOTH",
"15 327 OFFCURVE",
"15 283 OFFCURVE",
"15 260 CURVE SMOOTH",
"15 237 OFFCURVE",
"15 193 OFFCURVE",
"15 170 CURVE SMOOTH",
"15 57 OFFCURVE",
"92 -8 OFFCURVE",
"226 -8 CURVE SMOOTH"
);
}
);
};
layerId = "4E2227F3-52E4-4048-A8EE-327B486EF0A4";
paths = (
{
closed = 1;
nodes = (
"352 -8 OFFCURVE",
"435 62 OFFCURVE",
"435 166 CURVE SMOOTH",
"435 179 LINE",
"253 185 LINE",
"253 172 LINE SMOOTH",
"253 156 OFFCURVE",
"243 145 OFFCURVE",
"230 145 CURVE SMOOTH",
"217 145 OFFCURVE",
"208 158 OFFCURVE",
"208 169 CURVE SMOOTH",
"208 187 LINE SMOOTH",
"208 206 OFFCURVE",
"217 219 OFFCURVE",
"240 219 CURVE SMOOTH",
"306 219 LINE",
"306 311 LINE",
"238 311 LINE SMOOTH",
"217 311 OFFCURVE",
"207 319 OFFCURVE",
"207 334 CURVE SMOOTH",
"207 354 LINE SMOOTH",
"207 364 OFFCURVE",
"216 376 OFFCURVE",
"229 376 CURVE SMOOTH",
"242 376 OFFCURVE",
"252 364 OFFCURVE",
"252 354 CURVE SMOOTH",
"252 342 LINE",
"435 349 LINE",
"435 361 LINE SMOOTH",
"435 466 OFFCURVE",
"351 528 OFFCURVE",
"226 528 CURVE SMOOTH",
"103 528 OFFCURVE",
"22 461 OFFCURVE",
"22 374 CURVE SMOOTH",
"22 370 LINE SMOOTH",
"22 314 OFFCURVE",
"60 264 OFFCURVE",
"132 246 CURVE",
"115 286 LINE",
"58 259 OFFCURVE",
"14 225 OFFCURVE",
"14 152 CURVE SMOOTH",
"14 149 LINE SMOOTH",
"14 57 OFFCURVE",
"100 -8 OFFCURVE",
"230 -8 CURVE SMOOTH"
);
}
);
width = 444;
},
{
background = {
paths = (
{
closed = 1;
nodes = (
"330 -8 OFFCURVE",
"400 45 OFFCURVE",
"414 113 CURVE SMOOTH",
"417 124 OFFCURVE",
"417 129 OFFCURVE",
"418 137 CURVE",
"397 139 LINE",
"395 131 OFFCURVE",
"396 131 OFFCURVE",
"395 125 CURVE SMOOTH",
"385 64 OFFCURVE",
"322 13 OFFCURVE",
"237 13 CURVE SMOOTH",
"152 13 OFFCURVE",
"95 63 OFFCURVE",
"81 135 CURVE SMOOTH",
"77 156 OFFCURVE",
"73 193 OFFCURVE",
"73 250 CURVE SMOOTH",
"73 302 OFFCURVE",
"77 343 OFFCURVE",
"81 365 CURVE SMOOTH",
"94 436 OFFCURVE",
"152 487 OFFCURVE",
"237 487 CURVE SMOOTH",
"322 487 OFFCURVE",
"382 436 OFFCURVE",
"394 375 CURVE SMOOTH",
"396 369 OFFCURVE",
"397 361 OFFCURVE",
"398 352 CURVE",
"420 353 LINE",
"419 363 OFFCURVE",
"417 376 OFFCURVE",
"414 387 CURVE SMOOTH",
"398 454 OFFCURVE",
"330 508 OFFCURVE",
"237 508 CURVE SMOOTH",
"145 508 OFFCURVE",
"80 454 OFFCURVE",
"62 377 CURVE SMOOTH",
"55 345 OFFCURVE",
"51 310 OFFCURVE",
"51 251 CURVE SMOOTH",
"51 195 OFFCURVE",
"54 156 OFFCURVE",
"62 123 CURVE SMOOTH",
"81 46 OFFCURVE",
"145 -8 OFFCURVE",
"237 -8 CURVE SMOOTH"
);
}
);
};
layerId = "262880E7-CFE1-4BDA-902E-E24798F3240A";
paths = (
{
closed = 1;
nodes = (
"345 -6 OFFCURVE",
"417 58 OFFCURVE",
"417 143 CURVE SMOOTH",
"417 150 LINE",
"395 152 LINE",
"395 142 LINE SMOOTH",
"395 70 OFFCURVE",
"332 15 OFFCURVE",
"238 15 CURVE SMOOTH",
"144 15 OFFCURVE",
"80 66 OFFCURVE",
"80 134 CURVE SMOOTH",
"80 134 LINE SMOOTH",
"80 204 OFFCURVE",
"136 250 OFFCURVE",
"219 250 CURVE SMOOTH",
"310 250 LINE",
"310 270 LINE",
"220 270 LINE SMOOTH",
"139 270 OFFCURVE",
"86 311 OFFCURVE",
"86 374 CURVE SMOOTH",
"86 374 LINE SMOOTH",
"86 439 OFFCURVE",
"146 487 OFFCURVE",
"238 487 CURVE SMOOTH",
"333 487 OFFCURVE",
"395 429 OFFCURVE",
"395 360 CURVE SMOOTH",
"395 350 LINE",
"417 351 LINE",
"417 359 LINE SMOOTH",
"417 441 OFFCURVE",
"346 508 OFFCURVE",
"238 508 CURVE SMOOTH",
"133 508 OFFCURVE",
"64 451 OFFCURVE",
"64 375 CURVE SMOOTH",
"64 375 LINE SMOOTH",
"64 316 OFFCURVE",
"103 273 OFFCURVE",
"164 257 CURVE",
"164 262 LINE",
"99 246 OFFCURVE",
"58 197 OFFCURVE",
"58 134 CURVE SMOOTH",
"58 134 LINE SMOOTH",
"58 52 OFFCURVE",
"131 -6 OFFCURVE",
"238 -6 CURVE SMOOTH"
);
}
);
width = 467;
},
{
background = {
paths = (
{
closed = 1;
nodes = (
"381 -8 OFFCURVE",
"476 45 OFFCURVE",
"511 144 CURVE SMOOTH",
"518 164 OFFCURVE",
"519 185 OFFCURVE",
"519 189 CURVE",
"334 219 LINE",
"333 208 OFFCURVE",
"332 202 OFFCURVE",
"331 199 CURVE SMOOTH",
"320 167 OFFCURVE",
"298 153 OFFCURVE",
"271 153 CURVE SMOOTH",
"243 153 OFFCURVE",
"224 167 OFFCURVE",
"213 193 CURVE SMOOTH",
"206 211 OFFCURVE",
"202 234 OFFCURVE",
"202 262 CURVE SMOOTH",
"202 291 OFFCURVE",
"206 314 OFFCURVE",
"214 331 CURVE SMOOTH",
"225 355 OFFCURVE",
"244 367 OFFCURVE",
"271 367 CURVE SMOOTH",
"301 367 OFFCURVE",
"324 349 OFFCURVE",
"331 327 CURVE SMOOTH",
"334 318 OFFCURVE",
"336 305 OFFCURVE",
"337 298 CURVE",
"521 327 LINE",
"521 329 OFFCURVE",
"522 349 OFFCURVE",
"511 379 CURVE SMOOTH",
"481 462 OFFCURVE",
"389 528 OFFCURVE",
"272 528 CURVE SMOOTH",
"160 528 OFFCURVE",
"69 471 OFFCURVE",
"32 376 CURVE SMOOTH",
"21 348 OFFCURVE",
"12 310 OFFCURVE",
"12 263 CURVE SMOOTH",
"12 225 OFFCURVE",
"18 185 OFFCURVE",
"32 149 CURVE SMOOTH",
"70 51 OFFCURVE",
"159 -8 OFFCURVE",
"272 -8 CURVE SMOOTH"
);
}
);
};
layerId = "FFFA8D72-12AC-4CE0-B2CA-57A29829F4DA";
paths = (
{
closed = 1;
nodes = (
"424 -8 OFFCURVE",
"499 70 OFFCURVE",
"518 175 CURVE SMOOTH",
"519 181 LINE",
"345 210 LINE",
"344 201 LINE SMOOTH",
"340 170 OFFCURVE",
"321 148 OFFCURVE",
"276 148 CURVE SMOOTH",
"245 148 OFFCURVE",
"225 158 OFFCURVE",
"225 177 CURVE SMOOTH",
"225 177 LINE SMOOTH",
"225 195 OFFCURVE",
"241 206 OFFCURVE",
"271 206 CURVE SMOOTH",
"317 206 LINE",
"317 317 LINE",
"275 317 LINE SMOOTH",
"245 317 OFFCURVE",
"231 328 OFFCURVE",
"231 344 CURVE SMOOTH",
"231 344 LINE SMOOTH",
"231 361 OFFCURVE",
"247 372 OFFCURVE",
"280 372 CURVE SMOOTH",
"319 372 OFFCURVE",
"340 349 OFFCURVE",
"344 317 CURVE SMOOTH",
"345 309 LINE",
"523 335 LINE",
"522 342 LINE SMOOTH",
"506 453 OFFCURVE",
"422 528 OFFCURVE",
"260 528 CURVE SMOOTH",
"121 528 OFFCURVE",
"36 464 OFFCURVE",
"35 376 CURVE SMOOTH",
"35 376 LINE SMOOTH",
"35 301 OFFCURVE",
"78 267 OFFCURVE",
"148 249 CURVE",
"154 284 LINE",
"61 266 OFFCURVE",
"20 222 OFFCURVE",
"20 152 CURVE SMOOTH",
"20 152 LINE SMOOTH",
"20 36 OFFCURVE",
"137 -8 OFFCURVE",
"266 -8 CURVE SMOOTH"
);
}
);
width = 535;
}
);
leftKerningGroup = o;
leftMetricsKey = "=o*0.9";
rightKerningGroup = c;
rightMetricsKey = c;
unicode = 025B;
},
{
glyphname = ezh;
layers = (
{
anchors = (
{
name = top;
position = "{185, 500}";
}
);
layerId = "DCBE1F7B-116A-43E0-B7B4-8657BA77D8B5";
paths = (
{
closed = 1;
nodes = (
"136 -243 OFFCURVE",
"352 -204 OFFCURVE",
"352 13 CURVE SMOOTH",
"352 146 OFFCURVE",
"270 236 OFFCURVE",
"64 223 CURVE",
"68 215 LINE",
"316 479 LINE",
"316 500 LINE",
"50 500 LINE",
"50 479 LINE",
"289 479 LINE",
"46 221 LINE",
"46 204 LINE",
"283 217 OFFCURVE",
"330 109 OFFCURVE",
"330 11 CURVE SMOOTH",
"330 -201 OFFCURVE",
"107 -213 OFFCURVE",
"14 -177 CURVE",
"12 -198 LINE"
);
}
);
width = 376;
},
{
anchors = (
{
name = top;
position = "{219, 520}";
}
);
layerId = "FFFA8D72-12AC-4CE0-B2CA-57A29829F4DA";
paths = (
{
closed = 1;
nodes = (
"264 -261 OFFCURVE",
"454 -147 OFFCURVE",
"454 30 CURVE SMOOTH",
"454 124 OFFCURVE",
"400 259 OFFCURVE",
"203 251 CURVE",
"219 202 LINE",
"419 360 LINE",
"419 520 LINE",
"27 520 LINE",
"27 350 LINE",
"205 350 LINE",
"39 225 LINE",
"114 119 LINE",
"188 186 OFFCURVE",
"266 125 OFFCURVE",
"266 49 CURVE SMOOTH",
"266 -33 OFFCURVE",
"174 -62 OFFCURVE",
"37 -18 CURVE",
"29 -184 LINE"
);
}
);
width = 473;
},
{
anchors = (
{
name = top;
position = "{176, 520}";
}
);
layerId = "4E2227F3-52E4-4048-A8EE-327B486EF0A4";
paths = (
{
closed = 1;
nodes = (
"228 -243 OFFCURVE",
"380 -108 OFFCURVE",
"380 47 CURVE SMOOTH",
"380 160 OFFCURVE",
"298 247 OFFCURVE",
"187 263 CURVE",
"181 204 LINE",
"351 350 LINE",
"351 520 LINE",
"11 520 LINE",
"11 350 LINE",
"140 350 LINE",
"14 250 LINE",
"72 127 LINE",
"134 187 OFFCURVE",
"192 132 OFFCURVE",
"192 62 CURVE SMOOTH",
"192 -44 OFFCURVE",
"80 -40 OFFCURVE",
"23 -8 CURVE",
"20 -174 LINE"
);
}
);
width = 380;
},
{
anchors = (
{
name = top;
position = "{251, 500}";
}
);
layerId = "262880E7-CFE1-4BDA-902E-E24798F3240A";
paths = (
{
closed = 1;
nodes = (
"266 -232 OFFCURVE",
"456 -166 OFFCURVE",
"456 29 CURVE SMOOTH",
"456 186 OFFCURVE",
"333 306 OFFCURVE",
"89 243 CURVE",
"94 235 LINE",
"404 479 LINE",
"404 500 LINE",
"53 500 LINE",
"53 479 LINE",
"372 479 LINE",
"68 241 LINE",
"68 224 LINE",
"345 287 OFFCURVE",
"435 157 OFFCURVE",
"435 29 CURVE SMOOTH",
"435 -163 OFFCURVE",
"239 -205 OFFCURVE",
"50 -149 CURVE",
"48 -168 LINE"
);
}
);
width = 501;
},
{
anchors = (
{
name = top;
position = "{236, 509}";
}
);
associatedMasterId = "FFFA8D72-12AC-4CE0-B2CA-57A29829F4DA";
layerId = "E2F40EC3-97F2-4742-AF5B-8D22F1BE2629";
name = "{100,500}";
paths = (
{
closed = 1;
nodes = (
"239 -242 OFFCURVE",
"455 -164 OFFCURVE",
"455 44 CURVE SMOOTH",
"455 167 OFFCURVE",
"380 291 OFFCURVE",
"142 273 CURVE",
"172 219 LINE",
"411 423 LINE",
"411 509 LINE",
"43 509 LINE",
"43 418 LINE",
"273 418 LINE",
"54 233 LINE",
"89 175 LINE",
"271 240 OFFCURVE",
"355 142 OFFCURVE",
"355 39 CURVE SMOOTH",
"355 -102 OFFCURVE",
"208 -138 OFFCURVE",
"44 -87 CURVE",
"39 -176 LINE"
);
}
);
width = 488;
},
{
anchors = (
{
name = top;
position = "{185, 509}";
}
);
associatedMasterId = "FFFA8D72-12AC-4CE0-B2CA-57A29829F4DA";
layerId = "09BBA6B8-2AC5-4141-9398-553614FAB229";
name = "{100,300}";
paths = (
{
closed = 1;
nodes = (
"184 -243 OFFCURVE",
"369 -159 OFFCURVE",
"369 29 CURVE SMOOTH",
"369 153 OFFCURVE",
"287 259 OFFCURVE",
"126 260 CURVE",
"135 210 LINE",
"337 418 LINE",
"337 509 LINE",
"16 509 LINE",
"16 418 LINE",
"213 418 LINE",
"35 235 LINE",
"63 168 LINE",
"217 203 OFFCURVE",
"269 120 OFFCURVE",
"269 35 CURVE SMOOTH",
"269 -127 OFFCURVE",
"99 -132 OFFCURVE",
"23 -98 CURVE",
"20 -187 LINE"
);
}
);
width = 382;
}
);
unicode = 0292;
},
{
color = 3;
glyphname = f;
layers = (
{
hints = (
{
horizontal = 1;
origin = "{1, 1}";
target = "{1, 0}";
type = Stem;
},
{
horizontal = 1;
origin = "{0, 5}";
target = "{0, 6}";
type = Stem;
},
{
origin = "{0, 10}";
target = "{0, 1}";
type = Stem;
}
);
layerId = "262880E7-CFE1-4BDA-902E-E24798F3240A";
paths = (
{
closed = 1;
nodes = (
"132 0 LINE",
"132 540 LINE SMOOTH",
"132 627 OFFCURVE",
"151 679 OFFCURVE",
"246 679 CURVE SMOOTH",
"277 679 LINE",
"277 700 LINE",
"246 700 LINE SMOOTH",
"138 700 OFFCURVE",
"111 640 OFFCURVE",
"111 540 CURVE SMOOTH",
"111 0 LINE"
);
},
{
closed = 1;
nodes = (
"272 479 LINE",
"272 500 LINE",
"32 500 LINE",
"32 479 LINE"
);
}
);
width = 296;
},
{
layerId = "4E2227F3-52E4-4048-A8EE-327B486EF0A4";
paths = (
{
closed = 1;
nodes = (
"239 0 LINE",
"239 539 LINE SMOOTH",
"239 557 OFFCURVE",
"252 572 OFFCURVE",
"276 575 CURVE",
"283 575 LINE",
"283 700 LINE",
"276 700 LINE",
"134 707 OFFCURVE",
"51 683 OFFCURVE",
"51 556 CURVE SMOOTH",
"51 0 LINE"
);
},
{
closed = 1;
nodes = (
"297 390 LINE",
"297 520 LINE",
"10 520 LINE",
"10 390 LINE"
);
}
);
width = 299;
},
{
layerId = "FFFA8D72-12AC-4CE0-B2CA-57A29829F4DA";
paths = (
{
closed = 1;
nodes = (
"282 0 LINE",
"282 539 LINE SMOOTH",
"282 562 OFFCURVE",
"292 572 OFFCURVE",
"319 575 CURVE",
"376 575 LINE",
"376 700 LINE",
"319 700 LINE",
"157 708 OFFCURVE",
"94 668 OFFCURVE",
"94 556 CURVE SMOOTH",
"94 0 LINE"
);
},
{
closed = 1;
nodes = (
"390 370 LINE",
"390 520 LINE",
"23 520 LINE",
"23 370 LINE"
);
}
);
width = 399;
},
{
layerId = "DCBE1F7B-116A-43E0-B7B4-8657BA77D8B5";
paths = (
{
closed = 1;
nodes = (
"100 0 LINE",
"100 550 LINE SMOOTH",
"100 637 OFFCURVE",
"113 689 OFFCURVE",
"183 689 CURVE SMOOTH",
"208 689 LINE",
"208 710 LINE",
"182 710 LINE SMOOTH",
"100 710 OFFCURVE",
"78 650 OFFCURVE",
"78 550 CURVE SMOOTH",
"78 0 LINE"
);
},
{
closed = 1;
nodes = (
"204 479 LINE",
"204 500 LINE",
"18 500 LINE",
"18 479 LINE"
);
}
);
width = 218;
},
{
associatedMasterId = "FFFA8D72-12AC-4CE0-B2CA-57A29829F4DA";
layerId = "2C93A357-82AB-483E-BCC8-F28359C8C182";
name = "{100,500}";
paths = (
{
closed = 1;
nodes = (
"209 0 LINE",
"209 524 LINE",
"209 593 OFFCURVE",
"228 613 OFFCURVE",
"293 613 CURVE SMOOTH",
"327 613 LINE",
"327 700 LINE",
"283 700 LINE SMOOTH",
"149 700 OFFCURVE",
"109 661 OFFCURVE",
"109 530 CURVE",
"109 0 LINE"
);
},
{
closed = 1;
nodes = (
"327 418 LINE",
"327 510 LINE",
"28 510 LINE",
"28 418 LINE"
);
}
);
width = 344;
},
{
associatedMasterId = "FFFA8D72-12AC-4CE0-B2CA-57A29829F4DA";
layerId = "4E721415-DD60-4F72-A196-6C5252F73DBA";
name = "{100,300}";
paths = (
{
closed = 1;
nodes = (
"164 0 LINE",
"164 535 LINE SMOOTH",
"164 594 OFFCURVE",
"183 620 OFFCURVE",
"226 620 CURVE SMOOTH",
"246 620 LINE",
"248 705 LINE",
"225 705 LINE SMOOTH",
"113 705 OFFCURVE",
"65 659 OFFCURVE",
"65 538 CURVE SMOOTH",
"65 0 LINE"
);
},
{
closed = 1;
nodes = (
"247 437 LINE",
"247 509 LINE",
"14 509 LINE",
"14 437 LINE"
);
}
);
width = 256;
}
);
leftKerningGroup = t;
unicode = 0066;
},
